<svg xmlns="http://www.w3.org/2000/svg" viewBox="0 0 489.9 322.85"><defs><style>.cls-1{fill:#5ab7b2;}.cls-2{fill:#2c2f33;}</style></defs><title>Asset 1</title><g id="Layer_2" data-name="Layer 2"><g id="Layer_1-2" data-name="Layer 1"><path class="cls-1" d="M1,167.25a9.69,9.69,0,0,0,5.7,5l62.6,21.5a8.92,8.92,0,0,0,3.2.5,10,10,0,0,0,9.4-6.7L131,44.25l2.5.9a50.78,50.78,0,0,0,39-2.2l6.1-3a30.68,30.68,0,0,1,23.4-1.4L316.19,78c-1.2,4.4-3.5,9.5-7.5,12.3-4.6,3.2-11.7,3.2-21,0l-51.2-17.5a9.91,9.91,0,0,0-7.9.7,10.13,10.13,0,0,0-4.9,6.2c-.1.3-7.3,26.7-29.5,38.6-14,7.5-31.5,7.7-52,.7a9.93,9.93,0,1,0-6.4,18.8c12,4.1,23.4,6.2,34,6.2a70.87,70.87,0,0,0,33.9-8.3c20-10.8,30.6-29.4,35.5-40.9l42,14.4c15.6,5.3,28.6,4.5,38.7-2.5,15.9-11,17-32.5,17.1-34.9a10.13,10.13,0,0,0-6.7-9.7L208.29,20a50.71,50.71,0,0,0-38.6,2.4l-6.1,3a31,31,0,0,1-23.7,1.4l-10.1-3.6a6.63,6.63,0,0,0-1.9-.9L65.59.55A9.91,9.91,0,0,0,53,6.75l-52.5,153A10.29,10.29,0,0,0,1,167.25Zm67.6-144.8,43.8,15-46,134.3-43.8-15Z"/><path class="cls-2" d="M104.09,258a29,29,0,0,0,25.1,16.2,29.83,29.83,0,0,0,2.9,12.7,28.53,28.53,0,0,0,16.7,14.7,28.39,28.39,0,0,0,22.1-1.4l5.2-2.6a30,30,0,0,0,2.7,9,28.53,28.53,0,0,0,16.7,14.7,28.39,28.39,0,0,0,22.1-1.4l113.7-55.7a292.75,292.75,0,0,0,69.6-47.5l25.4-23.3,58.1-28.4a9.85,9.85,0,0,0,4.5-13.2L418.09,6.45a9.69,9.69,0,0,0-5.7-5,9.59,9.59,0,0,0-7.6.5l-59.4,29.1a9.85,9.85,0,0,0-4.5,13.2l67.8,138.6-21,19.3a276.24,276.24,0,0,1-64.9,44.3l-113.7,55.7a9.19,9.19,0,0,1-7.1.4,9.42,9.42,0,0,1-5.3-4.7,9.19,9.19,0,0,1-.4-7.1,9.42,9.42,0,0,1,4.7-5.3l63.6-31.1a9.86,9.86,0,1,0-8.7-17.7l-63.6,31.1h0l-30,14.7a9.19,9.19,0,0,1-7.1.4,9.42,9.42,0,0,1-5.3-4.7,9.19,9.19,0,0,1-.4-7.1,9.42,9.42,0,0,1,4.7-5.3l91.2-44.6a9.86,9.86,0,1,0-8.7-17.7l-102.5,50.1a9.39,9.39,0,0,1-12.4-4.2,9.19,9.19,0,0,1-.4-7.1,9.42,9.42,0,0,1,4.7-5.3l40.4-19.8h0l52.5-25.7a9.86,9.86,0,1,0-8.7-17.7l-81.7,40a9.26,9.26,0,1,1-8.2-16.6l43.4-21.2a9.86,9.86,0,1,0-8.7-17.7l-43.4,21.2a29.06,29.06,0,0,0-5.1,49A28.58,28.58,0,0,0,104.09,258ZM363,44.45l41.6-20.4L467,151.55,425.39,172Z"/></g></g></svg>