<svg id="Layer_1" data-name="Layer 1" xmlns="http://www.w3.org/2000/svg" xmlns:xlink="http://www.w3.org/1999/xlink" viewBox="0 0 1332.85 1400.05"><defs><style>.cls-1{mask:url(#mask);}.cls-2{mix-blend-mode:multiply;fill:url(#radial-gradient);}.cls-3{mask:url(#mask-2);}.cls-4{fill:url(#radial-gradient-2);}.cls-5{fill:#5ab7b2;}.cls-6{fill:#fff;}.cls-7{fill:#9edcd9;}.cls-8{fill:#bfe8e6;}.cls-9{fill:#ebf8f7;}.cls-10{fill:#24b1a8;}.cls-11{fill:#bde7e5;}.cls-12{fill:#e0f4f3;}.cls-13{fill:#1fafa6;}.cls-14{fill:#4dbfb8;}.cls-15{fill:#70ccc6;}.cls-16{fill:#17aca3;}.cls-17{fill:#00a49a;}.cls-18{filter:url(#luminosity-noclip-2);}.cls-19{filter:url(#luminosity-noclip);}</style><filter id="luminosity-noclip" x="20.4" y="-8576" width="1325.2" height="32766" filterUnits="userSpaceOnUse" color-interpolation-filters="sRGB"><feFlood flood-color="#fff" result="bg"/><feBlend in="SourceGraphic" in2="bg"/></filter><mask id="mask" x="20.4" y="-8576" width="1325.2" height="32766" maskUnits="userSpaceOnUse"><g class="cls-19"/></mask><radialGradient id="radial-gradient" cx="683" cy="881.4" r="628.45" gradientTransform="translate(823.29 -224.8) rotate(45)" gradientUnits="userSpaceOnUse"><stop offset="0.39" stop-color="#fff"/><stop offset="0.45" stop-color="#f2f2f2"/><stop offset="0.55" stop-color="#cfcfcf"/><stop offset="0.69" stop-color="#969696"/><stop offset="0.86" stop-color="#484848"/><stop offset="1"/></radialGradient><filter id="luminosity-noclip-2" x="20.4" y="218.8" width="1325.2" height="1325.2" filterUnits="userSpaceOnUse" color-interpolation-filters="sRGB"><feFlood flood-color="#fff" result="bg"/><feBlend in="SourceGraphic" in2="bg"/></filter><mask id="mask-2" x="0" y="74.85" width="1325.2" height="1325.2" maskUnits="userSpaceOnUse"><g class="cls-18"><g transform="translate(-20.4 -143.95)"><g class="cls-1"><circle class="cls-2" cx="683" cy="881.4" r="662.6" transform="translate(-423.2 741.11) rotate(-45)"/></g></g></g></mask><radialGradient id="radial-gradient-2" cx="683" cy="881.4" r="628.45" gradientTransform="translate(823.29 -224.8) rotate(45)" gradientUnits="userSpaceOnUse"><stop offset="0.39" stop-color="#a3d7d4"/><stop offset="1" stop-color="#a3d7d4"/></radialGradient></defs><title>background_full</title><g class="cls-3"><circle class="cls-4" cx="683" cy="881.4" r="662.6" transform="translate(-443.6 597.16) rotate(-45)"/></g><path class="cls-5" d="M1196.55,872.42c0,286.53-232.27,518.8-518.79,518.8S159,1159,159,872.42s232.27-518.79,518.8-518.79S1196.55,585.9,1196.55,872.42Z" transform="translate(-20.4 -143.95)"/><path class="cls-6" d="M607.81,1376.08c-2.58-3.88-12.85-11-13.85-8.77s1.43,4.48-1.18,6.42,4.16,4.87,3.93,8.66,12.59,4.51,14.94,2.93,7.65.9,7.65.9C618.75,1382.14,610.39,1380,607.81,1376.08Z" transform="translate(-20.4 -143.95)"/><path class="cls-6" d="M614.25,968.2s-4.61,6.81-2.9,5.86.49-.27,1.53,3.79,8.67,2.28,9.88.11a9.24,9.24,0,0,0-.08-8.1C621.41,967,614.25,968.2,614.25,968.2Z" transform="translate(-20.4 -143.95)"/><path class="cls-6" d="M647.7,570.49c.91-11.82-2.75-8.72-2.75-8.72-4.67,1.82-11.69-3.75-8-13.36-8.32.68-23.69,25.72-23.69,25.72.34,0,.52,0,.86,0C614.09,574.1,646.79,582.3,647.7,570.49Z" transform="translate(-20.4 -143.95)"/><path class="cls-6" d="M554.26,464.42c-4.59,6.94,2,6.2,3.75,5.77s2-2.95,2-2.95c1-5.89,9.56,1.84,11,2.45s2.07-3.74,2.43-7.25-6.69-5.68-9.73-6.2S558.85,457.47,554.26,464.42Z" transform="translate(-20.4 -143.95)"/><path class="cls-6" d="M534.44,444.65c-.5,2.19,9.68-5.9,9.68-5.9.2-1.24.29-1.86.49-3.1a13.35,13.35,0,0,0-2.42-.18c-.24.13-4.35-.26-5.51.07a14.28,14.28,0,0,0-4.83,4.28C529.27,443.12,535,442.46,534.44,444.65Z" transform="translate(-20.4 -143.95)"/><path class="cls-6" d="M481.27,438.18c4.63.4,4.65,1.43,3.79,2.83s-5.55,1.95-5.55,1.95c-.33,1.28-.5,1.92-.83,3.21,5-1.45,7.48-2.16,12.51-3.53-.24,1-.37,1.52-.61,2.54-6.09,1.63-9.13,2.49-15.15,4.24a18.37,18.37,0,0,0,16.36,4.15c10.28-2.08,8.31-7.63,13.69-8.4s7.59,3.22,13.41-1.45,10.82-8.9,10.82-8.9-2.57-4.44-4.68-4,5.69-12.1,5.69-12.1c-2.44.55-3.66.83-6.1,1.41-2.41,3-3.62,4.58-6.06,7.65-.41-2.4-.6-3.57-1-5.94l-5.6,4.81c-3.6-.45-5.38-.65-8.91-1,0,0-5.19-17.2-39.4,17.29.85,2.48,1.29,3.74,2.2,6.28C465.87,449.23,476.64,437.77,481.27,438.18Z" transform="translate(-20.4 -143.95)"/><path class="cls-6" d="M328.19,561.6c-1.18,1.59-3.17,4-3.2,5.67s3.06-2.58,3.06-2.58,1.74,1.56,3.06.81.92-1.54.67-3.37-2.48,1.08-1-1.48S329.38,560,328.19,561.6Z" transform="translate(-20.4 -143.95)"/><path class="cls-6" d="M327.91,569.15c-5.11,2.07-5.49,7.58-5.49,7.58l2.77-.06S333,567.08,327.91,569.15Z" transform="translate(-20.4 -143.95)"/><path class="cls-6" d="M315.72,613.6s6.13-.56,5.63-1.58,3.85-11-1.9-12.26-8.65,7.71-8.65,7.71C310.54,612.47,315.72,613.6,315.72,613.6Z" transform="translate(-20.4 -143.95)"/><path class="cls-6" d="M544.16,425.18s4.31.72,5-.48,1.35-3.15,4.21-3.67c7.22-2.3,9.1-12.95,9.1-12.95-3.6,1.68-5.41,2.53-9,4.25l-3.16.62s-1.26,5.12-2.86,5.7-2.27-1.5-2.27-1.5-5,.15-5.41.42l.1,2.8C545.22,422.34,544.16,425.18,544.16,425.18Z" transform="translate(-20.4 -143.95)"/><path class="cls-6" d="M569.84,411.76c1.55-1.61,6.93.1,6.93.1l2.47-6.76s.08-2.14-8.51,1.81-7.65,9.77-7.65,9.77C568.27,417.12,568.3,413.37,569.84,411.76Z" transform="translate(-20.4 -143.95)"/><path class="cls-6" d="M579.32,425.87c.12.82,6,1.45,8-.58s10.86,1.09,10.86,1.09,3.24.78,5.16-.92,6.75-8.82,8.54-3.29,15.72,20.25,15.72,20.25c-2.11,1.49-3.16,2.25-5.27,3.76,0,0-4.63-4.35-6.2-3.55-6.56,3.33-7.7,5.65-9.78,9.92,0,0,0,0-6,.24-11.72.51-14.4,7.14-9.38,8.19s7.82-4,7.82-4,6.29.93,6.27.13c-.06,10.27,11.49,15.51,11.72,15.59s8.16.89,9.23,0,3.81-4,0-5.37-6.15-5.19-2.39-6.9,6.84,7.94,8.87,4.76,2.93-6.72,1.09-14,3-6.53,3-6.53c4.26,2.33,6.39,3.52,10.73,5.92,0,0,10.52-9,5.77-11.19s-8.69-13.65-8.69-13.65c-.17-2-.25-2.93-.42-4.88-13.14-3.9-16.16-12.37-16.16-12.37-2.94,1.54-4.43,2.31-7.39,3.88l-9.62-8.4c-2.22.26-3.33.4-5.54.68-.9,4.36-4.93,2.87-4.93,2.87l-2.36-.78c.1-.95.14-1.43.24-2.39-10.47-1.4-20.67,14.64-20.67,14.64S579.2,425,579.32,425.87Z" transform="translate(-20.4 -143.95)"/><path class="cls-6" d="M599,400.57c6-.66,9-.95,15-1.47-.09.75-.14,1.12-.23,1.87l6.25-.58c7.79-4.94,6.33-8,6.33-8-8.46.92-12.67,1.46-21,2.64-17-10.14-18.65,5.85-18.65,5.85-.36,0,12.3-1.79,12.3-1.79Z" transform="translate(-20.4 -143.95)"/><path class="cls-6" d="M614.15,377.94s2-5.19,6.06-5.79,1.24-6.79-2.28-7.2-17,5.46-15.64,12.07C602.41,377.54,614.15,377.94,614.15,377.94Z" transform="translate(-20.4 -143.95)"/><path class="cls-6" d="M624.49,379l-.2,2.75c-6.94.62-10.4,1-17.28,1.8,0,0,3.69,4.57,4.83,5.28s7.31-1.85,7.31-1.85a43.87,43.87,0,0,0,4.55-1.06c.73-.33,5.42,4.25,5.42,4.25s3.23,2.54,4.59-1.08S662,370.75,662,370.75c15.43-5.92,38.46-6.05,38.65-16.63-27,1-41.05,2.39-68.21,6.83-.1,1.47-.15,2.22-.25,3.7,9.41-.21,14.16-.2,23.73,0l-3.47,3.91-.28,0c-2.65.12-22.88,1.5-23.21,1.53-3.84.33,1.44,7.65,1.44,7.65-1.45.11-2.16.18-3.61.31.07-1,.11-1.54.18-2.57-2.08.18-3.11.27-5.18.48l-.93,3.35Z" transform="translate(-20.4 -143.95)"/><path class="cls-6" d="M824.1,381.62a38.52,38.52,0,0,0-9.35-6.78c-12.64-4-19-5.9-31.9-9.2a400.14,400.14,0,0,0-44.35,0c-6.7,0-22.37-9.24-32.68-4.45-18.77,13.8-40.6,10.23-40.36,13.66,0,0-4.19,15.52,25.95,12.81,9.15-.82,10.27,21,10.27,21l3.81,2.23s-3.3,20.42-9.1,24.19,3.8-2.47-1.68,19.22,5,14.41,9.51,24,15.57,2.16,16.63.59,15.81-26.49,18.3-26.12,18.68-1.75,20.49-5.23S777.51,433.7,778,436.4s5.09,3.5,8,3.15,21.19-2.39,21.59-3.41-3.27-5.69-3.27-5.69-4.64-.07-6,.62-5.12-2.12-4.52-2.91,3.65-.17,3.82-2-1.68-3.75-.33-5,8.93,9,8.93,9,7.84,2,6.42-1.5c-1.08-2.71-9.39-10.8-12.68-13.38,4,.45,15.5-2.55,16.87-4.33,1.59-2.08,4.36-11,4.82-13.08s-1.88-3.48-1.88-3.48c1.32-2.9,2-4.32,3.22-7.14,0,0-1.67-.53,6.89,1.56s7.72-3.79,7.72-3.79S827.83,385.58,824.1,381.62Z" transform="translate(-20.4 -143.95)"/><path class="cls-6" d="M828.49,458.65c-2,.86-7.47-.4-12.93-.83s-9.07,7.3-9.33,8.27c0,.43.07.63.13,1,1.62,3.28,13.74,6.94,15.26,7.94s19.73-4.41,18-8.77S830.42,457.79,828.49,458.65Z" transform="translate(-20.4 -143.95)"/><path class="cls-6" d="M456.84,754.19c-.61,1.92-.92,2.88-1.52,4.8,1.4,3.23,2.1,4.87,3.53,8.13l3.43-.15a9.21,9.21,0,0,1-1.56-7.36c.81-4.64,4.7-3.64,4.7-3.64-.29-1.53-.44-2.29-.73-3.81l5.72-.89c-.31-3.84-.46-5.75-.76-9.58-4.59.26-6.88.38-11.45.65-.24,3.24-.35,4.87-.58,8.13l3.12-.18c-.08,1.48-.12,2.21-.19,3.71Z" transform="translate(-20.4 -143.95)"/><path class="cls-6" d="M474.52,768.07c1.16-.05,2.17-1.7,2.26-3.69s-.78-3.55-1.95-3.49-2.17,1.69-2.26,3.67S473.35,768.12,474.52,768.07Z" transform="translate(-20.4 -143.95)"/><path class="cls-6" d="M475.23,774.94c1.72-.06,3.15-1,3.19-2.14s-1.31-2-3-1.91-3.14,1-3.18,2.15S473.52,775,475.23,774.94Z" transform="translate(-20.4 -143.95)"/><path class="cls-6" d="M473,784.05c-.08,2.16,1.93,3.85,4.49,3.77s4.72-1.92,4.79-4.09-1.94-3.86-4.51-3.77S473,781.88,473,784.05Z" transform="translate(-20.4 -143.95)"/><path class="cls-6" d="M477.4,799c-.35-4.23-13.5-11.69-21.87-17.32S445.66,776,434.41,776a15.88,15.88,0,0,0-15.65,11.3l5.59.35c3.94-5.92,9.25-4.09,9.25-4.09,12.27,1.09,20.65,10.36,20.65,10.36s-5.77,8.58-1.53,7,11.87,1.9,11.87,1.9S477.75,803.26,477.4,799Z" transform="translate(-20.4 -143.95)"/><path class="cls-6" d="M447.94,817.05c1.28,1.05,1.92,1.57,3.2,2.64l11.14-.86c-.42-1.82,0-3.09-4.76-6.09C448.05,807.39,447.94,817.05,447.94,817.05Z" transform="translate(-20.4 -143.95)"/><path class="cls-6" d="M491.15,818.07c1.83-2.18,17-.78,17.18-6.16s-9.8-10-9.8-10-15.38-1.36-16.86.44,1.43,8.72,1.43,8.72l-12.16.29c-.46,1.45-.7,2.18-1.16,3.63l4.15,2.08s6,2.62,6.32-.14,4-3.29,3.72-2.25S489.32,820.26,491.15,818.07Z" transform="translate(-20.4 -143.95)"/><path class="cls-6" d="M523.3,811.07c-.59-2-2.8-3.42-5.47-3.37-3.15.06-5.74,2.16-5.79,4.67s2.46,4.52,5.62,4.46a7,7,0,0,0,2.32-.43,4.23,4.23,0,0,0,4.19,3.66,4.65,4.65,0,0,0,4.42-4.65,4.28,4.28,0,0,0-4.26-4.5A4,4,0,0,0,523.3,811.07Z" transform="translate(-20.4 -143.95)"/><path class="cls-6" d="M535,816.17c.62,1.64,2.12,2.32,3.34,1.51a3.84,3.84,0,0,0,1.09-4.43,2.77,2.77,0,0,0-1.75-1.76v0c0-1.2-.72-2.18-1.66-2.16a2.07,2.07,0,0,0-1.72,2.22,2.28,2.28,0,0,0,.67,1.73A4.22,4.22,0,0,0,535,816.17Z" transform="translate(-20.4 -143.95)"/><path class="cls-6" d="M545.54,822.76a3.85,3.85,0,0,0,1.07-4.45c-.62-1.64-2.12-2.32-3.36-1.5a3.82,3.82,0,0,0-1.07,4.42C542.8,822.88,544.32,823.56,545.54,822.76Z" transform="translate(-20.4 -143.95)"/><path class="cls-6" d="M556.19,846.11c1.23-1.39,1.71-4.83,1.07-7.68-.45-2-1.33-3.18-2.25-3.22a3.76,3.76,0,0,0-.23-.92,2.47,2.47,0,0,0-2.59-1.83,4.24,4.24,0,0,0,.13-3.34c-.63-1.65-2.14-2.34-3.36-1.53a1.55,1.55,0,0,0-.24.19,4.13,4.13,0,0,0-.15-.5c-.64-1.65-2.14-2.33-3.37-1.53a3.85,3.85,0,0,0-1.07,4.44c.63,1.66,2.14,2.35,3.37,1.54.08-.05.15-.14.23-.2,0,.17.1.34.16.51a2.47,2.47,0,0,0,2.57,1.84,4.3,4.3,0,0,0-.12,3.33,2.61,2.61,0,0,0,2.3,1.87,12.28,12.28,0,0,0,.16,4.35C553.43,846.28,555,847.49,556.19,846.11Z" transform="translate(-20.4 -143.95)"/><path class="cls-6" d="M552.58,824a3.83,3.83,0,0,0,1.08-4.45c-.63-1.65-2.14-2.33-3.36-1.52a3.82,3.82,0,0,0-1.09,4.43C549.85,824.11,551.36,824.8,552.58,824Z" transform="translate(-20.4 -143.95)"/><path class="cls-6" d="M538,827.65c1.69,1.62,3.17,1.52,3.3-.24s-1.15-4.52-2.83-6.14-3.15-1.5-3.28.25S536.35,826,538,827.65Z" transform="translate(-20.4 -143.95)"/><path class="cls-6" d="M547.36,862.27h3.14c0-3,0-4.45,0-7.43l3.15,0c0-3.25,0-4.87,0-8.12l-3.74,0c0,3,0,4.44,0,7.41H546.8c0,3,0,4.46,0,7.44h-3.14c0,3.25,0,4.88,0,8.14h3.73C547.34,866.73,547.35,865.24,547.36,862.27Z" transform="translate(-20.4 -143.95)"/><path class="cls-6" d="M562.29,861.52c.36-.55,3.67,0,3.67,0,.3-1.8.45-2.71.76-4.51l-5.27-2.21S561.91,862.08,562.29,861.52Z" transform="translate(-20.4 -143.95)"/><path class="cls-6" d="M683.86,996.31c-35-10.2-29.21-3.78-29.21-3.78s-6.41,8-7.18,5.23,8.94-16.07-12.15-21.86l-16.16,11s-3.78-6.25-8.7-5.7-9.5,5.76-9.79,3,10.58-18.52,12.76-23.19c0,0,2.9-5-2.71-10s5.44-10.31-17.71-30.7c-23,.78-34.53-11-36.53-20.14-.81-3.66-5-7.25-9.92-10.19.42-3.17,1.77-7.14,3.35-8.17,2.43-1.58,6.35-7.28,3.05-9.34s-3.79,3.64-4.34,4.12-5.18-.65-7.07.93-4.3,8-4.3,8h0c-4.55-1.75-8.58-2.72-10.32-2.51-4.83.62-29.87-9.45-27.47-13.83s-8.62-3.72-10.52,5.93-1.83,18-3,17.38c-1.52-2.51-2.27-3.77-3.79-6.29.76-5.85,1.15-8.8,1.93-14.67l3.94-3.73c.08-1.69.12-2.54.18-4.21l-6.07,0a23.31,23.31,0,0,0-6.43,8.39c-1.95,4.88-9.19,2.42-9.19,2.42s-7.06,16-13.53,20.1c0,0-5.69-6.91-12-6.73s-10.27,3.11-12.86,4.9-14.82-8.69-12.94-16.38c.94-11.39,1.47-17.11,2.58-28.47,0,0,4.58-16.9-24.68-11.86,4.66-16.1,7.09-24.16,12.11-40.24,0,0,6.15-14-18.34.81,0,0-6.91,27.7-27.77,18.35,0,0-23.25-14-2.22-54.11,2.24-6.33,3.37-9.5,5.66-15.83,0,0,14.91-16.29,25.91-18.14s9.66,7.76,17.22,5,7-13.3,13.1-12.76,8.95,7,17.32,3.52l6.66,6.22s-6.66,27.85,4.07,30.38c5.09,1.71,7.85-13.89,7.56-17.6-.53-.33-.79-.48-1.33-.8.53-10.75.83-16.09,1.49-26.7,0,0,5.85-19.27,28.83-27.51,13.2-5.32,15.18-31,15-33.3,1.7-.14,2.55-.22,4.26-.35,0,0,5.86-11.85,13.65-14s12.47-17.08,25.66-18.7c.88-3.67,1.31-5.5,2.19-9.15,0,0,4.34-13,37.71-19,7.44,1.07-12.63,12.14-12.63,12.14.9-.51,3.67,4.29,3.67,4.29s25.83-19,29.43-18.8c.2-1.56.3-2.33.51-3.88l-6.85.33s-21.63,2.83-4.64-21.42c-4.76-.13-7.13-.19-11.86-.28l1.95-4.55s74.58-12,60.19-35.06c-4.07.12-6.11.19-10.17.34.29-1.91.43-2.87.71-4.79,0,0-8.21-10-5.47-13s.76-24.62.76-24.62c-8.09,6.13-12.17,9.24-20.37,15.55,0,0-11.77,5-1.68-11.37S584,472.51,581.72,472.58c-10.12.24-14.08,27.11-18.18,23.23-.41,3.44-.63,5.18-1,8.64,0,0,1.74,13.29-20.22,25.09-7,4.3-9.89,16.67-12.23,20.59,0,0-16.16,9.45-2.6-20,0,0,3.4-4.55-11.94-4.66l-9-6.6c-2.21.28-3.32.42-5.53.72-1.3-4-1.93-6-3.17-9.94l-2.66-.84s12.06-24.17,34.23-31.28c.52-2.66.78-4,1.3-6.6.75-.14,8.69-1.45,8.69-1.45,5.06-2.55,7.58-3.81,12.63-6.31,0,0-4.66-6.07-2.29-7.76s12.8-3,12.8-3l16.21-3.29s4.8.14,11.56-11.46.58-8.78-.14-8.88-9.45,1.13-9.45,1.13-14.6,16.7-15.22,14.9-1.1-4.71,2.16-7.61,1.56-3.21,1.56-3.21c-3.82-.79-5.72-1.16-9.49-1.88,1.51-4.22,2.26-6.32,3.75-10.51-6.86,4-10.31,6-17.22,10.11,0,0,3.6,3.16-1.38,10.64l-5.15,1.72c-3,3.1-4.53,4.64-7.55,7.74,0,0-4.85,3.08-4.9-3.88-2.5.46-3.76.7-6.26,1.18,0,0-10.84,2.22-14.88.18s-14.87,11.34-17.1,14.42-4.23-2.6-2.55-5.87c-2.07.22-3.09.34-5.14.58-4.26,1.33-6.37,2-10.61,3.4,1.66-2.34,2.49-3.51,4.13-5.85,0,0-16.45,2.5-15.14-.8-4.09,1.33-6.13,2-10.2,3.41,0,0-8.48,2.8-8.7.59s-18.61,9.69-24.29,14.22-14.11,6.33-14.11,6.33-39.87,5.53-75.35,36c-3.15,2-4.7,2.93-7.81,4.9,0,0-5.29,3.67-8.1,7.9s.25,3.22.25,3.22l-6.31,5.86s-10.48,3-20.93,14.52,8.42-2.83,11.38-5.18,2.38-.59,2.38-.59c-4.1,3.92-6.14,5.88-10.24,9.78,0,0-14.82,8.66-17.06,11s-7.57,6.68-8.86,10.69-8,8.68-9.87,10.16-1.5,3.78.84,2.77,6.07-5.64,7.28-5.22-31,26.35-31,26.35c2.58-.88,3.88-1.31,6.51-2.15,0,0,47.91-40.64,53.67-42.33s14.52-7.36,19.84-12.78,29.27-3.81,26.57,4.37-3.87,13-6.22,15.95-8.69,13.13-5.8,13.77c0,0-7.75,6.9.44,12.09s-5.08,17.69-7,20.2-9.63,3.6-9.63,3.6-25.14,32-26.95,38.37-4.87,7.22-6.32,7.56-9.26,12.81-3.88,19.67c-1.37,8.62-2,13-3.12,21.74,0,0,10.4,4.55,9,10.11s-3.49,15.5-3.49,15.5,4.49,9,3.24,12.56-5.37,9.34-1,12.51,6.3,4.93,4.85,6.83.95,17.71,8.9,16.28c-1.16-4.52-1.71-6.77-2.8-11.22-.4-3.33-.59-5-1-8.31.07-3.82.11-5.72.22-9.51-2.1-8.73-3.08-13-4.88-21.5-.72-5,4.29-12.31,8.66-4.59-.24,6.27-.33,9.42-.46,15.78,2.56,5.87,3.89,8.85,6.61,14.88-.43,2.68-.64,4-1.05,6.69,0,0,12.87,16.23,12,26.45s-2.77,15.14-2.77,15.14,27.61,29.77,40,29.9,11.06-8.83,19.42-1.1c15,15.09,21.15,21.43,30.39,20,.39,1.95.6,2.94,1,4.9,0,0,3.31,9.5,5.45,10.52s1.49,7.51,1.49,7.51,12.36,15.71,16,16.09,11.31,8.61,14.35,8.1,3.09-9.14,3.09-9.14,3-7.14,8.81-.93c.58,2.24.88,3.37,1.47,5.61l-.55,4.08s7,18.57,3.75,30.43-16.44,36.92-18,38.06-.71,7.52,2.85,11.34,2.78,5,1,8.69-4.42,13.94.26,21.19,15.42,21.58,19,37,19.18,31.53,20.49,36.42,48.69,21.89,40,72.56c7.32,42.11,11.28,62.61,19.53,102,1.88,6.49,2.81,9.71,4.69,16.13,4.64,6.67,6.94,10,11.5,16.58.25,2.83.38,4.23.64,7l5,7.23c-.14,2.72-.2,4.08-.32,6.77-1.6.8-2.4,1.19-4,2,.18,1.68.28,2.51.47,4.18,0,0,14.15,13.17,16.73,25.44s7.09,11.41,9.45,11.57,1,5.81,3.45,6.69,3.61-2.56,7.55,2.9c2.24-2.55,3.37-3.85,5.69-6.46-1.79-4-2.68-6-4.5-10,1.72-6.58,2.62-9.91,4.49-16.68-3.73-5.09-5.62-7.66-9.43-12.82,1.16-4,1.76-6,3-10.12l-1.57-5.73c1.14-1.89,1.72-2.84,2.88-4.74l-.35-3.61-9.75-11.61c4.37,2,6.55,2.91,10.9,4.82,1.18-3.89,1.76-5.84,3-9.78-.93-3.22-1.39-4.83-2.32-8.06,4.3.42,6.47.61,10.8,1,0,0,18.63-.88-2.42-34.32,2.35-3.34,16,6.49,18.33,5.27,6.58-10.89,10-16.44,17-27.73-.14-4.45-.22-6.67-.36-11.15,0,0,9.88-1.72,4.14-29.51,1-7.38,21.39-18.52,23.73-18.78s9.82.07,9.82.07,20.78-35.51,15.08-76.28c-1.6-26.69,21.51-40.35,24.82-52.32C711.19,1030.71,718.82,1006.5,683.86,996.31ZM507.5,609.07c2.55-1.36,4.19-4.6,5.57-3.06s.22,4.73-.56,5.93-9.65,1.79-9.65,1.79C503,612,504.94,610.45,507.5,609.07Zm-21,20.65c-1.83.66-6,.63-6,.63-2.08-1-5.09-3.41-1.5-4.37s8.29-1.72,10.07-4.13,3.26-4,3.33-.35S488.34,629.05,486.51,629.72Zm-7.06-51.09c8.21,2.83,6.07,11.8,6.05,13.7s2.9,6.17,5.93,4.17,9.61-3.06,9.61,3-6,7-7.26,6.88-4.08,3.49-5.45,6.13-5.26,6.11-6.11,2.07,2-10.12,3.2-10.8-1.26-3.95-4.09-3.59-24,27.52-25.79,31.84-3-3.44-3-3.44,14.85-26.34,23.89-29.4,6-6.19,5.22-6.63-6.12,1.35-6.12,1.35-5.5-1.54-5.46-3.35-10.55,3.46-11,7c-.47,3.31-4.27-5.07-5.81-4.51S471.25,575.8,479.45,578.63Z" transform="translate(-20.4 -143.95)"/><path class="cls-6" d="M862.18,557.94s8.49-5.63,12.41-5-.53-9.21-.53-9.21,2-4.28,2.89-4.51-1.41-5.8-2.83-6.24-9.57-1.66-9.57-1.66-3,5.31-4.61,3.5-3.42,1.6-3.42,1.6,1,4.85,2.29,5.24.19,4.55-.74,5.59S857.12,556.21,862.18,557.94Z" transform="translate(-20.4 -143.95)"/><path class="cls-6" d="M878.44,534.7c3,1.08,4.56,1.65,7.6,2.74,2.81,5.07,2.72,8.64-.86,9.74s-3.86,4.92-4.54,7.33,2.25,1.73,2.41,3.7,7,2.92,6.58,4-10,3.45-10,3.45l4.61,2.88c5.78-.89,8.66-1.31,14.34-2.11,0,0,9.42,3,9.79,1.75s-2.63-2.21-2.54-5.06,2.38,3.07,4-2.86-1.05-5.67-1.05-5.67c-2.19.24-3.31.37-5.52.64-1.35-7.46-13.9-23.58-13.9-23.58s-4-1.71-3.78-2.24,2.06-6.86,2.06-6.86l-4.33-1.43s2.19-1.42-2.65-4.07-5.29,4.58-5.29,4.58c0,2.09-.07,3.15-.11,5.26l2,.36S878.64,534.17,878.44,534.7Z" transform="translate(-20.4 -143.95)"/><path class="cls-6" d="M982.91,537.32c-.84-.29-1.26-.44-2.1-.71,0,1.09,0,1.65.06,2.76l1,3,4.25,1.39c-.31-1-.48-1.49-.8-2.47C984.35,539.73,983.86,538.92,982.91,537.32Z" transform="translate(-20.4 -143.95)"/><path class="cls-6" d="M1080.13,710.3c1.18-.32,3-4.08,4.36-3.84s1.94-3.06.51-4.38-3.44-1.55-4.43-.85a30.21,30.21,0,0,1-4.36,1.89S1078.94,710.64,1080.13,710.3Z" transform="translate(-20.4 -143.95)"/><path class="cls-6" d="M1046.58,703.08c1.66.26,2.71-1.2,2.34-3.27s-2-4-3.67-4.25c-3.92-.65-5.89-1-9.85-1.6-1.66-.27-2.72,1.21-2.36,3.31s2,4,3.66,4.28Z" transform="translate(-20.4 -143.95)"/><path class="cls-6" d="M975.43,670.82c-.12,5.53,14.65,8.9,14.65,8.9.18-3.75.27-5.62.41-9.33,0,0-11.7-3.52-12.49-3.64C978,666.75,975.54,665.29,975.43,670.82Z" transform="translate(-20.4 -143.95)"/><path class="cls-6" d="M983.66,682.77c.3,2.11.45,3.16.74,5.28l3.69.49,1.48-2.8Z" transform="translate(-20.4 -143.95)"/><path class="cls-6" d="M958.13,640.85c.73-.28-1.69-10.21-1.69-10.21s-3.82,0-4.88,1.05,2.44,8.52,2.44,8.52S957.4,641.13,958.13,640.85Z" transform="translate(-20.4 -143.95)"/><path class="cls-6" d="M955.39,659.25l3,.42,2.75-1.4c-.85-5.72-1.28-8.57-2.19-14.25l-5.33-1.71C945.47,644.32,955.39,659.25,955.39,659.25Z" transform="translate(-20.4 -143.95)"/><path class="cls-6" d="M934,646.68l-2.91-1.61c.24,1.81.35,2.72.6,4.54l2.27.29C934,648.61,934,648,934,646.68Z" transform="translate(-20.4 -143.95)"/><path class="cls-6" d="M922.94,652.27l-3.77-.46c.05,1.73.07,2.59.11,4.33l3.29.39c.13-1.34.19-2,.32-3.34l5.24.64c0-.61-.07-.92-.12-1.54l1.14.14c-.27-2.11-.4-3.17-.68-5.27a46.52,46.52,0,0,1-5.29-.68c.13.83.2,1.25.34,2.08l-.95.69C922.71,650.46,922.79,651.06,922.94,652.27Z" transform="translate(-20.4 -143.95)"/><path class="cls-6" d="M778.31,820l-4.92-.05a2.12,2.12,0,0,0-1.82,2.36,2.19,2.19,0,0,0,1.88,2.37l4.92,0a2.1,2.1,0,0,0,1.82-2.34A2.21,2.21,0,0,0,778.31,820Z" transform="translate(-20.4 -143.95)"/><path class="cls-6" d="M790.57,830.14a2,2,0,0,0,1.69-2.19V827a2,2,0,0,0-1.74-2.21c-.95,0-1.7,1-1.7,2.18,0,.38,0,.57,0,.94A2,2,0,0,0,790.57,830.14Z" transform="translate(-20.4 -143.95)"/><path class="cls-6" d="M787.43,836.42l-2.95,0a1.69,1.69,0,0,0-1.46,1.88,1.75,1.75,0,0,0,1.48,1.91h3a1.69,1.69,0,0,0,1.46-1.87A1.76,1.76,0,0,0,787.43,836.42Z" transform="translate(-20.4 -143.95)"/><path class="cls-6" d="M783.93,828.74a1.23,1.23,0,0,0-1-1.34h-.37a1.21,1.21,0,0,0-1,1.34,1.25,1.25,0,0,0,1.07,1.34h.36C783.48,830.08,783.94,829.49,783.93,828.74Z" transform="translate(-20.4 -143.95)"/><path class="cls-6" d="M792.44,834.25l-1.23,0c-1.29,0-2.31,1.33-2.3,3s1.06,3,2.35,3h1.23c1.28,0,2.31-1.33,2.3-3S793.72,834.26,792.44,834.25Z" transform="translate(-20.4 -143.95)"/><path class="cls-6" d="M1086.34,552.68c-4.24-5.4-6.4-8.07-10.81-13.33-1.27-.7-1,.55-.18,2.09S1081.9,548.55,1086.34,552.68Z" transform="translate(-20.4 -143.95)"/><path class="cls-6" d="M1167,878c-9.11,3.64-11.63-2.78-11.63-2.78-.81-3.55-1.22-5.33-2.09-8.89-7.87-10.18-11.94-15.38-20.3-25.93-5.43-10.83-8.25-16.3-14.06-27.3-.6-5.3-.91-8-1.59-13.23-11.49-20.78-17.57-31.34-30.16-52.61.13-1.56.18-2.33.31-3.88l9.87,12.28c.27-3.46.4-5.19.62-8.63,0,0,3.88,7.91,4.47,12.07s18.18,16.73,22.14,34.06,24.29,42.24,24.29,42.24,6.11,24.19,9.11,28.34S1181.47,853,1181.47,853c.31-1.91,2.91-7.81,14.06-13.34a434.4,434.4,0,0,0-5.37-48.91,9.92,9.92,0,0,1-6.37-2.78c-.77-3.14-1.18-4.71-2-7.84l-8.86-1.06s1.72-4.1-7.39-15.81-4-10.71-4-10.71c.75-.37,6.36.62,6.36.62-.06,8.48,12.48,17.78,19.54,21.78-20.21-82.48-50.09-149.12-98.46-218.89-5.07-5-16.45-13.77-16.45-13.77a15.34,15.34,0,0,1-5.82-2c-3.57-1.94-14.87-9.6-14.87-9.6-2.9-1.73-4.35-2.58-7.29-4.26-2.61,6.38-9.38-.89-9.38-.89-2-2.54-3-3.82-5-6.35-1.92-1.16-2.88-1.73-4.82-2.88,2,3.59,2.91,5.4,4.82,9,0,0-10.68-6.17-7.43-1.73s.74,5.15.74,5.15c-1.94-1.8-2.9-2.7-4.83-4.51-1.56-.75-2.35-1.11-3.92-1.85,2.85,3.1,4.28,4.63,7.14,7.74,0,0-.34,1.68-4.21-.32s-23.25-22.92-21.88-23.56,14.33,9.58,14.33,9.58,13.71,8.27,11.07,2.73S1002.49,509,991,495.93s-27.8-19.22-27.8-19.22c-31-12.18-27.76,23.85-40.23,21-12.23-2.06-8.33,9.76-8.33,9.76s2.64,7,3.07,10.77,6.4,7.69,6.4,7.69l6.7,1.71c1.2.78,4.09-5.33,6.51-4.21s10.86,17.66,10.86,17.66,6.81,6.86,8.49,7.77,7.17-.36,6.4-7.36,4.11-9.25,4.11-9.25.4-5.4-1.37-5.77-8.55-8.3-9-10.66,3.26-1.29,3.26-7.41,8.62-9.63,10.92-7.29,1.18,5.1-.68,12.76,6.39,12.82,6.73,14.06,10,6,10.64,6.57,6.33.57,7,.22,9.26,5.48,9.26,5.48c1.51,2-7.79,1.22-7.79,1.22s-6.72-3.78-8.67-3.84,2.59,6.24,4.26,8.82-.25,3.72-.25,3.72l-3.6-2.43-6.31-2c1.48,4.74,2.2,7.12,3.63,11.92-2.39,1.9-3.61,2.88-6.09,4.88l-7.12-4c-4.19.75-6.34,1.14-10.64,2-1.92-1.78-2.87-2.68-4.78-4.47,0,0-6.51-1.19-8.2.29s-3.06-4.28-2.69-5.83,4,.07,5.47-.8-2.39-5.86-4.7-7.16-6.53.89-6.53.89-1.41-10.13-2.58-10.44-3.63,4.41-5.39,6.34,4.75,10.88,6.63,12.51-1.7,4.17-1.7,4.17c-3.58-.82-5.37-1.22-9-2,0,0-8.52,13.57-13,12.84s-7,6.48-8.22,9.1-2.83-.28-11.09,2-12,2.63-10.49,6,13,9.07,15.83,14.53-1.24,19.94-1.89,19.85a78.67,78.67,0,0,0-10.43.58c-2.74.48-10.06-7-18.23-6.29s-3.82,9-3.72,14.28-1.47,24-.4,31.27,9,3.36,9,3.36c2.55-3.32.27,5.07,5.17,7.21a9,9,0,0,0,8.81-.9s10.72.61,13.2.65,9.16-5.55,9.33-14,14.55-19.6,14.55-19.6,2,3.09-.39-3.87,5.35-7.37,6.43-5.43,10.07,6.43,12.44.17,10.88-6.13,10.86-3.63,10,20.63,13.81,19.14,19.29,18.24,19.29,18.24c.68,4.35,1,6.52,1.65,10.91a28.22,28.22,0,0,0,4.28.87c.91-.06,2.31-5.44,1.85-9a9.17,9.17,0,0,0-2.11-5.14c3.44.67,5.16,1,8.59,1.67,0,0,0-2.46-3.55-5.35S983.91,643.5,981,638s-12-13.95-15.15-17.75,3.05-7.33,3.9-3.79a7.86,7.86,0,0,0,5.45,5.93c1.85.35,10,10.7,16.06,13.92s11,10.31,11,10.31,7.15,14.8,8.29,18.58,11.26,5.18,11.26,5.18c0,1.21.07,1.8.12,3,0,0-4.56-.41-4.12,1.18s8.57,12.79,8.57,12.79.9,2.38,3.15-4.21S1027.1,671,1023.67,667s.27-6.79.69-5.41,3.1,3.7,4.22,1.35,1.87-5.65,3.65-4.74,6.8,3.54,6.8,3.54,7.24-5,10.52-.64-3.47,6-3.47,6l-7-1.23c0,1.66-.08,2.48-.14,4.15l5.36,4.85a23.8,23.8,0,0,0,8.87,16.67,1.6,1.6,0,0,0-.31-.1l-1.83-.31c-.93-.17-1.49.64-1.27,1.79a3,3,0,0,0,2,2.37c.74.14,1.12.19,1.85.32.92.16,1.48-.65,1.27-1.79a3.56,3.56,0,0,0-.69-1.47c4,3,8,3.92,8.58,2.34,1.37-3.39,9.87,1.63,10.62,2.49s8.28,3.33,9.2.32,8.34.78,8.34.78c.62,5.27.91,7.93,1.44,13.28-.6,8.48-1,12.78-1.9,21.51-16.2-3.46-24.44-5.19-41.15-8.52-6.4-4.47-9.61-6.72-16.06-11.25a20.65,20.65,0,0,0-9.57-2.27c-5.56,0-1,13.45-1,13.45s-4.23,7.66-6.93,5-14.62-4.24-14.65-8.47-6.48-11.23-6.48-11.23c-2.06-1.25-21.11-5.71-23.86-15,0-31.09-15.71-20.4-15.71-20.4s-23.44-1.78-27.66-3.08-21.8,8.83-26.34,10.39c-.61.2-8-2.91-11-4.46s-4.88-9.85-7.5-1.08-17,18.15-17,18.15c-.88,9.21-1.35,13.83-2.33,23.15,0,0-11.6,12.62-28.89,38.17s-11.14,38-8.7,42,3.3,22.12.82,26.29-7.48,13-6.19,16.1,3.38,10.59.66,17.43,5.49,11.37,7.31,11.84,13.19,19.3,13.19,19.3,1.41,5.39,2.1,9.83,26.58,41,34.76,32.11,22.89-5.52,28.11-4.07,15.51-11.2,32-14.22S952,928.83,952,928.83l11.7-3.45s3,2.42,5.93,5c0,0-5.16,6.63-2.84,7.84s4.91-1.64,4.91-1.64,3-1.58,3.46-.87c1.58,2.34.59,12.75-1.84,17.4s-3.68,17.19-4.47,21.52,11.7,16.55,10.68,18.95,2.17,10.69,3.55,8.08,4.59-5.4,4-.56a8,8,0,0,1-4,6.38c1,2.6.08,26,4.65,38.31-16.6,26.34-12.65,38.85-15.78,45.79s5.49,53.84,2.46,62.07,13.93,22.46,5.59,32.85S977,1207,984,1200.81s19.67-9.34,22-9,48.33-50.84,48.33-50.84,2.51-13.79,4.6-14.42,15.55-13.75,18.76-20.67-1.51-9.31.78-14.48,13.87-17.8,15.31-19.63-1.77,5.09,14.73-11.63,15.53-33,15.17-38.19-3.15-22,1.41-38.15,41.76-53.79,46.59-57.89,20.15-42.6,20.15-42.6c-.33-5.93-.54-8.92-1-14.88C1190.82,868.46,1176.06,874.39,1167,878Zm-43.74-214.16c-.94-4-1.68-17.28,7-13.06s11.47,9.48,12.06,12-10.69-4.64-8.14,1.27,9.75,11.46,12.37,14.74,1.89-2,6.78,4,8,7.74,7,9-6.13-4-5.85-1.38,2.92,3.75,6.33,9.59,8,11,6.14,13.9-4.08,3.63-8.14.18-6.48-6.56-9.6-7.34-8.42-5-7.26-8.44c.19-.56,1.73-11.21-5.67-17.73S1124.16,667.87,1123.22,663.86Zm-42.79,1.29c-3.22-4-10.38-7.36-14.73-5.89s-7.4,4.29-9.66,2.62-8.81-4-9.67-6.1c-1.82-4.38-6.4-6.6-5.21-10s.73-9.51,2.09-11.22,1.22-13.49,7.36-7.43,4.35,7.78,7.89,10.91,8,8.25,9.08,5.26,4-2.79,1.4-5.24-6.65-5.53-3.11-6.22,10.06-.18,10.06-.18c.67,5.09,1,7.65,1.55,12.84,0,0,18.5,13.41,22.44,20.19s.87,9.42-1.84,9.18S1083.66,669.16,1080.43,665.15Z" transform="translate(-20.4 -143.95)"/><path class="cls-6" d="M963.27,946.6a2.14,2.14,0,0,0-1.74,2.18c0,.3,0,.44,0,.73-.06,1.17.63,2.08,1.53,2a2.14,2.14,0,0,0,1.74-2.18c0-.28,0-.43,0-.72C964.86,947.48,964.18,946.57,963.27,946.6Z" transform="translate(-20.4 -143.95)"/><path class="cls-6" d="M961,955l-1.86.1a2.52,2.52,0,0,0-2.06,2.56c-.07,1.36.73,2.42,1.79,2.37.75,0,1.12,0,1.87-.1a2.53,2.53,0,0,0,2-2.55C962.8,956,962,954.92,961,955Z" transform="translate(-20.4 -143.95)"/><path class="cls-6" d="M1161.22,1022.28c.48,3.22-19,24.55-27.29,28.34s-2.93,16.71-10.54,23.75-7.24,9.53-14.56,26.55,10,3.21,13.3,1.62,37.93-62.86,37.93-62.86C1173,1010.77,1160.74,1019.06,1161.22,1022.28Z" transform="translate(-20.4 -143.95)"/><path class="cls-6" d="M1133,1029l.47-1.9c.25-1-.23-1.73-1.06-1.56a3,3,0,0,0-2,2.19c-.19.77-.28,1.15-.46,1.92-.26,1,.21,1.72,1,1.54A3.06,3.06,0,0,0,1133,1029Z" transform="translate(-20.4 -143.95)"/><path class="cls-6" d="M1134.71,1034.5l3-.68a3.7,3.7,0,0,0,2.35-2.57c.32-1.2-.23-2-1.22-1.79l-3,.67a3.65,3.65,0,0,0-2.34,2.58C1133.18,1033.92,1133.73,1034.72,1134.71,1034.5Z" transform="translate(-20.4 -143.95)"/><rect class="cls-7" x="1107.27" y="343.82" width="29.59" height="0.7" transform="translate(-63.07 55.73) rotate(-9.98)"/><path class="cls-8" d="M1107.09,343.47c1,.51,1.21,2.27.39,3.92s-2.32,2.57-3.35,2.06-1.21-2.26-.39-3.91S1106.05,343,1107.09,343.47Z" transform="translate(-20.4 -143.95)"/><path class="cls-8" d="M1103.15,342c1,.51,1.21,2.27.4,3.92s-2.32,2.57-3.35,2.06-1.21-2.26-.4-3.91S1102.12,341.49,1103.15,342Z" transform="translate(-20.4 -143.95)"/><path class="cls-8" d="M1103.81,327.56c.83.8.47,2.53-.8,3.86s-3,1.76-3.82,1-.47-2.53.8-3.86S1103,326.76,1103.81,327.56Z" transform="translate(-20.4 -143.95)"/><rect class="cls-7" x="1120.89" y="319.38" width="0.71" height="29.59" transform="translate(702.37 1290.27) rotate(-86.68)"/><path class="cls-8" d="M1106.83,330.05c.89.74.66,2.48-.52,3.9s-2.85,2-3.74,1.24-.65-2.48.52-3.9S1105.94,329.32,1106.83,330.05Z" transform="translate(-20.4 -143.95)"/><rect class="cls-9" x="1115.25" y="122.62" width="30.35" height="125.49" transform="translate(442.61 972.43) rotate(-63.68)"/><rect class="cls-10" x="1080.3" y="152.93" width="22.83" height="26.58" transform="translate(438.24 927.09) rotate(-63.68)"/><path class="cls-8" d="M1109.4,161.65l-10.59,21.41L1074,170.8l10.6-21.41Zm-11.07,20,9.65-19.52-22.88-11.31-9.65,19.51Z" transform="translate(-20.4 -143.95)"/><line class="cls-10" x1="1086.6" y1="21.35" x2="1062.78" y2="9.56"/><rect class="cls-8" x="1094.55" y="146.11" width="1.07" height="26.58" transform="translate(446.22 926.31) rotate(-63.68)"/><line class="cls-10" x1="1084.92" y1="24.76" x2="1061.09" y2="12.97"/><rect class="cls-8" x="1092.87" y="149.52" width="1.07" height="26.58" transform="translate(442.24 926.7) rotate(-63.68)"/><line class="cls-10" x1="1083.23" y1="28.17" x2="1059.4" y2="16.38"/><rect class="cls-8" x="1091.18" y="152.93" width="1.07" height="26.58" transform="translate(438.24 927.09) rotate(-63.68)"/><line class="cls-10" x1="1081.54" y1="31.58" x2="1057.72" y2="19.79"/><rect class="cls-8" x="1089.49" y="156.34" width="1.07" height="26.58" transform="translate(434.25 927.48) rotate(-63.68)"/><line class="cls-10" x1="1079.85" y1="34.99" x2="1056.03" y2="23.2"/><rect class="cls-8" x="1087.81" y="159.75" width="1.07" height="26.58" transform="translate(430.24 927.85) rotate(-63.68)"/><line class="cls-10" x1="1058.31" y1="28.58" x2="1068.44" y2="8.12"/><rect class="cls-8" x="1072.36" y="161.86" width="22.83" height="0.87" transform="translate(437.12 917.63) rotate(-63.66)"/><line class="cls-10" x1="1062.28" y1="30.54" x2="1072.41" y2="10.08"/><rect class="cls-8" x="1076.33" y="163.83" width="22.83" height="0.87" transform="translate(438.03 922.6) rotate(-63.69)"/><line class="cls-10" x1="1066.25" y1="32.51" x2="1076.38" y2="12.04"/><rect class="cls-8" x="1080.3" y="165.79" width="22.83" height="0.87" transform="translate(438.32 927.15) rotate(-63.68)"/><line class="cls-10" x1="1070.23" y1="34.47" x2="1080.35" y2="14.01"/><rect class="cls-8" x="1084.27" y="167.75" width="22.83" height="0.87" transform="translate(438.93 931.91) rotate(-63.69)"/><line class="cls-10" x1="1074.2" y1="36.43" x2="1084.32" y2="15.97"/><rect class="cls-8" x="1088.24" y="169.72" width="22.83" height="0.87" transform="translate(439.38 936.56) rotate(-63.69)"/><rect class="cls-10" x="1106.11" y="165.7" width="22.83" height="26.58" transform="translate(441.15 957.32) rotate(-63.68)"/><path class="cls-8" d="M1135.21,174.41l-10.59,21.41-24.78-12.25,10.59-21.41Zm-11.07,20,9.65-19.52-22.88-11.31-9.65,19.51Z" transform="translate(-20.4 -143.95)"/><line class="cls-10" x1="1112.41" y1="34.12" x2="1088.59" y2="22.33"/><rect class="cls-8" x="1120.36" y="158.88" width="1.07" height="26.58" transform="translate(449.14 956.55) rotate(-63.68)"/><line class="cls-10" x1="1110.72" y1="37.53" x2="1086.9" y2="25.74"/><rect class="cls-8" x="1118.68" y="162.29" width="1.07" height="26.58" transform="translate(445.16 956.94) rotate(-63.68)"/><line class="cls-10" x1="1109.04" y1="40.94" x2="1085.21" y2="29.15"/><rect class="cls-8" x="1116.99" y="165.7" width="1.07" height="26.58" transform="translate(441.17 957.33) rotate(-63.68)"/><line class="cls-10" x1="1107.35" y1="44.35" x2="1083.53" y2="32.56"/><rect class="cls-8" x="1115.3" y="169.11" width="1.07" height="26.58" transform="translate(437.17 957.72) rotate(-63.68)"/><line class="cls-10" x1="1105.66" y1="47.76" x2="1081.84" y2="35.97"/><rect class="cls-8" x="1113.62" y="172.52" width="1.07" height="26.58" transform="translate(433.16 958.09) rotate(-63.68)"/><line class="cls-10" x1="1084.12" y1="41.34" x2="1094.24" y2="20.88"/><rect class="cls-8" x="1098.17" y="174.63" width="22.83" height="0.87" transform="translate(440.19 947.97) rotate(-63.67)"/><line class="cls-10" x1="1088.09" y1="43.31" x2="1098.22" y2="22.85"/><rect class="cls-8" x="1102.14" y="176.59" width="22.83" height="0.87" transform="translate(440.5 952.52) rotate(-63.66)"/><line class="cls-10" x1="1092.06" y1="45.27" x2="1102.19" y2="24.81"/><rect class="cls-8" x="1106.11" y="178.56" width="22.83" height="0.87" transform="translate(441.01 957.22) rotate(-63.67)"/><line class="cls-10" x1="1096.03" y1="47.24" x2="1106.16" y2="26.78"/><rect class="cls-8" x="1110.08" y="180.52" width="22.83" height="0.87" transform="translate(441.54 961.93) rotate(-63.67)"/><line class="cls-10" x1="1100.01" y1="49.2" x2="1110.13" y2="28.74"/><rect class="cls-8" x="1114.05" y="182.49" width="22.83" height="0.87" transform="translate(441.83 966.47) rotate(-63.66)"/><rect class="cls-10" x="1131.9" y="178.46" width="22.83" height="26.58" transform="translate(444.08 987.54) rotate(-63.68)"/><path class="cls-8" d="M1161,187.17l-10.59,21.41-24.77-12.25,10.59-21.41Zm-11.07,20,9.66-19.51-22.88-11.32-9.65,19.52Z" transform="translate(-20.4 -143.95)"/><line class="cls-10" x1="1138.2" y1="46.87" x2="1114.38" y2="35.09"/><rect class="cls-8" x="1146.15" y="171.64" width="1.07" height="26.58" transform="translate(452.07 986.77) rotate(-63.68)"/><line class="cls-10" x1="1136.51" y1="50.28" x2="1112.69" y2="38.5"/><rect class="cls-8" x="1144.46" y="175.05" width="1.07" height="26.58" transform="translate(448.08 987.16) rotate(-63.68)"/><line class="cls-10" x1="1134.82" y1="53.69" x2="1111" y2="41.91"/><rect class="cls-8" x="1142.78" y="178.46" width="1.07" height="26.58" transform="translate(444.06 987.53) rotate(-63.68)"/><line class="cls-10" x1="1133.14" y1="57.1" x2="1109.31" y2="45.32"/><rect class="cls-8" x="1141.09" y="181.87" width="1.07" height="26.58" transform="translate(440.07 987.92) rotate(-63.68)"/><line class="cls-10" x1="1131.45" y1="60.51" x2="1107.63" y2="48.73"/><rect class="cls-8" x="1139.4" y="185.28" width="1.07" height="26.58" transform="translate(436.08 988.31) rotate(-63.68)"/><line class="cls-10" x1="1109.91" y1="54.1" x2="1120.03" y2="33.64"/><rect class="cls-8" x="1123.96" y="187.39" width="22.83" height="0.87" transform="translate(443.33 978.34) rotate(-63.69)"/><line class="cls-10" x1="1113.88" y1="56.07" x2="1124" y2="35.61"/><rect class="cls-8" x="1127.93" y="189.35" width="22.83" height="0.87" transform="translate(443.55 982.84) rotate(-63.67)"/><line class="cls-10" x1="1117.85" y1="58.03" x2="1127.97" y2="37.57"/><rect class="cls-8" x="1131.9" y="191.32" width="22.83" height="0.87" transform="translate(443.84 987.37) rotate(-63.66)"/><line class="cls-10" x1="1121.82" y1="60" x2="1131.94" y2="39.53"/><rect class="cls-8" x="1135.87" y="193.28" width="22.83" height="0.87" transform="translate(444.77 992.37) rotate(-63.69)"/><line class="cls-10" x1="1125.79" y1="61.96" x2="1135.92" y2="41.5"/><rect class="cls-8" x="1139.84" y="195.25" width="22.83" height="0.87" transform="translate(444.74 996.68) rotate(-63.66)"/><rect class="cls-10" x="1157.71" y="191.23" width="22.83" height="26.58" transform="translate(446.99 1017.78) rotate(-63.68)"/><path class="cls-8" d="M1186.81,199.94l-10.59,21.41-24.78-12.25L1162,187.69Zm-11.07,20,9.65-19.51-22.88-11.32-9.65,19.52Z" transform="translate(-20.4 -143.95)"/><line class="cls-10" x1="1164.01" y1="59.64" x2="1140.19" y2="47.86"/><rect class="cls-8" x="1171.96" y="184.41" width="1.07" height="26.58" transform="translate(454.98 1017.01) rotate(-63.68)"/><line class="cls-10" x1="1162.32" y1="63.05" x2="1138.5" y2="51.27"/><rect class="cls-8" x="1170.28" y="187.82" width="1.07" height="26.58" transform="translate(451 1017.41) rotate(-63.68)"/><line class="cls-10" x1="1160.64" y1="66.46" x2="1136.81" y2="54.68"/><rect class="cls-8" x="1168.59" y="191.23" width="1.07" height="26.58" transform="translate(446.99 1017.78) rotate(-63.68)"/><line class="cls-10" x1="1158.95" y1="69.87" x2="1135.13" y2="58.09"/><rect class="cls-8" x="1166.9" y="194.64" width="1.07" height="26.58" transform="translate(443 1018.17) rotate(-63.68)"/><line class="cls-10" x1="1157.26" y1="73.28" x2="1133.44" y2="61.5"/><rect class="cls-8" x="1165.21" y="198.05" width="1.07" height="26.58" transform="translate(439 1018.55) rotate(-63.68)"/><line class="cls-10" x1="1135.72" y1="66.87" x2="1145.84" y2="46.41"/><rect class="cls-8" x="1149.77" y="200.16" width="22.83" height="0.87" transform="translate(446.35 1008.66) rotate(-63.69)"/><line class="cls-10" x1="1139.69" y1="68.84" x2="1149.82" y2="48.38"/><rect class="cls-8" x="1153.74" y="202.12" width="22.83" height="0.87" transform="translate(446.8 1013.32) rotate(-63.69)"/><line class="cls-10" x1="1143.66" y1="70.8" x2="1153.79" y2="50.34"/><rect class="cls-8" x="1157.71" y="204.09" width="22.83" height="0.87" transform="translate(447.27 1017.98) rotate(-63.69)"/><line class="cls-10" x1="1147.63" y1="72.77" x2="1157.76" y2="52.3"/><rect class="cls-8" x="1161.68" y="206.05" width="22.83" height="0.87" transform="translate(447.7 1022.62) rotate(-63.69)"/><line class="cls-10" x1="1151.61" y1="74.73" x2="1161.73" y2="54.27"/><rect class="cls-8" x="1165.65" y="208.02" width="22.83" height="0.87" transform="translate(447.99 1027.16) rotate(-63.68)"/><rect class="cls-11" x="1115.25" y="184.8" width="30.35" height="1.13" transform="translate(442.61 972.43) rotate(-63.68)"/><rect class="cls-11" x="1089.45" y="172.04" width="30.35" height="1.13" transform="translate(439.69 942.2) rotate(-63.68)"/><rect class="cls-11" x="1062.61" y="158.77" width="30.35" height="1.13" transform="translate(436.65 910.76) rotate(-63.68)"/><rect class="cls-11" x="1141.05" y="197.57" width="30.35" height="1.13" transform="translate(445.53 1002.66) rotate(-63.68)"/><rect class="cls-11" x="1168.26" y="211.03" width="30.35" height="1.13" transform="translate(448.61 1034.55) rotate(-63.68)"/><path class="cls-8" d="M1215.71,239.39a39.43,39.43,0,0,1-2.41,4.17l7.24,3.58L1235,218l-19.65-9.72C1220.61,216.48,1221.11,228.48,1215.71,239.39Z" transform="translate(-20.4 -143.95)"/><path class="cls-12" d="M1186.5,230.3l26.8,13.26a39.43,39.43,0,0,0,2.41-4.17c5.4-10.91,4.9-22.91-.37-31.16l-14.4-7.13Z" transform="translate(-20.4 -143.95)"/><path class="cls-7" d="M1181.08,229.69l-3.22,6.51a34.66,34.66,0,0,1,5.63,2.19c17.1,8.45,21.56,21.77,19.1,34.14C1200,285.68,1195,294.06,1189,299a25.73,25.73,0,0,1-5.6,3.51l9.09,4.5,1.75.87a1.85,1.85,0,0,0,2.48-.84l5.33-10.77a30.85,30.85,0,0,0,18.2-28.59,31.15,31.15,0,0,0-.82-6.55l4.94-10a1.89,1.89,0,0,0-.85-2.54l-3-1.46-7.24-3.58-26.8-13.26-2.93-1.45A1.85,1.85,0,0,0,1181.08,229.69Z" transform="translate(-20.4 -143.95)"/><path class="cls-8" d="M1186.28,300.94l-.1.06Z" transform="translate(-20.4 -143.95)"/><path class="cls-8" d="M1184.86,301.77l-.12.06Z" transform="translate(-20.4 -143.95)"/><path class="cls-8" d="M1187.65,300l-.05.05Z" transform="translate(-20.4 -143.95)"/><path class="cls-8" d="M1169.94,334.06a52.65,52.65,0,0,1-16.79,20l2.45,1.21a11.63,11.63,0,0,0,15.58-5.27l21.29-43-9.09-4.5-10-4.94C1177.31,307.33,1176.38,321.05,1169.94,334.06Z" transform="translate(-20.4 -143.95)"/><path class="cls-12" d="M1173.38,297.57l-16.81-8.32-21.25,43a11.68,11.68,0,0,0,5.29,15.66l12.54,6.21a52.65,52.65,0,0,0,16.79-20C1176.38,321.05,1177.31,307.33,1173.38,297.57Z" transform="translate(-20.4 -143.95)"/><path class="cls-12" d="M1186.18,301c-.44.27-.88.53-1.32.77C1185.3,301.53,1185.74,301.27,1186.18,301Z" transform="translate(-20.4 -143.95)"/><path class="cls-12" d="M1187.6,300.06c-.44.31-.88.6-1.32.88C1186.72,300.66,1187.16,300.37,1187.6,300.06Z" transform="translate(-20.4 -143.95)"/><path class="cls-12" d="M1184.74,301.83c-.45.24-.9.47-1.36.68C1183.84,302.3,1184.29,302.07,1184.74,301.83Z" transform="translate(-20.4 -143.95)"/><path class="cls-12" d="M1177.86,236.2l-2.1,4.23a31.89,31.89,0,0,0-4.77,2.89,30.87,30.87,0,0,0-12.5,25.07,31.4,31.4,0,0,0,.6,5.74l-5.67,11.46a1.88,1.88,0,0,0,.86,2.52l2.29,1.14,16.81,8.32,10,4.94c.46-.21.91-.44,1.36-.68l.12-.06c.44-.24.88-.5,1.32-.77l.1-.06c.44-.28.88-.57,1.32-.88l.05-.05c.44-.31.87-.64,1.29-1h0l0,0h0c6-4.94,11-13.31,13.61-26.47,2.46-12.37-2-25.69-19.1-34.14A34.66,34.66,0,0,0,1177.86,236.2Z" transform="translate(-20.4 -143.95)"/><rect class="cls-13" x="1201.24" y="217.38" width="1.78" height="48.3" transform="translate(432.35 1068.09) rotate(-63.69)"/><path class="cls-8" d="M1207.88,292.83l5,2.48a3.53,3.53,0,0,0,4.72-1.59l9.3-18.8a3.52,3.52,0,0,0-1.6-4.72l-5.09-2.52a30.88,30.88,0,0,1-12.35,25.15Z" transform="translate(-20.4 -143.95)"/><polygon class="cls-13" points="1181.44 44.62 1181.28 46.83 1222.39 67.17 1224.06 65.71 1181.44 44.62"/><polygon class="cls-7" points="1180.54 57.16 1214.59 74 1222.39 67.17 1181.28 46.83 1180.54 57.16"/><rect class="cls-13" x="1174.68" y="271.07" width="1.78" height="48.3" transform="translate(369.43 1074.16) rotate(-63.69)"/><path class="cls-9" d="M1173,272.53a93.64,93.64,0,0,1,9.44-19.15,75.92,75.92,0,0,1,5.61-7.62c.73-.87,1.45-1.67,2.12-2.39a24.89,24.89,0,0,0-15.45,4.84,24.74,24.74,0,0,0-4.72,35.11c.11-.55.23-1.12.36-1.7A73.84,73.84,0,0,1,1173,272.53Z" transform="translate(-20.4 -143.95)"/><path class="cls-9" d="M1204.67,264.38a89.93,89.93,0,0,1-4.21,9.83,92.26,92.26,0,0,1-5.29,9.3,78.5,78.5,0,0,1-5.62,7.61c-.47.56-.94,1.09-1.39,1.59a24.81,24.81,0,0,0,16-4.9,24.71,24.71,0,0,0,3.78-36c-.18,1.07-.39,2.25-.67,3.5A76.22,76.22,0,0,1,1204.67,264.38Z" transform="translate(-20.4 -143.95)"/><path class="cls-14" d="M1170,283.32c-.38,2-.62,3.77-.75,5.1a26.54,26.54,0,0,0-.14,2.72l13.64,6.75a25.53,25.53,0,0,0,2.07-1.77c.93-.85,2.08-2,3.35-3.41a24.72,24.72,0,0,1-18.17-9.39Z" transform="translate(-20.4 -143.95)"/><path class="cls-14" d="M1192.78,240.76c-.75.69-1.64,1.57-2.62,2.61A24.7,24.7,0,0,1,1208,251.8c.2-1.26.34-2.38.43-3.3a26.64,26.64,0,0,0,.14-2.72L1194.85,239S1194,239.61,1192.78,240.76Z" transform="translate(-20.4 -143.95)"/><path class="cls-15" d="M1190.16,243.37c-.67.72-1.39,1.52-2.12,2.39a75.92,75.92,0,0,0-5.61,7.62,93.64,93.64,0,0,0-9.44,19.15,73.84,73.84,0,0,0-2.64,9.09c-.13.58-.25,1.15-.36,1.7a24.72,24.72,0,0,0,18.17,9.39c.45-.5.92-1,1.39-1.59a78.5,78.5,0,0,0,5.62-7.61,92.26,92.26,0,0,0,5.29-9.3,89.93,89.93,0,0,0,4.21-9.83,76.22,76.22,0,0,0,2.65-9.08c.28-1.25.49-2.43.67-3.5a24.7,24.7,0,0,0-17.83-8.43Z" transform="translate(-20.4 -143.95)"/><path class="cls-14" d="M1185.49,275.16a8.11,8.11,0,1,1,10.86-3.67A8.1,8.1,0,0,1,1185.49,275.16Z" transform="translate(-20.4 -143.95)"/><path class="cls-6" d="M1187.2,271.71a4.26,4.26,0,1,1,5.7-1.92A4.25,4.25,0,0,1,1187.2,271.71Z" transform="translate(-20.4 -143.95)"/><path class="cls-16" d="M1187.61,270.89a3.33,3.33,0,1,1,4.47-1.51A3.34,3.34,0,0,1,1187.61,270.89Z" transform="translate(-20.4 -143.95)"/><path class="cls-15" d="M1227.26,278.53,1220.62,292a1.56,1.56,0,0,1-2.08.7l-.32-.16,8.1-16.37.12.06A1.74,1.74,0,0,1,1227.26,278.53Z" transform="translate(-20.4 -143.95)"/><rect class="cls-17" x="1202.62" y="205.92" width="15.46" height="37.98" transform="translate(451.67 1066.1) rotate(-63.68)"/><rect class="cls-11" x="1207.51" y="209.62" width="1.95" height="38.04" transform="translate(447.38 1066.55) rotate(-63.68)"/><rect class="cls-11" x="1211.24" y="202.08" width="1.95" height="38.04" transform="translate(456.03 1065.56) rotate(-63.67)"/><path class="cls-14" d="M1152.24,358.6h0a6.53,6.53,0,0,1-8.75,3l-1.63-.8a6.54,6.54,0,0,1-3-8.76h0Z" transform="translate(-20.4 -143.95)"/><path class="cls-6" d="M1190.13,308.62,1168.68,352l-2-1,21.45-43.37Zm-3.9-1.93-21.45,43.37-2-1,21.45-43.37Zm-3.9-1.93-21.45,43.37-2-1,21.45-43.36Zm-3.9-1.93L1157,346.2l-2-1,21.45-43.36Zm-3.9-1.93-21.45,43.37-1.95-1,21.45-43.36Zm-3.9-1.93-21.45,43.37-2-1L1168.68,298Zm-3.9-1.93-21.45,43.37-2-1,21.45-43.36Zm-3.9-1.93-21.45,43.37-2-1,21.45-43.37Zm-3.9-1.93-21.45,43.37-2-1L1157,292.22Z" transform="translate(-20.4 -143.95)"/><path class="cls-6" d="M1223.59,240.09l-3.4,6.87-2-1,3.4-6.88Zm-3.9-1.93-3.4,6.87-2-1,3.4-6.88Zm-3.9-1.93-3.4,6.88-2-1,3.4-6.87Zm-3.9-1.93-3.4,6.88-2-1,3.4-6.87Zm-3.9-1.93-3.4,6.88-1.95-1,3.4-6.87Zm-3.9-1.93-3.4,6.88-2-1,3.4-6.87Zm-3.9-1.93-3.4,6.88-2-1,3.4-6.87Zm-3.9-1.93-3.4,6.88-2-1,3.4-6.87Zm-3.9-1.93-3.4,6.88-2-1,3.4-6.87Z" transform="translate(-20.4 -143.95)"/><path class="cls-8" d="M1155.74,357.85h0a2.21,2.21,0,0,1-3,1L1138.82,352a2.24,2.24,0,0,1-1-3h0a2.24,2.24,0,0,1,3-1l13.93,6.9A2.22,2.22,0,0,1,1155.74,357.85Z" transform="translate(-20.4 -143.95)"/><path class="cls-7" d="M1160.79,209.15c.68.93,2.44.81,3.93-.27s2.15-2.71,1.48-3.65-2.44-.81-3.93.27S1160.12,208.21,1160.79,209.15Z" transform="translate(-20.4 -143.95)"/><rect class="cls-7" x="1150.16" y="226.97" width="29.59" height="0.71" transform="translate(825.92 1226.74) rotate(-85.47)"/><path class="cls-7" d="M1162.85,212.48c.6,1,2.36,1,3.93,0s2.35-2.55,1.74-3.53-2.37-1-3.94,0S1162.24,211.5,1162.85,212.48Z" transform="translate(-20.4 -143.95)"/><path class="cls-8" d="M1171,243.32l-5.1-2.53a3.47,3.47,0,0,0-4.63,1.56l-9.36,18.93a3.44,3.44,0,0,0,1.56,4.62l5,2.49a30.87,30.87,0,0,1,12.5-25.07Z" transform="translate(-20.4 -143.95)"/><path class="cls-15" d="M1160.63,243.63l-8.1,16.37h0a1.89,1.89,0,0,1-.85-2.53l6.42-13a1.89,1.89,0,0,1,2.53-.86Z" transform="translate(-20.4 -143.95)"/><rect class="cls-7" x="1159.95" y="229.16" width="29.59" height="0.71" transform="translate(575.73 1133.37) rotate(-72.15)"/><path class="cls-7" d="M1176.1,214.58c.37,1.09,2.08,1.51,3.83.92s2.87-1.94,2.5-3-2.08-1.51-3.82-.93S1175.74,213.48,1176.1,214.58Z" transform="translate(-20.4 -143.95)"/><rect class="cls-9" x="1275.11" y="201.71" width="30.35" height="125.49" transform="translate(460.69 1159.73) rotate(-63.68)"/><rect class="cls-10" x="1240.16" y="232.02" width="22.83" height="26.58" transform="translate(456.33 1114.39) rotate(-63.68)"/><path class="cls-8" d="M1269.26,240.73l-10.59,21.41-24.77-12.25,10.59-21.41Zm-11.07,20,9.65-19.52L1245,229.9l-9.66,19.51Z" transform="translate(-20.4 -143.95)"/><line class="cls-10" x1="1246.46" y1="100.44" x2="1222.64" y2="88.65"/><rect class="cls-8" x="1254.42" y="225.2" width="1.07" height="26.58" transform="translate(464.31 1113.61) rotate(-63.68)"/><line class="cls-10" x1="1244.78" y1="103.85" x2="1220.95" y2="92.06"/><rect class="cls-8" x="1252.73" y="228.61" width="1.07" height="26.58" transform="translate(460.33 1114.01) rotate(-63.68)"/><line class="cls-10" x1="1243.09" y1="107.26" x2="1219.27" y2="95.47"/><rect class="cls-8" x="1251.04" y="232.02" width="1.07" height="26.58" transform="translate(456.31 1114.38) rotate(-63.68)"/><line class="cls-10" x1="1241.4" y1="110.67" x2="1217.58" y2="98.88"/><rect class="cls-8" x="1249.36" y="235.43" width="1.07" height="26.58" transform="translate(452.32 1114.77) rotate(-63.68)"/><line class="cls-10" x1="1239.72" y1="114.08" x2="1215.89" y2="102.29"/><rect class="cls-8" x="1247.67" y="238.84" width="1.07" height="26.58" transform="translate(448.33 1115.16) rotate(-63.68)"/><line class="cls-10" x1="1218.18" y1="107.66" x2="1228.3" y2="87.2"/><rect class="cls-8" x="1232.22" y="240.95" width="22.83" height="0.87" transform="translate(455.69 1105.29) rotate(-63.69)"/><line class="cls-10" x1="1222.15" y1="109.63" x2="1232.27" y2="89.17"/><rect class="cls-8" x="1236.19" y="242.91" width="22.83" height="0.87" transform="translate(456.16 1109.96) rotate(-63.69)"/><line class="cls-10" x1="1226.12" y1="111.59" x2="1236.24" y2="91.13"/><rect class="cls-8" x="1240.16" y="244.88" width="22.83" height="0.87" transform="translate(456.59 1114.59) rotate(-63.69)"/><line class="cls-10" x1="1230.09" y1="113.56" x2="1240.21" y2="93.1"/><rect class="cls-8" x="1244.13" y="246.84" width="22.83" height="0.87" transform="translate(457.04 1119.25) rotate(-63.69)"/><line class="cls-10" x1="1234.06" y1="115.52" x2="1244.18" y2="95.06"/><rect class="cls-8" x="1248.1" y="248.81" width="22.83" height="0.87" transform="translate(457.52 1123.92) rotate(-63.69)"/><rect class="cls-10" x="1265.97" y="244.79" width="22.83" height="26.58" transform="translate(459.24 1144.63) rotate(-63.68)"/><path class="cls-8" d="M1295.07,253.5l-10.59,21.41-24.78-12.25,10.6-21.41Zm-11.07,20,9.65-19.51-22.87-11.32-9.66,19.52Z" transform="translate(-20.4 -143.95)"/><line class="cls-10" x1="1272.27" y1="113.2" x2="1248.45" y2="101.42"/><rect class="cls-8" x="1280.23" y="237.97" width="1.07" height="26.58" transform="translate(467.23 1143.85) rotate(-63.68)"/><line class="cls-10" x1="1270.59" y1="116.61" x2="1246.76" y2="104.83"/><rect class="cls-8" x="1278.54" y="241.38" width="1.07" height="26.58" transform="translate(463.23 1144.24) rotate(-63.68)"/><line class="cls-10" x1="1268.9" y1="120.02" x2="1245.08" y2="108.24"/><rect class="cls-8" x="1276.85" y="244.79" width="1.07" height="26.58" transform="translate(459.26 1144.64) rotate(-63.68)"/><line class="cls-10" x1="1267.21" y1="123.43" x2="1243.39" y2="111.65"/><rect class="cls-8" x="1275.16" y="248.2" width="1.07" height="26.58" transform="translate(455.26 1145.02) rotate(-63.68)"/><line class="cls-10" x1="1265.52" y1="126.84" x2="1241.7" y2="115.06"/><rect class="cls-8" x="1273.48" y="251.61" width="1.07" height="26.58" transform="translate(451.26 1145.41) rotate(-63.68)"/><line class="cls-10" x1="1243.98" y1="120.43" x2="1254.11" y2="99.97"/><rect class="cls-8" x="1258.03" y="253.72" width="22.83" height="0.87" transform="translate(458.27 1135.27) rotate(-63.67)"/><line class="cls-10" x1="1247.96" y1="122.4" x2="1258.08" y2="101.94"/><rect class="cls-8" x="1262" y="255.68" width="22.83" height="0.87" transform="translate(458.52 1139.77) rotate(-63.66)"/><line class="cls-10" x1="1251.93" y1="124.36" x2="1262.05" y2="103.9"/><rect class="cls-8" x="1265.97" y="257.65" width="22.83" height="0.87" transform="translate(459 1144.44) rotate(-63.66)"/><line class="cls-10" x1="1255.9" y1="126.33" x2="1266.02" y2="105.86"/><rect class="cls-8" x="1269.94" y="259.61" width="22.83" height="0.87" transform="translate(459.43 1149.08) rotate(-63.66)"/><line class="cls-10" x1="1259.87" y1="128.29" x2="1269.99" y2="107.83"/><rect class="cls-8" x="1273.91" y="261.57" width="22.83" height="0.87" transform="translate(460.42 1154.15) rotate(-63.69)"/><rect class="cls-10" x="1291.76" y="257.55" width="22.83" height="26.58" transform="translate(462.17 1174.85) rotate(-63.68)"/><path class="cls-8" d="M1320.86,266.26l-10.6,21.41-24.77-12.26L1296.08,254Zm-11.08,20,9.66-19.51-22.88-11.32-9.65,19.51Z" transform="translate(-20.4 -143.95)"/><line class="cls-10" x1="1298.06" y1="125.96" x2="1274.24" y2="114.18"/><rect class="cls-8" x="1306.01" y="250.73" width="1.07" height="26.58" transform="translate(470.13 1174.06) rotate(-63.68)"/><line class="cls-10" x1="1296.37" y1="129.37" x2="1272.55" y2="117.59"/><rect class="cls-8" x="1304.33" y="254.14" width="1.07" height="26.58" transform="translate(466.14 1174.45) rotate(-63.68)"/><line class="cls-10" x1="1294.69" y1="132.78" x2="1270.86" y2="121"/><rect class="cls-8" x="1302.64" y="257.55" width="1.07" height="26.58" transform="translate(462.16 1174.84) rotate(-63.68)"/><line class="cls-10" x1="1293" y1="136.19" x2="1269.18" y2="124.41"/><rect class="cls-8" x="1300.95" y="260.96" width="1.07" height="26.58" transform="translate(458.17 1175.23) rotate(-63.68)"/><line class="cls-10" x1="1291.31" y1="139.6" x2="1267.49" y2="127.82"/><rect class="cls-8" x="1299.26" y="264.37" width="1.07" height="26.58" transform="translate(454.18 1175.63) rotate(-63.68)"/><line class="cls-10" x1="1269.77" y1="133.19" x2="1279.89" y2="112.73"/><rect class="cls-8" x="1283.82" y="266.48" width="22.83" height="0.87" transform="translate(461.54 1165.76) rotate(-63.69)"/><line class="cls-10" x1="1273.74" y1="135.15" x2="1283.87" y2="114.69"/><rect class="cls-8" x="1287.79" y="268.44" width="22.83" height="0.87" transform="translate(461.81 1170.27) rotate(-63.68)"/><line class="cls-10" x1="1277.71" y1="137.12" x2="1287.84" y2="116.66"/><rect class="cls-8" x="1291.76" y="270.4" width="22.83" height="0.87" transform="translate(462.44 1175.06) rotate(-63.69)"/><line class="cls-10" x1="1281.68" y1="139.08" x2="1291.81" y2="118.62"/><rect class="cls-8" x="1295.73" y="272.37" width="22.83" height="0.87" transform="translate(462.91 1179.73) rotate(-63.69)"/><line class="cls-10" x1="1285.65" y1="141.05" x2="1295.78" y2="120.59"/><rect class="cls-8" x="1299.7" y="274.33" width="22.83" height="0.87" transform="translate(463.25 1184.3) rotate(-63.69)"/><rect class="cls-10" x="1317.57" y="270.32" width="22.83" height="26.58" transform="translate(465.07 1205.08) rotate(-63.68)"/><path class="cls-8" d="M1346.67,279l-10.59,21.41-24.78-12.26,10.6-21.41Zm-11.07,20,9.65-19.51-22.87-11.32-9.66,19.51Z" transform="translate(-20.4 -143.95)"/><line class="cls-10" x1="1323.87" y1="138.73" x2="1300.05" y2="126.95"/><rect class="cls-8" x="1331.83" y="263.5" width="1.07" height="26.58" transform="translate(473.08 1204.32) rotate(-63.68)"/><line class="cls-10" x1="1322.19" y1="142.14" x2="1298.36" y2="130.36"/><rect class="cls-8" x="1330.14" y="266.91" width="1.07" height="26.58" transform="translate(469.09 1204.71) rotate(-63.68)"/><line class="cls-10" x1="1320.5" y1="145.55" x2="1296.67" y2="133.77"/><rect class="cls-8" x="1328.45" y="270.32" width="1.07" height="26.58" transform="translate(465.1 1205.1) rotate(-63.68)"/><line class="cls-10" x1="1318.81" y1="148.96" x2="1294.99" y2="137.18"/><rect class="cls-8" x="1326.76" y="273.73" width="1.07" height="26.58" transform="translate(461.07 1205.46) rotate(-63.68)"/><line class="cls-10" x1="1317.12" y1="152.37" x2="1293.3" y2="140.59"/><rect class="cls-8" x="1325.08" y="277.14" width="1.07" height="26.58" transform="translate(457.08 1205.85) rotate(-63.68)"/><line class="cls-10" x1="1295.58" y1="145.96" x2="1305.71" y2="125.5"/><rect class="cls-8" x="1309.63" y="279.25" width="22.83" height="0.87" transform="translate(464.11 1195.72) rotate(-63.67)"/><line class="cls-10" x1="1299.55" y1="147.92" x2="1309.68" y2="127.46"/><rect class="cls-8" x="1313.6" y="281.21" width="22.83" height="0.87" transform="translate(464.71 1200.5) rotate(-63.68)"/><line class="cls-10" x1="1303.53" y1="149.89" x2="1313.65" y2="129.43"/><rect class="cls-8" x="1317.57" y="283.17" width="22.83" height="0.87" transform="translate(465.37 1205.31) rotate(-63.69)"/><line class="cls-10" x1="1307.5" y1="151.85" x2="1317.62" y2="131.39"/><rect class="cls-8" x="1321.54" y="285.14" width="22.83" height="0.87" transform="translate(465.27 1209.53) rotate(-63.66)"/><line class="cls-10" x1="1311.47" y1="153.82" x2="1321.59" y2="133.36"/><rect class="cls-8" x="1325.51" y="287.1" width="22.83" height="0.87" transform="translate(466.27 1214.62) rotate(-63.69)"/><rect class="cls-11" x="1275.11" y="263.89" width="30.35" height="1.13" transform="translate(460.7 1159.73) rotate(-63.68)"/><rect class="cls-11" x="1249.31" y="251.13" width="30.35" height="1.13" transform="translate(457.78 1129.5) rotate(-63.68)"/><rect class="cls-11" x="1222.47" y="237.85" width="30.35" height="1.13" transform="translate(454.74 1098.06) rotate(-63.68)"/><rect class="cls-11" x="1300.91" y="276.66" width="30.35" height="1.13" transform="translate(463.62 1189.96) rotate(-63.68)"/><path class="cls-7" d="M1336,295.92c.36,1.1,2.08,1.51,3.82.93s2.87-1.94,2.51-3-2.08-1.51-3.83-.92S1335.66,294.83,1336,295.92Z" transform="translate(-20.4 -143.95)"/><path class="cls-7" d="M1175.19,210.48c.36,1.09,2.07,1.51,3.82.92s2.87-1.94,2.5-3-2.07-1.51-3.82-.93S1174.82,209.38,1175.19,210.48Z" transform="translate(-20.4 -143.95)"/><rect class="cls-13" x="1228.1" y="231.27" width="5.22" height="7.44" transform="translate(453.98 1089.95) rotate(-63.68)"/><rect class="cls-13" x="1187.38" y="211.12" width="5.22" height="7.44" transform="translate(449.39 1042.26) rotate(-63.68)"/></svg>