<svg id="Layer_1" data-name="Layer 1" xmlns="http://www.w3.org/2000/svg" xmlns:xlink="http://www.w3.org/1999/xlink" viewBox="0 0 1325.2 1448.52"><defs><style>.cls-1{mask:url(#mask);}.cls-2{mix-blend-mode:multiply;fill:url(#radial-gradient);}.cls-3{fill:none;}.cls-4{clip-path:url(#clip-path);}.cls-5{mask:url(#mask-2);}.cls-6{fill:url(#radial-gradient-2);}.cls-7{fill:#5ab7b2;}.cls-8{fill:#fff;}.cls-9{fill:#9edcd9;}.cls-10{fill:#bfe8e6;}.cls-11{fill:#ebf8f7;}.cls-12{fill:#24b1a8;}.cls-13{fill:#bde7e5;}.cls-14{fill:#e0f4f3;}.cls-15{fill:#1fafa6;}.cls-16{fill:#4dbfb8;}.cls-17{fill:#70ccc6;}.cls-18{fill:#17aca3;}.cls-19{fill:#00a49a;}.cls-20{filter:url(#luminosity-noclip-2);}.cls-21{filter:url(#luminosity-noclip);}</style><filter id="luminosity-noclip" x="22" y="-8576" width="1325.2" height="32766" filterUnits="userSpaceOnUse" color-interpolation-filters="sRGB"><feFlood flood-color="#fff" result="bg"/><feBlend in="SourceGraphic" in2="bg"/></filter><mask id="mask" x="22" y="-8576" width="1325.2" height="32766" maskUnits="userSpaceOnUse"><g class="cls-21"/></mask><radialGradient id="radial-gradient" cx="684.6" cy="883.63" r="628.45" gradientTransform="translate(825.34 -225.28) rotate(45)" gradientUnits="userSpaceOnUse"><stop offset="0.39" stop-color="#fff"/><stop offset="0.45" stop-color="#f2f2f2"/><stop offset="0.55" stop-color="#cfcfcf"/><stop offset="0.69" stop-color="#969696"/><stop offset="0.86" stop-color="#484848"/><stop offset="1"/></radialGradient><clipPath id="clip-path" transform="translate(-22 -97.71)"><rect class="cls-3" width="1366" height="768"/></clipPath><filter id="luminosity-noclip-2" x="22" y="221.03" width="1325.2" height="1325.2" filterUnits="userSpaceOnUse" color-interpolation-filters="sRGB"><feFlood flood-color="#fff" result="bg"/><feBlend in="SourceGraphic" in2="bg"/></filter><mask id="mask-2" x="0" y="123.33" width="1325.2" height="1325.2" maskUnits="userSpaceOnUse"><g class="cls-20"><g transform="translate(-22 -97.71)"><g class="cls-1"><circle class="cls-2" cx="684.6" cy="883.63" r="662.6" transform="translate(-424.31 742.9) rotate(-45)"/></g></g></g></mask><radialGradient id="radial-gradient-2" cx="684.6" cy="883.63" r="628.45" gradientTransform="translate(825.34 -225.28) rotate(45)" gradientUnits="userSpaceOnUse"><stop offset="0.39" stop-color="#a3d7d4"/><stop offset="1" stop-color="#a3d7d4"/></radialGradient></defs><title>background</title><g class="cls-4"><g class="cls-5"><circle class="cls-6" cx="684.6" cy="883.63" r="662.6" transform="translate(-446.31 645.19) rotate(-45)"/></g></g><path class="cls-7" d="M1186,768H474.88a1.53,1.53,0,0,1-.36.07,1.25,1.25,0,0,1-.47-.07H169.47A515.33,515.33,0,0,1,229,611.87h0c89.86-154.42,257.15-258.22,448.7-258.22q11.43,0,22.75.49h.09c150.47,6.51,284.31,77.12,374.91,185.21l.41.48.38.46q4.15,5,8.19,10.06l1.41,1.79.2.25.18.24v0c.89,1.12,1.77,2.25,2.63,3.38l0,0,0,.07A516.48,516.48,0,0,1,1186,768Z" transform="translate(-22 -97.71)"/><path class="cls-8" d="M647.7,570.49c.91-11.82-2.75-8.72-2.75-8.72-4.67,1.82-11.69-3.75-8-13.36-8.32.68-23.69,25.72-23.69,25.72.34,0,.52,0,.86,0C614.09,574.1,646.79,582.3,647.7,570.49Z" transform="translate(-22 -97.71)"/><path class="cls-8" d="M554.26,464.42c-4.59,6.94,2,6.2,3.75,5.77s2-2.95,2-2.95c1-5.89,9.56,1.84,11,2.45s2.07-3.74,2.43-7.25-6.69-5.68-9.73-6.2S558.85,457.47,554.26,464.42Z" transform="translate(-22 -97.71)"/><path class="cls-8" d="M534.44,444.65c-.5,2.19,9.68-5.9,9.68-5.9.2-1.24.29-1.86.49-3.1a13.35,13.35,0,0,0-2.42-.18c-.24.13-4.35-.26-5.51.07a14.28,14.28,0,0,0-4.83,4.28C529.27,443.12,535,442.46,534.44,444.65Z" transform="translate(-22 -97.71)"/><path class="cls-8" d="M481.27,438.18c4.63.4,4.65,1.43,3.79,2.83s-5.55,1.95-5.55,1.95c-.33,1.28-.5,1.92-.83,3.21,5-1.45,7.48-2.16,12.51-3.53-.24,1-.37,1.52-.61,2.54-6.09,1.63-9.13,2.49-15.15,4.24a18.37,18.37,0,0,0,16.36,4.15c10.28-2.08,8.31-7.63,13.69-8.4s7.59,3.22,13.41-1.45,10.82-8.9,10.82-8.9-2.57-4.44-4.68-4,5.69-12.1,5.69-12.1c-2.44.55-3.66.83-6.1,1.41-2.41,3-3.62,4.58-6.06,7.65-.41-2.4-.6-3.57-1-5.94l-5.6,4.81c-3.6-.45-5.38-.65-8.91-1,0,0-5.19-17.2-39.4,17.29.85,2.48,1.29,3.74,2.2,6.28C465.87,449.23,476.64,437.77,481.27,438.18Z" transform="translate(-22 -97.71)"/><path class="cls-8" d="M328.19,561.6c-1.18,1.59-3.17,4-3.2,5.67s3.06-2.58,3.06-2.58,1.74,1.56,3.06.81.92-1.54.67-3.37-2.48,1.08-1-1.48S329.38,560,328.19,561.6Z" transform="translate(-22 -97.71)"/><path class="cls-8" d="M327.91,569.15c-5.11,2.07-5.49,7.58-5.49,7.58l2.77-.06S333,567.08,327.91,569.15Z" transform="translate(-22 -97.71)"/><path class="cls-8" d="M315.72,613.6s6.13-.56,5.63-1.58,3.85-11-1.9-12.26-8.65,7.71-8.65,7.71C310.54,612.47,315.72,613.6,315.72,613.6Z" transform="translate(-22 -97.71)"/><path class="cls-8" d="M544.16,425.18s4.31.72,5-.48,1.35-3.15,4.21-3.67c7.22-2.3,9.1-12.95,9.1-12.95-3.6,1.68-5.41,2.53-9,4.25l-3.16.62s-1.26,5.12-2.86,5.7-2.27-1.5-2.27-1.5-5,.15-5.41.42l.1,2.8C545.22,422.34,544.16,425.18,544.16,425.18Z" transform="translate(-22 -97.71)"/><path class="cls-8" d="M569.84,411.76c1.55-1.61,6.93.1,6.93.1l2.47-6.76s.08-2.14-8.51,1.81-7.65,9.77-7.65,9.77C568.27,417.12,568.3,413.37,569.84,411.76Z" transform="translate(-22 -97.71)"/><path class="cls-8" d="M579.32,425.87c.12.82,6,1.45,8-.58s10.86,1.09,10.86,1.09,3.24.78,5.16-.92,6.75-8.82,8.54-3.29,15.72,20.25,15.72,20.25c-2.11,1.49-3.16,2.25-5.27,3.76,0,0-4.63-4.35-6.2-3.55-6.56,3.33-7.7,5.65-9.78,9.92,0,0,0,0-6,.24-11.72.51-14.4,7.14-9.38,8.19s7.82-4,7.82-4,6.29.93,6.27.13c-.06,10.27,11.49,15.51,11.72,15.59s8.16.89,9.23,0,3.81-4,0-5.37-6.15-5.19-2.39-6.9,6.84,7.94,8.87,4.76,2.93-6.72,1.09-14,3-6.53,3-6.53c4.26,2.33,6.39,3.52,10.73,5.92,0,0,10.52-9,5.77-11.19s-8.69-13.65-8.69-13.65c-.17-2-.25-2.93-.42-4.88-13.14-3.9-16.16-12.37-16.16-12.37-2.94,1.54-4.43,2.31-7.39,3.88l-9.62-8.4c-2.22.26-3.33.4-5.54.68-.9,4.36-4.93,2.87-4.93,2.87l-2.36-.78c.1-.95.14-1.43.24-2.39-10.47-1.4-20.67,14.64-20.67,14.64S579.2,425,579.32,425.87Z" transform="translate(-22 -97.71)"/><path class="cls-8" d="M599,400.57c6-.66,9-.95,15-1.47-.09.75-.14,1.12-.23,1.87l6.25-.58c7.79-4.94,6.33-8,6.33-8-8.46.92-12.67,1.46-21,2.64-17-10.14-18.65,5.85-18.65,5.85-.36,0,12.3-1.79,12.3-1.79Z" transform="translate(-22 -97.71)"/><path class="cls-8" d="M614.15,377.94s2-5.19,6.06-5.79,1.24-6.79-2.28-7.2-17,5.46-15.64,12.07C602.41,377.54,614.15,377.94,614.15,377.94Z" transform="translate(-22 -97.71)"/><path class="cls-8" d="M700.6,354.12h0c-.2,10.57-23.22,10.7-38.65,16.62,0,0-26.87,14.73-28.24,18.34s-4.59,1.08-4.59,1.08-4.69-4.58-5.42-4.25a43.87,43.87,0,0,1-4.55,1.06s-6.17,2.55-7.31,1.85-4.83-5.28-4.83-5.28c6.88-.82,10.34-1.18,17.28-1.8l.2-2.75-3.68.33.93-3.35c2.07-.21,3.1-.3,5.18-.48-.07,1-.11,1.54-.18,2.57,1.45-.13,2.16-.2,3.61-.31,0,0-5.28-7.32-1.44-7.65.33,0,20.56-1.41,23.21-1.53l.28,0,3.47-3.91c-9.57-.2-14.32-.21-23.73,0,.1-1.48.15-2.23.25-3.7,27.13-4.43,41.17-5.84,68.12-6.83Z" transform="translate(-22 -97.71)"/><path class="cls-8" d="M824.1,381.62a38.52,38.52,0,0,0-9.35-6.78c-12.64-4-19-5.9-31.9-9.2a400.14,400.14,0,0,0-44.35,0c-6.7,0-22.37-9.24-32.68-4.45-18.77,13.8-40.6,10.23-40.36,13.66,0,0-4.19,15.52,25.95,12.81,9.15-.82,10.27,21,10.27,21l3.81,2.23s-3.3,20.42-9.1,24.19,3.8-2.47-1.68,19.22,5,14.41,9.51,24,15.57,2.16,16.63.59,15.81-26.49,18.3-26.12,18.68-1.75,20.49-5.23S777.51,433.7,778,436.4s5.09,3.5,8,3.15,21.19-2.39,21.59-3.41-3.27-5.69-3.27-5.69-4.64-.07-6,.62-5.12-2.12-4.52-2.91,3.65-.17,3.82-2-1.68-3.75-.33-5,8.93,9,8.93,9,7.84,2,6.42-1.5c-1.08-2.71-9.39-10.8-12.68-13.38,4,.45,15.5-2.55,16.87-4.33,1.59-2.08,4.36-11,4.82-13.08s-1.88-3.48-1.88-3.48c1.32-2.9,2-4.32,3.22-7.14,0,0-1.67-.53,6.89,1.56s7.72-3.79,7.72-3.79S827.83,385.58,824.1,381.62Z" transform="translate(-22 -97.71)"/><path class="cls-8" d="M828.49,458.65c-2,.86-7.47-.4-12.93-.83s-9.07,7.3-9.33,8.27c0,.43.07.63.13,1,1.62,3.28,13.74,6.94,15.26,7.94s19.73-4.41,18-8.77S830.42,457.79,828.49,458.65Z" transform="translate(-22 -97.71)"/><path class="cls-8" d="M456.84,754.19c-.61,1.92-.92,2.88-1.52,4.8,1.4,3.23,2.1,4.87,3.53,8.13l3.43-.15a9.21,9.21,0,0,1-1.56-7.36c.81-4.64,4.7-3.64,4.7-3.64-.29-1.53-.44-2.29-.73-3.81l5.72-.89c-.31-3.84-.46-5.75-.76-9.58-4.59.26-6.88.38-11.45.65-.24,3.24-.35,4.87-.58,8.13l3.12-.18c-.08,1.48-.12,2.21-.19,3.71Z" transform="translate(-22 -97.71)"/><path class="cls-8" d="M476.78,764.38c-.08,1.78-.9,3.29-1.9,3.62a1.53,1.53,0,0,1-.36.07,1.25,1.25,0,0,1-.47-.07c-.92-.33-1.55-1.73-1.48-3.44.09-2,1.1-3.62,2.26-3.67S476.86,762.4,476.78,764.38Z" transform="translate(-22 -97.71)"/><path class="cls-8" d="M641.61,524.77c-4.07.12-6.11.19-10.17.34.29-1.91.43-2.87.71-4.79,0,0-8.21-10-5.47-13s.76-24.62.76-24.62c-8.09,6.13-12.17,9.24-20.37,15.55,0,0-11.77,5-1.68-11.37S584,472.51,581.72,472.58c-10.12.24-14.08,27.11-18.18,23.23-.41,3.44-.63,5.18-1,8.64,0,0,1.74,13.29-20.22,25.09-7,4.3-9.89,16.67-12.23,20.59,0,0-16.16,9.45-2.6-20,0,0,3.4-4.55-11.94-4.66l-9-6.6c-2.21.28-3.32.42-5.53.72-1.3-4-1.93-6-3.17-9.94l-2.66-.84s12.06-24.17,34.23-31.28c.52-2.66.78-4,1.3-6.6.75-.14,8.69-1.45,8.69-1.45,5.06-2.55,7.58-3.81,12.63-6.31,0,0-4.66-6.07-2.29-7.76s12.8-3,12.8-3l16.21-3.29s4.8.14,11.56-11.46.58-8.78-.14-8.88-9.45,1.13-9.45,1.13-14.6,16.7-15.22,14.9-1.1-4.71,2.16-7.61,1.56-3.21,1.56-3.21c-3.82-.79-5.72-1.16-9.49-1.88,1.51-4.22,2.26-6.32,3.75-10.51-6.86,4-10.31,6-17.22,10.11,0,0,3.6,3.16-1.38,10.64l-5.15,1.72c-3,3.1-4.53,4.64-7.55,7.74,0,0-4.85,3.08-4.9-3.88-2.5.46-3.76.7-6.26,1.18,0,0-10.84,2.22-14.88.18s-14.87,11.34-17.1,14.42-4.23-2.6-2.55-5.87c-2.07.22-3.09.34-5.14.58-4.26,1.33-6.37,2-10.61,3.4,1.66-2.34,2.49-3.51,4.13-5.85,0,0-16.45,2.5-15.14-.8-4.09,1.33-6.13,2-10.2,3.41,0,0-8.48,2.8-8.7.59s-18.61,9.69-24.29,14.22-14.11,6.33-14.11,6.33-39.87,5.53-75.35,36c-3.15,2-4.7,2.93-7.81,4.9,0,0-5.29,3.67-8.1,7.9-2.69,4.07,0,3.29.24,3.23l-6.3,5.85s-10.48,3-20.93,14.52,8.42-2.83,11.38-5.18,2.38-.59,2.38-.59c-4.1,3.92-6.14,5.88-10.24,9.78,0,0-14.82,8.66-17.06,11s-7.57,6.68-8.86,10.69-8,8.68-9.87,10.16-1.5,3.78.84,2.77,6.07-5.64,7.28-5.22-30,25.56-31,26.33c2.56-.86,3.86-1.29,6.49-2.13,0,0,47.91-40.64,53.67-42.33s14.52-7.36,19.84-12.78,29.27-3.81,26.57,4.37-3.87,13-6.22,15.95-8.69,13.13-5.8,13.77c0,0-7.75,6.9.44,12.09s-5.08,17.69-7,20.2-9.63,3.6-9.63,3.6-25.14,32-26.95,38.37-4.87,7.22-6.32,7.56-9.26,12.81-3.88,19.67c-1.37,8.62-2,13-3.12,21.74,0,0,10.4,4.55,9,10.11s-3.49,15.5-3.49,15.5,4.49,9,3.24,12.56-5.37,9.34-1,12.51c3.24,2.37,5.15,3.95,5.31,5.39h4.88c-.06-.56-.13-1.15-.2-1.81.07-3.82.11-5.72.22-9.51-2.1-8.73-3.08-13-4.88-21.5-.72-5,4.29-12.31,8.66-4.59-.24,6.27-.33,9.42-.46,15.78,2.56,5.87,3.89,8.85,6.61,14.88-.43,2.68-.64,4-1.05,6.69l.05.06h59.38q1.47-3.48,3.45-7.27c2.24-6.33,3.37-9.5,5.66-15.83,0,0,14.91-16.29,25.91-18.14s9.66,7.76,17.22,5,7-13.3,13.1-12.76,8.95,7,17.32,3.52l6.66,6.22s-6.66,27.85,4.07,30.38c5.09,1.71,7.85-13.89,7.56-17.6-.53-.33-.79-.48-1.33-.8.53-10.75.83-16.09,1.49-26.7,0,0,5.85-19.27,28.83-27.51,13.2-5.32,15.18-31,15-33.3,1.7-.14,2.55-.22,4.26-.35,0,0,5.86-11.85,13.65-14s12.47-17.08,25.66-18.7c.88-3.67,1.31-5.5,2.19-9.15,0,0,4.34-13,37.71-19,7.19,1-11.29,11.39-12.56,12.11,1-.24,3.6,4.32,3.6,4.32s25.83-19,29.43-18.8c.2-1.56.3-2.33.51-3.88l-6.85.33s-21.63,2.83-4.64-21.42c-4.76-.13-7.13-.19-11.86-.28l1.95-4.55S656,547.86,641.61,524.77Zm-155.1,105c-1.83.66-6,.63-6,.63-2.08-1-5.09-3.41-1.5-4.37s8.29-1.72,10.07-4.13,3.26-4,3.33-.35S488.34,629.05,486.51,629.72Zm7.27-23.34c-1.3-.13-4.08,3.49-5.45,6.13s-5.26,6.11-6.11,2.07,2-10.12,3.2-10.8-1.26-3.95-4.09-3.59-24,27.52-25.79,31.84-3-3.44-3-3.44,14.85-26.34,23.89-29.4,6-6.19,5.22-6.63-6.12,1.35-6.12,1.35-5.5-1.54-5.46-3.35-10.55,3.46-11,7c-.47,3.31-4.27-5.07-5.81-4.51s18.05-17.24,26.25-14.41,6.07,11.8,6.05,13.7,2.9,6.17,5.93,4.17,9.61-3.06,9.61,3S495.06,606.5,493.78,606.38Zm18.73,5.56c-.78,1.19-9.65,1.79-9.65,1.79.16-1.69,2.08-3.28,4.64-4.66s4.19-4.6,5.57-3.06S513.29,610.74,512.51,611.94Z" transform="translate(-22 -97.71)"/><path class="cls-8" d="M862.18,557.94s8.49-5.63,12.41-5-.53-9.21-.53-9.21,2-4.28,2.89-4.51-1.41-5.8-2.83-6.24-9.57-1.66-9.57-1.66-3,5.31-4.61,3.5-3.42,1.6-3.42,1.6,1,4.85,2.29,5.24.19,4.55-.74,5.59S857.12,556.21,862.18,557.94Z" transform="translate(-22 -97.71)"/><path class="cls-8" d="M878.44,534.7c3,1.08,4.56,1.65,7.6,2.74,2.81,5.07,2.72,8.64-.86,9.74s-3.86,4.92-4.54,7.33,2.25,1.73,2.41,3.7,7,2.92,6.58,4-10,3.45-10,3.45l4.61,2.88c5.78-.89,8.66-1.31,14.34-2.11,0,0,9.42,3,9.79,1.75s-2.63-2.21-2.54-5.06,2.38,3.07,4-2.86-1.05-5.67-1.05-5.67c-2.19.24-3.31.37-5.52.64-1.35-7.46-13.9-23.58-13.9-23.58s-4-1.71-3.78-2.24,2.06-6.86,2.06-6.86l-4.33-1.43s2.19-1.42-2.65-4.07-5.29,4.58-5.29,4.58c0,2.09-.07,3.15-.11,5.26l2,.36S878.64,534.17,878.44,534.7Z" transform="translate(-22 -97.71)"/><path class="cls-8" d="M982.91,537.32c-.84-.29-1.26-.44-2.1-.71,0,1.09,0,1.65.06,2.76l1,3,4.25,1.39c-.31-1-.48-1.49-.8-2.47C984.35,539.73,983.86,538.92,982.91,537.32Z" transform="translate(-22 -97.71)"/><path class="cls-8" d="M1080.13,710.3c1.18-.32,3-4.08,4.36-3.84s1.94-3.06.51-4.38-3.44-1.55-4.43-.85a30.21,30.21,0,0,1-4.36,1.89S1078.94,710.64,1080.13,710.3Z" transform="translate(-22 -97.71)"/><path class="cls-8" d="M1046.58,703.08c1.66.26,2.71-1.2,2.34-3.27s-2-4-3.67-4.25c-3.92-.65-5.89-1-9.85-1.6-1.66-.27-2.72,1.21-2.36,3.31s2,4,3.66,4.28Z" transform="translate(-22 -97.71)"/><path class="cls-8" d="M975.43,670.82c-.12,5.53,14.65,8.9,14.65,8.9.18-3.75.27-5.62.41-9.33,0,0-11.7-3.52-12.49-3.64C978,666.75,975.54,665.29,975.43,670.82Z" transform="translate(-22 -97.71)"/><path class="cls-8" d="M983.66,682.77c.3,2.11.45,3.16.74,5.28l3.69.49,1.48-2.8Z" transform="translate(-22 -97.71)"/><path class="cls-8" d="M958.13,640.85c.73-.28-1.69-10.21-1.69-10.21s-3.82,0-4.88,1.05,2.44,8.52,2.44,8.52S957.4,641.13,958.13,640.85Z" transform="translate(-22 -97.71)"/><path class="cls-8" d="M955.39,659.25l3,.42,2.75-1.4c-.85-5.72-1.28-8.57-2.19-14.25l-5.33-1.71C945.47,644.32,955.39,659.25,955.39,659.25Z" transform="translate(-22 -97.71)"/><path class="cls-8" d="M934,646.68l-2.91-1.61c.24,1.81.35,2.72.6,4.54l2.27.29C934,648.61,934,648,934,646.68Z" transform="translate(-22 -97.71)"/><path class="cls-8" d="M922.94,652.27l-3.77-.46c.05,1.73.07,2.59.11,4.33l3.29.39c.13-1.34.19-2,.32-3.34l5.24.64c0-.61-.07-.92-.12-1.54l1.14.14c-.27-2.11-.4-3.17-.68-5.27a46.52,46.52,0,0,1-5.29-.68c.13.83.2,1.25.34,2.08l-.95.69C922.71,650.46,922.79,651.06,922.94,652.27Z" transform="translate(-22 -97.71)"/><path class="cls-8" d="M1086.34,552.68l0,0v0c-4.43-4.12-10.2-9.72-10.93-11.18s-1.09-2.78.16-2.1h0c4.26,5.08,6.42,7.74,10.37,12.78l.2.25Z" transform="translate(-22 -97.71)"/><path class="cls-8" d="M1089,556.12l0-.07,0,0c-5.08-5-16.42-13.74-16.42-13.74a15.34,15.34,0,0,1-5.82-2c-3.57-1.94-14.87-9.6-14.87-9.6-2.9-1.73-4.35-2.58-7.29-4.26-2.61,6.38-9.38-.89-9.38-.89-2-2.54-3-3.82-5-6.35-1.92-1.16-2.88-1.73-4.82-2.88,2,3.59,2.91,5.4,4.82,9,0,0-10.68-6.17-7.43-1.73s.74,5.15.74,5.15c-1.94-1.8-2.9-2.7-4.83-4.51-1.56-.75-2.35-1.11-3.92-1.85,2.85,3.1,4.28,4.63,7.14,7.74,0,0-.34,1.68-4.21-.32s-23.25-22.92-21.88-23.56,14.33,9.58,14.33,9.58,13.71,8.27,11.07,2.73S1002.49,509,991,495.93s-27.8-19.22-27.8-19.22c-31-12.18-27.76,23.85-40.23,21-12.23-2.06-8.33,9.76-8.33,9.76s2.64,7,3.07,10.77,6.4,7.69,6.4,7.69l6.7,1.71c1.2.78,4.09-5.33,6.51-4.21s10.86,17.66,10.86,17.66,6.81,6.86,8.49,7.77,7.17-.36,6.4-7.36,4.11-9.25,4.11-9.25.4-5.4-1.37-5.77-8.55-8.3-9-10.66,3.26-1.29,3.26-7.41,8.62-9.63,10.92-7.29,1.18,5.1-.68,12.76,6.39,12.82,6.73,14.06,10,6,10.64,6.57,6.33.57,7,.22,9.26,5.48,9.26,5.48c1.51,2-7.79,1.22-7.79,1.22s-6.72-3.78-8.67-3.84,2.59,6.24,4.26,8.82-.25,3.72-.25,3.72l-3.6-2.43-6.31-2c1.48,4.74,2.2,7.12,3.63,11.92-2.39,1.9-3.61,2.88-6.09,4.88l-7.12-4c-4.19.75-6.34,1.14-10.64,2-1.92-1.78-2.87-2.68-4.78-4.47,0,0-6.51-1.19-8.2.29s-3.06-4.28-2.69-5.83,4,.07,5.47-.8-2.39-5.86-4.7-7.16-6.53.89-6.53.89-1.41-10.13-2.58-10.44-3.63,4.41-5.39,6.34,4.75,10.88,6.63,12.51-1.7,4.17-1.7,4.17c-3.58-.82-5.37-1.22-9-2,0,0-8.52,13.57-13,12.84s-7,6.48-8.22,9.1-2.83-.28-11.09,2-12,2.63-10.49,6,13,9.07,15.83,14.53-1.24,19.94-1.89,19.85a78.67,78.67,0,0,0-10.43.58c-2.74.48-10.06-7-18.23-6.29s-3.82,9-3.72,14.28-1.47,24-.4,31.27,9,3.36,9,3.36c2.55-3.32.27,5.07,5.17,7.21a9,9,0,0,0,8.81-.9s10.72.61,13.2.65,9.16-5.55,9.33-14,14.55-19.6,14.55-19.6,2,3.09-.39-3.87,5.35-7.37,6.43-5.43,10.07,6.43,12.44.17,10.88-6.13,10.86-3.63,10,20.63,13.81,19.14,19.29,18.24,19.29,18.24c.68,4.35,1,6.52,1.65,10.91a28.22,28.22,0,0,0,4.28.87c.91-.06,2.31-5.44,1.85-9a9.17,9.17,0,0,0-2.11-5.14c3.44.67,5.16,1,8.59,1.67,0,0,0-2.46-3.55-5.35S983.91,643.5,981,638s-12-13.95-15.15-17.75,3.05-7.33,3.9-3.79a7.86,7.86,0,0,0,5.45,5.93c1.85.35,10,10.7,16.06,13.92s11,10.31,11,10.31,7.15,14.8,8.29,18.58,11.26,5.18,11.26,5.18c0,1.21.07,1.8.12,3,0,0-4.56-.41-4.12,1.18s8.57,12.79,8.57,12.79.9,2.38,3.15-4.21S1027.1,671,1023.67,667s.27-6.79.69-5.41,3.1,3.7,4.22,1.35,1.87-5.65,3.65-4.74,6.8,3.54,6.8,3.54,7.24-5,10.52-.64-3.47,6-3.47,6l-7-1.23c0,1.66-.08,2.48-.14,4.15l5.36,4.85a23.8,23.8,0,0,0,8.87,16.67,1.6,1.6,0,0,0-.31-.1l-1.83-.31c-.93-.17-1.49.64-1.27,1.79a3,3,0,0,0,2,2.37c.74.14,1.12.19,1.85.32.92.16,1.48-.65,1.27-1.79a3.56,3.56,0,0,0-.69-1.47c4,3,8,3.92,8.58,2.34,1.37-3.39,9.87,1.63,10.62,2.49s8.28,3.33,9.2.32,8.34.78,8.34.78c.62,5.27.91,7.93,1.44,13.28-.6,8.48-1,12.78-1.9,21.51-16.2-3.46-24.44-5.19-41.15-8.52-6.4-4.47-9.61-6.72-16.06-11.25a20.65,20.65,0,0,0-9.57-2.27c-5.56,0-1,13.45-1,13.45s-4.23,7.66-6.93,5-14.62-4.24-14.65-8.47-6.48-11.23-6.48-11.23c-2.06-1.25-21.11-5.71-23.86-15,0-31.09-15.71-20.4-15.71-20.4s-23.44-1.78-27.66-3.08-21.8,8.83-26.34,10.39c-.61.2-8-2.91-11-4.46s-4.88-9.85-7.5-1.08-17,18.15-17,18.15c-.88,9.21-1.35,13.83-2.33,23.15,0,0-11.6,12.62-28.89,38.17A90.73,90.73,0,0,0,827.35,768h271.94c-3.55-6.13-7.39-12.65-12.16-20.72.13-1.56.18-2.33.31-3.88l9.87,12.28c.27-3.46.4-5.19.62-8.63,0,0,3.88,7.91,4.47,12.07.24,1.67,3.23,4.71,7,8.88H1169c-.92-1.42-2-3-3.4-4.75-9.09-11.71-4-10.71-4-10.71.75-.37,6.36.62,6.36.62,0,5.1,4.48,10.49,9.62,14.84h8.19C1165.51,688.73,1136,623.9,1089,556.12Zm9.08,117.7c-2.71-.24-14.42-4.66-17.65-8.67s-10.38-7.36-14.73-5.89-7.4,4.29-9.66,2.62-8.81-4-9.67-6.1c-1.82-4.38-6.4-6.6-5.21-10s.73-9.51,2.09-11.22,1.22-13.49,7.36-7.43,4.35,7.78,7.89,10.91,8,8.25,9.08,5.26,4-2.79,1.4-5.24-6.65-5.53-3.11-6.22,10.06-.18,10.06-.18c.67,5.09,1,7.65,1.55,12.84,0,0,18.5,13.41,22.44,20.19S1100.79,674.06,1098.08,673.82ZM1167,713.94c-1.91,2.91-4.08,3.63-8.14.18s-6.48-6.56-9.6-7.34-8.42-5-7.26-8.44c.19-.56,1.73-11.21-5.67-17.73s-12.12-12.74-13.06-16.75-1.68-17.28,7-13.06,11.47,9.48,12.06,12-10.69-4.64-8.14,1.27,9.75,11.46,12.37,14.74,1.89-2,6.78,4,8,7.74,7,9-6.13-4-5.85-1.38,2.92,3.75,6.33,9.59S1168.86,711,1167,713.94Z" transform="translate(-22 -97.71)"/><rect class="cls-9" x="1014.98" y="363.64" width="39.37" height="0.94" transform="translate(-69.45 87.12) rotate(-9.98)"/><path class="cls-10" d="M1014.74,363.17c1.37.68,1.61,3,.52,5.21s-3.08,3.42-4.46,2.74-1.61-3-.52-5.21S1013.36,362.49,1014.74,363.17Z" transform="translate(-22 -97.71)"/><path class="cls-10" d="M1009.5,361.21c1.38.68,1.61,3,.53,5.21s-3.09,3.43-4.46,2.75-1.61-3-.53-5.21S1008.13,360.53,1009.5,361.21Z" transform="translate(-22 -97.71)"/><path class="cls-10" d="M1010.37,342c1.11,1.07.63,3.36-1.07,5.13s-4,2.34-5.07,1.28-.63-3.36,1.06-5.13S1009.26,340.94,1010.37,342Z" transform="translate(-22 -97.71)"/><rect class="cls-9" x="1033.1" y="331.12" width="0.94" height="39.37" transform="translate(601.56 1264.65) rotate(-86.68)"/><path class="cls-10" d="M1014.39,345.32c1.18,1,.88,3.3-.69,5.19s-3.79,2.62-5,1.64-.87-3.3.69-5.19S1013.21,344.34,1014.39,345.32Z" transform="translate(-22 -97.71)"/><rect class="cls-11" x="1025.59" y="69.34" width="40.37" height="166.97" transform="translate(423.07 924.69) rotate(-63.68)"/><rect class="cls-12" x="979.1" y="109.66" width="30.37" height="35.36" transform="translate(417.25 864.36) rotate(-63.68)"/><path class="cls-10" d="M1017.81,121.25l-14.09,28.49-33-16.31L984.85,105Zm-14.73,26.6,12.84-26-30.43-15.06-12.85,26Z" transform="translate(-22 -97.71)"/><line class="cls-12" x1="992.62" y1="28.4" x2="960.92" y2="12.72"/><rect class="cls-10" x="998.06" y="100.59" width="1.42" height="35.36" transform="translate(427.88 863.33) rotate(-63.68)"/><line class="cls-12" x1="990.37" y1="32.94" x2="958.68" y2="17.26"/><rect class="cls-10" x="995.82" y="105.12" width="1.42" height="35.36" transform="translate(422.57 863.85) rotate(-63.68)"/><line class="cls-12" x1="988.13" y1="37.48" x2="956.43" y2="21.8"/><rect class="cls-10" x="993.57" y="109.66" width="1.42" height="35.36" transform="translate(417.26 864.36) rotate(-63.68)"/><line class="cls-12" x1="985.88" y1="42.01" x2="954.19" y2="26.33"/><rect class="cls-10" x="991.33" y="114.2" width="1.42" height="35.36" transform="translate(411.94 864.87) rotate(-63.68)"/><line class="cls-12" x1="983.64" y1="46.55" x2="951.94" y2="30.87"/><rect class="cls-10" x="989.08" y="118.73" width="1.42" height="35.36" transform="translate(406.62 865.38) rotate(-63.68)"/><line class="cls-12" x1="954.98" y1="38.02" x2="968.45" y2="10.8"/><rect class="cls-10" x="968.53" y="121.54" width="30.37" height="1.15" transform="translate(415.85 851.84) rotate(-63.66)"/><line class="cls-12" x1="960.26" y1="40.63" x2="973.73" y2="13.41"/><rect class="cls-10" x="973.81" y="124.15" width="30.37" height="1.15" transform="translate(416.88 858.31) rotate(-63.69)"/><line class="cls-12" x1="965.55" y1="43.25" x2="979.01" y2="16.02"/><rect class="cls-10" x="979.1" y="126.77" width="30.37" height="1.15" transform="translate(417.33 864.41) rotate(-63.68)"/><line class="cls-12" x1="970.83" y1="45.86" x2="984.3" y2="18.64"/><rect class="cls-10" x="984.38" y="129.38" width="30.37" height="1.15" transform="translate(418.07 870.7) rotate(-63.69)"/><line class="cls-12" x1="976.11" y1="48.47" x2="989.58" y2="21.25"/><rect class="cls-10" x="989.66" y="131.99" width="30.37" height="1.15" transform="translate(418.67 876.89) rotate(-63.69)"/><rect class="cls-12" x="1013.44" y="126.65" width="30.37" height="35.36" transform="translate(421.13 904.58) rotate(-63.68)"/><path class="cls-10" d="M1052.15,138.24l-14.09,28.49-33-16.31,14.09-28.48Zm-14.73,26.6,12.84-26-30.43-15.06-12.85,26Z" transform="translate(-22 -97.71)"/><line class="cls-12" x1="1026.96" y1="45.39" x2="995.26" y2="29.71"/><rect class="cls-10" x="1032.4" y="117.57" width="1.42" height="35.36" transform="translate(431.77 903.56) rotate(-63.68)"/><line class="cls-12" x1="1024.71" y1="49.93" x2="993.01" y2="34.25"/><rect class="cls-10" x="1030.15" y="122.11" width="1.42" height="35.36" transform="translate(426.46 904.08) rotate(-63.68)"/><line class="cls-12" x1="1022.47" y1="54.46" x2="990.77" y2="38.78"/><rect class="cls-10" x="1027.91" y="126.65" width="1.42" height="35.36" transform="translate(421.15 904.6) rotate(-63.68)"/><line class="cls-12" x1="1020.22" y1="59" x2="988.53" y2="43.32"/><rect class="cls-10" x="1025.66" y="131.19" width="1.42" height="35.36" transform="translate(415.83 905.11) rotate(-63.68)"/><line class="cls-12" x1="1017.98" y1="63.54" x2="986.28" y2="47.86"/><rect class="cls-10" x="1023.42" y="135.72" width="1.42" height="35.36" transform="translate(410.5 905.61) rotate(-63.68)"/><line class="cls-12" x1="989.32" y1="55.01" x2="1002.79" y2="27.79"/><rect class="cls-10" x="1002.87" y="138.53" width="30.37" height="1.15" transform="translate(419.88 892.17) rotate(-63.67)"/><line class="cls-12" x1="994.6" y1="57.62" x2="1008.07" y2="30.4"/><rect class="cls-10" x="1008.15" y="141.14" width="30.37" height="1.15" transform="translate(420.35 898.27) rotate(-63.66)"/><line class="cls-12" x1="999.88" y1="60.24" x2="1013.35" y2="33.01"/><rect class="cls-10" x="1013.44" y="143.75" width="30.37" height="1.15" transform="translate(421 904.5) rotate(-63.67)"/><line class="cls-12" x1="1005.17" y1="62.85" x2="1018.64" y2="35.63"/><rect class="cls-10" x="1018.72" y="146.37" width="30.37" height="1.15" transform="translate(421.67 910.74) rotate(-63.67)"/><line class="cls-12" x1="1010.45" y1="65.46" x2="1023.92" y2="38.24"/><rect class="cls-10" x="1024" y="148.98" width="30.37" height="1.15" transform="translate(422.12 916.82) rotate(-63.66)"/><rect class="cls-12" x="1047.74" y="143.62" width="30.37" height="35.36" transform="translate(425.02 944.79) rotate(-63.68)"/><path class="cls-10" d="M1086.46,155.22l-14.1,28.48-32.95-16.3,14.09-28.49Zm-14.73,26.59,12.84-26-30.43-15-12.85,26Z" transform="translate(-22 -97.71)"/><line class="cls-12" x1="1061.27" y1="62.36" x2="1029.57" y2="46.68"/><rect class="cls-10" x="1066.71" y="134.55" width="1.42" height="35.36" transform="translate(435.66 943.77) rotate(-63.68)"/><line class="cls-12" x1="1059.02" y1="66.9" x2="1027.32" y2="51.22"/><rect class="cls-10" x="1064.46" y="139.09" width="1.42" height="35.36" transform="translate(430.35 944.28) rotate(-63.68)"/><line class="cls-12" x1="1056.78" y1="71.44" x2="1025.08" y2="55.76"/><rect class="cls-10" x="1062.22" y="143.62" width="1.42" height="35.36" transform="translate(425.01 944.78) rotate(-63.68)"/><line class="cls-12" x1="1054.53" y1="75.98" x2="1022.83" y2="60.3"/><rect class="cls-10" x="1059.97" y="148.16" width="1.42" height="35.36" transform="translate(419.7 945.3) rotate(-63.68)"/><line class="cls-12" x1="1052.29" y1="80.51" x2="1020.59" y2="64.83"/><rect class="cls-10" x="1057.73" y="152.7" width="1.42" height="35.36" transform="translate(414.39 945.82) rotate(-63.68)"/><line class="cls-12" x1="1023.63" y1="71.98" x2="1037.1" y2="44.76"/><rect class="cls-10" x="1037.18" y="155.5" width="30.37" height="1.15" transform="translate(423.97 932.51) rotate(-63.69)"/><line class="cls-12" x1="1028.91" y1="74.6" x2="1042.38" y2="47.37"/><rect class="cls-10" x="1042.46" y="158.12" width="30.37" height="1.15" transform="translate(424.36 938.55) rotate(-63.67)"/><line class="cls-12" x1="1034.19" y1="77.21" x2="1047.66" y2="49.99"/><rect class="cls-10" x="1047.74" y="160.73" width="30.37" height="1.15" transform="translate(424.8 944.64) rotate(-63.66)"/><line class="cls-12" x1="1039.48" y1="79.82" x2="1052.95" y2="52.6"/><rect class="cls-10" x="1053.03" y="163.34" width="30.37" height="1.15" transform="translate(425.85 951.15) rotate(-63.69)"/><line class="cls-12" x1="1044.76" y1="82.44" x2="1058.23" y2="55.21"/><rect class="cls-10" x="1058.31" y="165.96" width="30.37" height="1.15" transform="translate(426 957.02) rotate(-63.66)"/><rect class="cls-12" x="1082.09" y="160.61" width="30.37" height="35.36" transform="translate(428.9 985.03) rotate(-63.68)"/><path class="cls-10" d="M1120.8,172.21l-14.09,28.48-33-16.3,14.09-28.49Zm-14.73,26.59,12.84-26-30.43-15.05-12.85,26Z" transform="translate(-22 -97.71)"/><line class="cls-12" x1="1095.61" y1="79.36" x2="1063.91" y2="63.67"/><rect class="cls-10" x="1101.05" y="151.54" width="1.42" height="35.36" transform="translate(439.54 984) rotate(-63.68)"/><line class="cls-12" x1="1093.36" y1="83.89" x2="1061.67" y2="68.21"/><rect class="cls-10" x="1098.81" y="156.08" width="1.42" height="35.36" transform="translate(434.23 984.52) rotate(-63.68)"/><line class="cls-12" x1="1091.12" y1="88.43" x2="1059.42" y2="72.75"/><rect class="cls-10" x="1096.56" y="160.61" width="1.42" height="35.36" transform="translate(428.9 985.03) rotate(-63.68)"/><line class="cls-12" x1="1088.88" y1="92.97" x2="1057.18" y2="77.29"/><rect class="cls-10" x="1094.32" y="165.15" width="1.42" height="35.36" transform="translate(423.59 985.54) rotate(-63.68)"/><line class="cls-12" x1="1086.63" y1="97.5" x2="1054.93" y2="81.82"/><rect class="cls-10" x="1092.07" y="169.69" width="1.42" height="35.36" transform="translate(418.27 986.05) rotate(-63.68)"/><line class="cls-12" x1="1057.97" y1="88.97" x2="1071.44" y2="61.75"/><rect class="cls-10" x="1071.52" y="172.49" width="30.37" height="1.15" transform="translate(427.95 972.82) rotate(-63.69)"/><line class="cls-12" x1="1063.25" y1="91.59" x2="1076.72" y2="64.36"/><rect class="cls-10" x="1076.8" y="175.11" width="30.37" height="1.15" transform="translate(428.55 979.01) rotate(-63.69)"/><line class="cls-12" x1="1068.54" y1="94.2" x2="1082" y2="66.98"/><rect class="cls-10" x="1082.09" y="177.72" width="30.37" height="1.15" transform="translate(429.16 985.21) rotate(-63.69)"/><line class="cls-12" x1="1073.82" y1="96.81" x2="1087.29" y2="69.59"/><rect class="cls-10" x="1087.37" y="180.33" width="30.37" height="1.15" transform="translate(429.74 991.39) rotate(-63.69)"/><line class="cls-12" x1="1079.1" y1="99.43" x2="1092.57" y2="72.2"/><rect class="cls-10" x="1092.65" y="182.95" width="30.37" height="1.15" transform="translate(430.19 997.47) rotate(-63.68)"/><rect class="cls-13" x="1025.59" y="152.06" width="40.37" height="1.51" transform="translate(423.07 924.69) rotate(-63.68)"/><rect class="cls-13" x="991.26" y="135.08" width="40.37" height="1.51" transform="translate(419.19 884.47) rotate(-63.68)"/><rect class="cls-13" x="955.56" y="117.42" width="40.37" height="1.51" transform="translate(415.15 842.64) rotate(-63.68)"/><rect class="cls-13" x="1059.92" y="169.05" width="40.38" height="1.51" transform="translate(426.96 964.91) rotate(-63.68)"/><rect class="cls-13" x="1096.13" y="186.96" width="40.37" height="1.51" transform="translate(431.06 1007.33) rotate(-63.68)"/><path class="cls-10" d="M1159.25,224.7a49.84,49.84,0,0,1-3.2,5.53l9.64,4.77,19.21-38.84-26.13-12.93C1165.77,194.22,1166.43,210.17,1159.25,224.7Z" transform="translate(-22 -97.71)"/><path class="cls-14" d="M1120.39,212.59l35.66,17.64a49.84,49.84,0,0,0,3.2-5.53c7.18-14.53,6.52-30.48-.48-41.47l-19.16-9.48Z" transform="translate(-22 -97.71)"/><path class="cls-9" d="M1113.18,211.79l-4.28,8.65a46.22,46.22,0,0,1,7.49,2.92c22.74,11.25,28.68,29,25.41,45.42-3.49,17.5-10.06,28.64-18.11,35.22a34.63,34.63,0,0,1-7.45,4.67l12.09,6,2.34,1.16a2.45,2.45,0,0,0,3.29-1.11l7.09-14.34a40.9,40.9,0,0,0,23.13-46.75l6.58-13.29a2.52,2.52,0,0,0-1.14-3.37l-3.93-1.95-9.64-4.77-35.66-17.64-3.89-1.92A2.47,2.47,0,0,0,1113.18,211.79Z" transform="translate(-22 -97.71)"/><path class="cls-10" d="M1120.1,306.58l-.14.09Z" transform="translate(-22 -97.71)"/><path class="cls-10" d="M1118.21,307.69l-.15.07Z" transform="translate(-22 -97.71)"/><path class="cls-10" d="M1121.93,305.35l-.08.06Z" transform="translate(-22 -97.71)"/><path class="cls-10" d="M1098.36,350.65c-5.69,11.5-13.67,20.68-22.34,26.64l3.26,1.62a15.48,15.48,0,0,0,20.73-7l28.32-57.25-12.09-6-13.31-6.58C1108.16,315.09,1106.92,333.34,1098.36,350.65Z" transform="translate(-22 -97.71)"/><path class="cls-14" d="M1102.93,302.09,1080.58,291l-28.29,57.17a15.56,15.56,0,0,0,7,20.84l16.69,8.25c8.67-6,16.65-15.14,22.34-26.64C1106.92,333.34,1108.16,315.09,1102.93,302.09Z" transform="translate(-22 -97.71)"/><path class="cls-14" d="M1120,306.67c-.58.36-1.16.7-1.75,1C1118.8,307.37,1119.38,307,1120,306.67Z" transform="translate(-22 -97.71)"/><path class="cls-14" d="M1121.85,305.41c-.58.41-1.16.8-1.75,1.17C1120.69,306.21,1121.27,305.82,1121.85,305.41Z" transform="translate(-22 -97.71)"/><path class="cls-14" d="M1118.06,307.76c-.6.33-1.21.63-1.82.91C1116.85,308.39,1117.46,308.09,1118.06,307.76Z" transform="translate(-22 -97.71)"/><path class="cls-14" d="M1108.9,220.44l-2.79,5.64a40.33,40.33,0,0,0-6.35,3.84,41,41,0,0,0-16.64,33.36,41.62,41.62,0,0,0,.81,7.64l-7.55,15.24a2.52,2.52,0,0,0,1.14,3.36l3.06,1.51,22.35,11.06,13.31,6.58c.61-.28,1.22-.58,1.82-.91l.15-.07c.59-.32,1.17-.66,1.75-1l.14-.09c.59-.37,1.17-.76,1.75-1.17l.08-.06c.58-.41,1.14-.85,1.71-1.31h0l0,0h0c8-6.58,14.62-17.71,18.11-35.22,3.27-16.45-2.67-34.17-25.41-45.42A46.22,46.22,0,0,0,1108.9,220.44Z" transform="translate(-22 -97.71)"/><rect class="cls-15" x="1140" y="195.41" width="2.37" height="64.26" transform="translate(409.36 1051.91) rotate(-63.69)"/><path class="cls-10" d="M1148.84,295.79l6.68,3.3a4.69,4.69,0,0,0,6.28-2.12l12.37-25a4.68,4.68,0,0,0-2.12-6.28l-6.78-3.36a41,41,0,0,1-16.43,33.47Z" transform="translate(-22 -97.71)"/><polygon class="cls-15" points="1118.79 59.37 1118.58 62.31 1173.28 89.37 1175.5 87.42 1118.79 59.37"/><polygon class="cls-9" points="1117.61 76.04 1162.9 98.45 1173.28 89.37 1118.58 62.31 1117.61 76.04"/><rect class="cls-15" x="1104.67" y="266.83" width="2.37" height="64.26" transform="translate(325.65 1059.99) rotate(-63.69)"/><path class="cls-11" d="M1102.41,268.78a123.6,123.6,0,0,1,5.56-13.09,121.58,121.58,0,0,1,7-12.39,101.53,101.53,0,0,1,7.47-10.13q1.47-1.74,2.82-3.18a32.92,32.92,0,0,0-20.55,6.44,32.85,32.85,0,0,0-13.31,26.68,33,33,0,0,0,7,20c.14-.73.3-1.49.47-2.27A103.39,103.39,0,0,1,1102.41,268.78Z" transform="translate(-22 -97.71)"/><path class="cls-11" d="M1144.56,257.94a125.4,125.4,0,0,1-12.63,25.45,102.9,102.9,0,0,1-7.48,10.12c-.63.75-1.25,1.46-1.85,2.12A32.85,32.85,0,0,0,1149,241.2c-.23,1.43-.52,3-.89,4.66A101.16,101.16,0,0,1,1144.56,257.94Z" transform="translate(-22 -97.71)"/><path class="cls-16" d="M1098.43,283.14c-.52,2.68-.83,5-1,6.78-.21,2.26-.19,3.62-.19,3.62l18.15,9a35.51,35.51,0,0,0,2.76-2.35c1.23-1.13,2.76-2.67,4.45-4.54a32.82,32.82,0,0,1-24.17-12.49Z" transform="translate(-22 -97.71)"/><path class="cls-16" d="M1128.75,226.52c-1,.9-2.18,2.08-3.49,3.47A32.88,32.88,0,0,1,1149,241.2c.27-1.68.46-3.17.57-4.39a33.76,33.76,0,0,0,.19-3.62l-18.23-9A35.51,35.51,0,0,0,1128.75,226.52Z" transform="translate(-22 -97.71)"/><path class="cls-17" d="M1125.26,230q-1.35,1.44-2.82,3.18A101.53,101.53,0,0,0,1115,243.3a121.58,121.58,0,0,0-7,12.39,123.6,123.6,0,0,0-5.56,13.09,103.39,103.39,0,0,0-3.51,12.09c-.17.78-.33,1.54-.47,2.27a32.82,32.82,0,0,0,24.17,12.49c.6-.66,1.22-1.37,1.85-2.12a102.9,102.9,0,0,0,7.48-10.12,125.4,125.4,0,0,0,12.63-25.45,101.16,101.16,0,0,0,3.53-12.08c.37-1.67.66-3.23.89-4.66A32.88,32.88,0,0,0,1125.26,230Z" transform="translate(-22 -97.71)"/><path class="cls-16" d="M1119.05,272.29a10.79,10.79,0,1,1,14.45-4.89A10.79,10.79,0,0,1,1119.05,272.29Z" transform="translate(-22 -97.71)"/><path class="cls-8" d="M1121.32,267.7a5.67,5.67,0,1,1,7.59-2.57A5.67,5.67,0,0,1,1121.32,267.7Z" transform="translate(-22 -97.71)"/><path class="cls-18" d="M1121.87,266.6a4.44,4.44,0,1,1,5.94-2A4.44,4.44,0,0,1,1121.87,266.6Z" transform="translate(-22 -97.71)"/><path class="cls-17" d="M1174.62,276.77l-8.84,17.86a2.05,2.05,0,0,1-2.76.93l-.43-.21,10.78-21.78.16.08A2.32,2.32,0,0,1,1174.62,276.77Z" transform="translate(-22 -97.71)"/><rect class="cls-19" x="1141.84" y="180.16" width="20.57" height="50.54" transform="translate(435.13 1049.31) rotate(-63.68)"/><rect class="cls-13" x="1148.34" y="185.08" width="2.59" height="50.61" transform="translate(429.38 1049.89) rotate(-63.68)"/><rect class="cls-13" x="1153.3" y="175.04" width="2.59" height="50.61" transform="translate(440.96 1048.62) rotate(-63.67)"/><path class="cls-16" d="M1074.81,383.3h0a8.69,8.69,0,0,1-11.65,3.94l-2.16-1.07a8.7,8.7,0,0,1-3.94-11.65h0Z" transform="translate(-22 -97.71)"/><path class="cls-8" d="M1125.22,316.8l-28.54,57.7-2.6-1.29,28.55-57.7Zm-5.19-2.57-28.54,57.7-2.59-1.28,28.54-57.7Zm-5.18-2.57-28.55,57.7-2.59-1.28,28.54-57.7Zm-5.19-2.56-28.55,57.7-2.59-1.29,28.54-57.7Zm-5.19-2.57-28.55,57.7-2.59-1.28,28.54-57.7Zm-5.19-2.57-28.55,57.7-2.59-1.28,28.54-57.7Zm-5.19-2.56-28.55,57.69-2.59-1.28,28.55-57.7Zm-5.19-2.57-28.54,57.7-2.6-1.29,28.55-57.7Zm-5.19-2.57L1055.17,354l-2.6-1.28,28.55-57.7Z" transform="translate(-22 -97.71)"/><path class="cls-8" d="M1169.74,225.62l-4.53,9.15-2.59-1.29,4.52-9.14Zm-5.19-2.57L1160,232.2l-2.59-1.28,4.52-9.15Zm-5.19-2.56-4.53,9.14-2.59-1.28,4.52-9.15Zm-5.19-2.57-4.53,9.15-2.59-1.29,4.53-9.15Zm-5.19-2.57-4.52,9.15-2.6-1.28,4.53-9.15Zm-5.19-2.57-4.52,9.15-2.6-1.28,4.53-9.15Zm-5.19-2.56-4.52,9.14-2.6-1.28,4.53-9.15Zm-5.19-2.57-4.52,9.15-2.6-1.29,4.53-9.14Zm-5.18-2.57-4.53,9.15-2.59-1.28,4.52-9.15Z" transform="translate(-22 -97.71)"/><path class="cls-10" d="M1079.47,382.3h0a3,3,0,0,1-4,1.34L1057,374.47a3,3,0,0,1-1.35-4h0a3,3,0,0,1,4-1.34l18.55,9.17A3,3,0,0,1,1079.47,382.3Z" transform="translate(-22 -97.71)"/><path class="cls-9" d="M1086.19,184.45c.9,1.24,3.24,1.09,5.22-.35s2.87-3.61,2-4.86-3.24-1.08-5.23.36S1085.29,183.21,1086.19,184.45Z" transform="translate(-22 -97.71)"/><rect class="cls-9" x="1072.05" y="208.17" width="39.37" height="0.94" transform="translate(775.5 1182.77) rotate(-85.47)"/><path class="cls-9" d="M1088.92,188.89c.81,1.3,3.15,1.32,5.24,0s3.12-3.4,2.31-4.7-3.15-1.32-5.24,0S1088.11,187.58,1088.92,188.89Z" transform="translate(-22 -97.71)"/><path class="cls-10" d="M1099.76,229.92l-6.79-3.37a4.61,4.61,0,0,0-6.16,2.08l-12.45,25.18a4.59,4.59,0,0,0,2.08,6.16l6.68,3.31a41,41,0,0,1,16.64-33.36Z" transform="translate(-22 -97.71)"/><path class="cls-17" d="M1086,230.33l-10.77,21.79,0,0a2.5,2.5,0,0,1-1.13-3.36l8.54-17.28a2.53,2.53,0,0,1,3.37-1.14Z" transform="translate(-22 -97.71)"/><rect class="cls-9" x="1085.07" y="211.07" width="39.37" height="0.94" transform="translate(542.7 1100.54) rotate(-72.15)"/><path class="cls-9" d="M1106.56,191.68c.48,1.45,2.76,2,5.09,1.23s3.81-2.59,3.33-4-2.77-2-5.09-1.23S1106.07,190.22,1106.56,191.68Z" transform="translate(-22 -97.71)"/><rect class="cls-11" x="1238.28" y="174.56" width="40.37" height="166.97" transform="translate(447.14 1173.89) rotate(-63.68)"/><rect class="cls-12" x="1191.79" y="214.89" width="30.37" height="35.36" transform="translate(441.32 1113.57) rotate(-63.68)"/><path class="cls-10" d="M1230.5,226.48,1216.41,255l-33-16.3,14.09-28.49Zm-14.73,26.6,12.85-26-30.44-15.05-12.84,26Z" transform="translate(-22 -97.71)"/><line class="cls-12" x1="1205.31" y1="133.63" x2="1173.61" y2="117.95"/><rect class="cls-10" x="1210.75" y="205.81" width="1.42" height="35.36" transform="translate(451.94 1112.53) rotate(-63.68)"/><line class="cls-12" x1="1203.07" y1="138.16" x2="1171.37" y2="122.48"/><rect class="cls-10" x="1208.51" y="210.35" width="1.42" height="35.36" transform="translate(446.64 1113.05) rotate(-63.68)"/><line class="cls-12" x1="1200.82" y1="142.7" x2="1169.12" y2="127.02"/><rect class="cls-10" x="1206.26" y="214.89" width="1.42" height="35.36" transform="translate(441.31 1113.56) rotate(-63.68)"/><line class="cls-12" x1="1198.58" y1="147.24" x2="1166.88" y2="131.56"/><rect class="cls-10" x="1204.02" y="219.42" width="1.42" height="35.36" transform="translate(435.99 1114.07) rotate(-63.68)"/><line class="cls-12" x1="1196.33" y1="151.78" x2="1164.64" y2="136.09"/><rect class="cls-10" x="1201.77" y="223.96" width="1.42" height="35.36" transform="translate(430.68 1114.59) rotate(-63.68)"/><line class="cls-12" x1="1167.67" y1="143.25" x2="1181.14" y2="116.02"/><rect class="cls-10" x="1181.22" y="226.76" width="30.37" height="1.15" transform="translate(440.38 1101.38) rotate(-63.69)"/><line class="cls-12" x1="1172.96" y1="145.86" x2="1186.42" y2="118.64"/><rect class="cls-10" x="1186.51" y="229.38" width="30.37" height="1.15" transform="translate(441 1107.58) rotate(-63.69)"/><line class="cls-12" x1="1178.24" y1="148.47" x2="1191.71" y2="121.25"/><rect class="cls-10" x="1191.79" y="231.99" width="30.37" height="1.15" transform="translate(441.57 1113.76) rotate(-63.69)"/><line class="cls-12" x1="1183.52" y1="151.09" x2="1196.99" y2="123.86"/><rect class="cls-10" x="1197.07" y="234.6" width="30.37" height="1.15" transform="translate(442.18 1119.95) rotate(-63.69)"/><line class="cls-12" x1="1188.81" y1="153.7" x2="1202.27" y2="126.48"/><rect class="cls-10" x="1202.36" y="237.22" width="30.37" height="1.15" transform="translate(442.8 1126.16) rotate(-63.69)"/><rect class="cls-12" x="1226.13" y="231.87" width="30.37" height="35.36" transform="translate(445.2 1153.79) rotate(-63.68)"/><path class="cls-10" d="M1264.84,243.47,1250.75,272l-33-16.31,14.09-28.48Zm-14.73,26.6,12.84-26-30.43-15-12.85,26Z" transform="translate(-22 -97.71)"/><line class="cls-12" x1="1239.65" y1="150.61" x2="1207.95" y2="134.93"/><rect class="cls-10" x="1245.09" y="222.8" width="1.42" height="35.36" transform="translate(455.83 1152.76) rotate(-63.68)"/><line class="cls-12" x1="1237.41" y1="155.15" x2="1205.71" y2="139.47"/><rect class="cls-10" x="1242.85" y="227.34" width="1.42" height="35.36" transform="translate(450.51 1153.27) rotate(-63.68)"/><line class="cls-12" x1="1235.16" y1="159.69" x2="1203.46" y2="144.01"/><rect class="cls-10" x="1240.6" y="231.87" width="1.42" height="35.36" transform="translate(445.22 1153.81) rotate(-63.68)"/><line class="cls-12" x1="1232.92" y1="164.23" x2="1201.22" y2="148.55"/><rect class="cls-10" x="1238.36" y="236.41" width="1.42" height="35.36" transform="translate(439.9 1154.31) rotate(-63.68)"/><line class="cls-12" x1="1230.67" y1="168.76" x2="1198.97" y2="153.08"/><rect class="cls-10" x="1236.11" y="240.95" width="1.42" height="35.36" transform="translate(434.58 1154.83) rotate(-63.68)"/><line class="cls-12" x1="1202.01" y1="160.23" x2="1215.48" y2="133.01"/><rect class="cls-10" x="1215.56" y="243.75" width="30.37" height="1.15" transform="translate(443.93 1141.36) rotate(-63.67)"/><line class="cls-12" x1="1207.29" y1="162.85" x2="1220.76" y2="135.62"/><rect class="cls-10" x="1220.85" y="246.37" width="30.37" height="1.15" transform="translate(444.34 1147.4) rotate(-63.66)"/><line class="cls-12" x1="1212.58" y1="165.46" x2="1226.05" y2="138.24"/><rect class="cls-10" x="1226.13" y="248.98" width="30.37" height="1.15" transform="translate(444.97 1153.61) rotate(-63.66)"/><line class="cls-12" x1="1217.86" y1="168.07" x2="1231.33" y2="140.85"/><rect class="cls-10" x="1231.41" y="251.59" width="30.37" height="1.15" transform="translate(445.55 1159.79) rotate(-63.66)"/><line class="cls-12" x1="1223.14" y1="170.69" x2="1236.61" y2="143.46"/><rect class="cls-10" x="1236.69" y="254.21" width="30.37" height="1.15" transform="translate(446.67 1166.38) rotate(-63.69)"/><rect class="cls-12" x="1260.44" y="248.85" width="30.37" height="35.36" transform="translate(449.09 1194) rotate(-63.68)"/><path class="cls-10" d="M1299.15,260.44l-14.09,28.48-33-16.3,14.09-28.49ZM1284.42,287l12.84-26L1266.83,246,1254,272Z" transform="translate(-22 -97.71)"/><line class="cls-12" x1="1273.96" y1="167.59" x2="1242.26" y2="151.91"/><rect class="cls-10" x="1279.4" y="239.77" width="1.42" height="35.36" transform="translate(459.7 1192.95) rotate(-63.68)"/><line class="cls-12" x1="1271.71" y1="172.13" x2="1240.02" y2="156.45"/><rect class="cls-10" x="1277.16" y="244.31" width="1.42" height="35.36" transform="translate(454.39 1193.47) rotate(-63.68)"/><line class="cls-12" x1="1269.47" y1="176.66" x2="1237.77" y2="160.98"/><rect class="cls-10" x="1274.91" y="248.85" width="1.42" height="35.36" transform="translate(449.08 1193.99) rotate(-63.68)"/><line class="cls-12" x1="1267.23" y1="181.2" x2="1235.53" y2="165.52"/><rect class="cls-10" x="1272.67" y="253.38" width="1.42" height="35.36" transform="translate(443.77 1194.51) rotate(-63.68)"/><line class="cls-12" x1="1264.98" y1="185.74" x2="1233.28" y2="170.06"/><rect class="cls-10" x="1270.42" y="257.92" width="1.42" height="35.36" transform="translate(438.47 1195.03) rotate(-63.68)"/><line class="cls-12" x1="1236.32" y1="177.21" x2="1249.79" y2="149.98"/><rect class="cls-10" x="1249.87" y="260.73" width="30.37" height="1.15" transform="translate(448.16 1181.83) rotate(-63.69)"/><line class="cls-12" x1="1241.6" y1="179.82" x2="1255.07" y2="152.6"/><rect class="cls-10" x="1255.16" y="263.34" width="30.37" height="1.15" transform="translate(448.59 1187.88) rotate(-63.68)"/><line class="cls-12" x1="1246.89" y1="182.43" x2="1260.36" y2="155.21"/><rect class="cls-10" x="1260.44" y="265.95" width="30.37" height="1.15" transform="translate(449.36 1194.21) rotate(-63.69)"/><line class="cls-12" x1="1252.17" y1="185.05" x2="1265.64" y2="157.82"/><rect class="cls-10" x="1265.72" y="268.57" width="30.37" height="1.15" transform="translate(449.98 1200.42) rotate(-63.69)"/><line class="cls-12" x1="1257.45" y1="187.66" x2="1270.92" y2="160.44"/><rect class="cls-10" x="1271" y="271.18" width="30.37" height="1.15" transform="translate(450.47 1206.52) rotate(-63.69)"/><rect class="cls-12" x="1294.78" y="265.84" width="30.37" height="35.36" transform="translate(452.96 1234.23) rotate(-63.68)"/><path class="cls-10" d="M1333.49,277.43l-14.09,28.48-33-16.3,14.09-28.49ZM1318.76,304l12.85-26L1301.17,263l-12.84,26Z" transform="translate(-22 -97.71)"/><line class="cls-12" x1="1308.3" y1="184.58" x2="1276.61" y2="168.9"/><rect class="cls-10" x="1313.74" y="256.76" width="1.42" height="35.36" transform="translate(463.61 1233.21) rotate(-63.68)"/><line class="cls-12" x1="1306.06" y1="189.12" x2="1274.36" y2="173.44"/><rect class="cls-10" x="1311.5" y="261.3" width="1.42" height="35.36" transform="translate(458.3 1233.73) rotate(-63.68)"/><line class="cls-12" x1="1303.81" y1="193.65" x2="1272.12" y2="177.97"/><rect class="cls-10" x="1309.26" y="265.84" width="1.42" height="35.36" transform="translate(452.98 1234.24) rotate(-63.68)"/><line class="cls-12" x1="1301.57" y1="198.19" x2="1269.87" y2="182.51"/><rect class="cls-10" x="1307.01" y="270.37" width="1.42" height="35.36" transform="translate(447.64 1234.74) rotate(-63.68)"/><line class="cls-12" x1="1299.32" y1="202.73" x2="1267.63" y2="187.05"/><rect class="cls-10" x="1304.77" y="274.91" width="1.42" height="35.36" transform="translate(442.33 1235.25) rotate(-63.68)"/><line class="cls-12" x1="1270.66" y1="194.2" x2="1284.13" y2="166.97"/><rect class="cls-10" x="1284.22" y="277.72" width="30.37" height="1.15" transform="translate(451.7 1221.79) rotate(-63.67)"/><line class="cls-12" x1="1275.95" y1="196.81" x2="1289.42" y2="169.59"/><rect class="cls-10" x="1289.5" y="280.33" width="30.37" height="1.15" transform="translate(452.45 1228.11) rotate(-63.68)"/><line class="cls-12" x1="1281.23" y1="199.43" x2="1294.7" y2="172.2"/><rect class="cls-10" x="1294.78" y="282.94" width="30.37" height="1.15" transform="translate(453.25 1234.46) rotate(-63.69)"/><line class="cls-12" x1="1286.51" y1="202.04" x2="1299.98" y2="174.82"/><rect class="cls-10" x="1300.06" y="285.56" width="30.37" height="1.15" transform="translate(453.31 1240.22) rotate(-63.66)"/><line class="cls-12" x1="1291.8" y1="204.65" x2="1305.26" y2="177.43"/><rect class="cls-10" x="1305.35" y="288.17" width="30.37" height="1.15" transform="translate(454.45 1246.84) rotate(-63.69)"/><rect class="cls-13" x="1238.28" y="257.29" width="40.37" height="1.51" transform="translate(447.14 1173.89) rotate(-63.68)"/><rect class="cls-13" x="1203.96" y="240.31" width="40.37" height="1.51" transform="translate(443.26 1133.67) rotate(-63.68)"/><rect class="cls-13" x="1168.26" y="222.65" width="40.37" height="1.51" transform="translate(439.22 1091.84) rotate(-63.68)"/><rect class="cls-13" x="1272.61" y="274.27" width="40.37" height="1.51" transform="translate(451.03 1214.11) rotate(-63.68)"/><path class="cls-9" d="M1319.34,299.91c.48,1.45,2.76,2,5.09,1.23s3.81-2.58,3.33-4-2.77-2-5.09-1.23S1318.85,298.45,1319.34,299.91Z" transform="translate(-22 -97.71)"/><path class="cls-9" d="M1105.34,186.22c.48,1.46,2.76,2,5.09,1.24s3.81-2.59,3.33-4.05-2.77-2-5.09-1.23S1104.85,184.77,1105.34,186.22Z" transform="translate(-22 -97.71)"/><rect class="cls-15" x="1175.74" y="213.88" width="6.95" height="9.9" transform="translate(438.19 1081.04) rotate(-63.68)"/><rect class="cls-15" x="1121.57" y="187.08" width="6.95" height="9.9" transform="translate(432.08 1017.58) rotate(-63.68)"/></svg>