<svg xmlns="http://www.w3.org/2000/svg" viewBox="0 0 512 510.36"><defs><style>.cls-1{fill:#e3f3f2;}.cls-2{fill:#cae8e6;}.cls-3{fill:#b3dedc;}.cls-4{fill:#74c3be;}.cls-5{fill:#66bcb7;}.cls-6{fill:#95d1ce;}.cls-7{fill:#83c9c5;}.cls-8{fill:#d7eeed;}.cls-9{fill:#c5e6e4;}.cls-10{fill:#d1ebe9;}.cls-11{fill:#9ad3d0;}.cls-12{fill:#5ab7b2;}</style></defs><title>design</title><g id="Layer_2" data-name="Layer 2"><g id="Capa_1" data-name="Capa 1"><path class="cls-1" d="M7.55,111.15s.72,259.7,0,287.56a49.4,49.4,0,0,0,49.38,48.05H304.71L469.15,282.32V111.15Z"/><path class="cls-2" d="M248.63,502.84H504.48V247Zm201.53-53.27H368l82.13-82.13Z"/><polygon class="cls-3" points="479.44 272.04 479.44 502.84 504.48 502.84 504.48 246.99 479.44 272.04"/><path class="cls-4" d="M447.26,35.38,423.91,12a15.41,15.41,0,0,0-21.78,0L381.92,32.23l45.13,45.13,20.21-20.2A15.41,15.41,0,0,0,447.26,35.38Z"/><path class="cls-5" d="M447.26,35.38l-15.05-15a15.38,15.38,0,0,1,0,21.77L412,62.32l15,15,20.21-20.2A15.41,15.41,0,0,0,447.26,35.38Z"/><rect class="cls-6" x="375.01" y="35.09" width="34.53" height="63.82" transform="translate(67.52 297) rotate(-45)"/><rect class="cls-7" x="390.06" y="71.41" width="34.53" height="21.27" transform="translate(61.29 312.05) rotate(-45)"/><polygon class="cls-8" points="166.67 292.62 236.35 268.02 191.26 222.94 166.67 292.62"/><polygon class="cls-9" points="221.36 253.03 174.85 269.44 166.67 292.62 236.35 268.02 221.36 253.03"/><rect class="cls-10" x="179.43" y="130.41" width="235.05" height="63.82" transform="translate(-27.81 257.53) rotate(-45)"/><rect class="cls-3" x="194.48" y="166.75" width="235.05" height="21.25" transform="translate(-34.04 272.58) rotate(-45)"/><path class="cls-11" d="M59.1,348.48V29.29A51.59,51.59,0,0,0,7.51,80.88V400.07A51.59,51.59,0,0,1,59.1,348.48Z"/><polygon class="cls-2" points="138.61 292.62 166.67 292.62 191.29 222.86 303 111.15 274.95 111.15 163.24 222.86 138.61 292.62"/><polygon class="cls-2" points="444.1 111.15 444.1 307.37 469.15 282.32 469.15 111.15 444.1 111.15"/><polygon class="cls-12" points="166.67 292.62 199.19 281.14 178.15 260.1 166.67 292.62"/><path d="M453,360.5a7.52,7.52,0,0,0-8.19,1.63l-82.12,82.13A7.51,7.51,0,0,0,368,457.08h82.13a7.51,7.51,0,0,0,7.51-7.51V367.44A7.52,7.52,0,0,0,453,360.5Zm-10.39,81.56H386.17l56.47-56.47v56.47Z"/><path d="M507.36,240.05a7.5,7.5,0,0,0-8.19,1.63l-22.51,22.5v-153a7.51,7.51,0,0,0-7.51-7.51H411.41l21-21h0l20.19-20.2a22.92,22.92,0,0,0,0-32.41L429.22,6.71a22.92,22.92,0,0,0-32.41,0l-20.2,20.21L352.19,51.33l-52.3,52.31H66.62V29.29a7.51,7.51,0,0,0-7.51-7.51A59.17,59.17,0,0,0,0,80.88V400.07a7.16,7.16,0,0,0,.18,1.61,56.93,56.93,0,0,0,56.75,52.6H286.57l-43.25,43.25a7.52,7.52,0,0,0,5.31,12.83H504.48a7.52,7.52,0,0,0,7.52-7.52V247A7.51,7.51,0,0,0,507.36,240.05ZM381.92,42.86l34.51,34.5L402.64,91.15l-34.5-34.5Zm25.52-25.52a7.9,7.9,0,0,1,11.15,0L442,40.69a7.9,7.9,0,0,1,0,11.15l-14.89,14.9L392.55,32.23Zm-140.67,478L310,452.09h0l19.22-19.22,13.44-13.44a7.53,7.53,0,0,0,0-10.63,8.15,8.15,0,0,0-1.08-.88,7.51,7.51,0,0,0-9.55.88l-30.46,30.46H56.93a41.65,41.65,0,0,1-41.86-40.54c0-1.43.15-2.85.33-4.25v0c.09-.67.19-1.33.3-2,0-.07,0-.15,0-.22.11-.59.22-1.17.35-1.75l.12-.49q.16-.74.36-1.47c.08-.26.15-.52.23-.79s.22-.76.34-1.14.25-.75.38-1.12.19-.52.28-.78c.19-.49.38-1,.58-1.46l.17-.42c.26-.6.53-1.19.81-1.78l0-.07a44.24,44.24,0,0,1,30.75-24l.12,0c.62-.12,1.25-.23,1.88-.33l.32-.06,1.72-.22.49-.06c.55,0,1.12-.09,1.68-.12l.53,0Q58,356,59.1,356a7.51,7.51,0,0,0,7.52-7.51V294a7.52,7.52,0,1,0-15,0v47.44a58.75,58.75,0,0,0-33.76,16.34c-1,1-1.9,2-2.8,3V80.88A44.14,44.14,0,0,1,51.59,37.45V263.93h0a7.52,7.52,0,0,0,15,0h0V118.67H284.86l-41.54,41.54a7.51,7.51,0,0,0,10.62,10.63l54.38-54.37h0l49.19-49.18,34.5,34.5-4.05,4h0L236.42,257.37l-34.5-34.51L231.79,193a7.52,7.52,0,0,0-10.63-10.63L186,217.55a7.23,7.23,0,0,0-.53.59l-.16.21-.31.43-.15.27a4.49,4.49,0,0,0-.24.42c-.05.1-.09.19-.13.29s-.13.3-.19.45a.94.94,0,0,0-.06.15l-14.65,41.48-10,28.28a8.68,8.68,0,0,0-.3,1.14h-25a7.52,7.52,0,0,0,0,15H342.41a7.52,7.52,0,0,0,0-15H193.09l45.83-16.18L239,275l.52-.21.21-.1.53-.29a1,1,0,0,1,.17-.1L241,274l.13-.1a7.7,7.7,0,0,0,.6-.54L396.38,118.67h65.25V279.21L354.14,386.71a7.51,7.51,0,0,0,0,10.63,6.91,6.91,0,0,0,.57.51,7.49,7.49,0,0,0,9.48,0c.2-.16.39-.33.58-.51l109.69-109.7h0l22.5-22.5v66.3H483.11a7.52,7.52,0,1,0,0,15H497v22.65H483.11a7.52,7.52,0,1,0,0,15H497v22.64H483.11a7.52,7.52,0,1,0,0,15H497v22.65H483.11a7.52,7.52,0,1,0,0,15H497v35.84ZM201.15,272.48l-14.34-14.35,7.6-21.52,28.27,28.27Z"/></g></g></svg>