<svg id="Layer_1" data-name="Layer 1" xmlns="http://www.w3.org/2000/svg" viewBox="0 0 512 510"><defs><style>.cls-1{fill:#bfe6de;}.cls-2{fill:#a6dbd2;}.cls-3{fill:#8fd1c8;}.cls-4{fill:#50b6aa;}.cls-5{fill:#42afa3;}.cls-6{fill:#71c4ba;}.cls-7{fill:#5fbcb1;}.cls-8{fill:#b3e1d9;}.cls-9{fill:#a1d9d0;}.cls-10{fill:#added5;}.cls-11{fill:#76c6bc;}.cls-12{fill:#36aa9e;}</style></defs><title>design</title><g id="Layer_2" data-name="Layer 2"><g id="Capa_1" data-name="Capa 1"><path class="cls-1" d="M7.55,111.15s.72,259.7,0,287.56a49.39,49.39,0,0,0,49.38,48.05H304.71L469.15,282.32V111.15Z"/><path class="cls-2" d="M248.63,502.84H504.48V247Zm201.53-53.27H368l82.13-82.13Z"/><polygon class="cls-3" points="479.44 272.04 479.44 502.84 504.48 502.84 504.48 246.99 479.44 272.04"/><path class="cls-4" d="M447.26,35.38,423.91,12a15.41,15.41,0,0,0-21.78,0L381.92,32.23l45.13,45.13,20.21-20.2A15.41,15.41,0,0,0,447.26,35.38Z"/><path class="cls-5" d="M447.26,35.38l-15.05-15a15.38,15.38,0,0,1,0,21.75l0,0L412,62.32l15,15,20.21-20.2A15.41,15.41,0,0,0,447.26,35.38Z"/><rect class="cls-6" x="375.01" y="35.09" width="34.53" height="63.82" transform="translate(67.52 297) rotate(-45)"/><rect class="cls-7" x="390.06" y="71.41" width="34.53" height="21.27" transform="translate(61.29 312.05) rotate(-45)"/><polygon class="cls-8" points="166.67 292.62 236.35 268.02 191.26 222.94 166.67 292.62"/><polygon class="cls-9" points="221.36 253.03 174.85 269.44 166.67 292.62 236.35 268.02 221.36 253.03"/><rect class="cls-10" x="179.42" y="130.42" width="235.05" height="63.82" transform="translate(-27.81 257.52) rotate(-45)"/><rect class="cls-3" x="194.48" y="166.76" width="235.05" height="21.25" transform="translate(-34.04 272.57) rotate(-45)"/><path class="cls-11" d="M59.1,348.48V29.29A51.59,51.59,0,0,0,7.51,80.88V400.07A51.59,51.59,0,0,1,59.1,348.48Z"/><polygon class="cls-2" points="138.61 292.62 166.67 292.62 191.29 222.86 303 111.15 274.95 111.15 163.24 222.86 138.61 292.62"/><polygon class="cls-2" points="444.1 111.15 444.1 307.37 469.15 282.32 469.15 111.15 444.1 111.15"/><polygon class="cls-12" points="166.67 292.62 199.19 281.14 178.15 260.1 166.67 292.62"/></g></g></svg>