<svg xmlns="http://www.w3.org/2000/svg" xmlns:xlink="http://www.w3.org/1999/xlink" viewBox="0 0 397.72 397.72"><defs><style>.cls-1{mask:url(#mask);filter:url(#luminosity-noclip-2);}.cls-2{mix-blend-mode:multiply;fill:url(#radial-gradient);}.cls-3{mask:url(#mask-2);}.cls-4{fill:url(#radial-gradient-2);}.cls-5{fill:#00b3a9;}.cls-6{fill:#85cbc6;}.cls-7{filter:url(#luminosity-noclip);}</style><filter id="luminosity-noclip" x="0" y="-8391.26" width="397.72" height="32766" filterUnits="userSpaceOnUse" color-interpolation-filters="sRGB"><feFlood flood-color="#fff" result="bg"/><feBlend in="SourceGraphic" in2="bg"/></filter><mask id="mask" x="0" y="-8391.26" width="397.72" height="32766" maskUnits="userSpaceOnUse"><g class="cls-7"/></mask><radialGradient id="radial-gradient" cx="198.86" cy="198.86" r="188.61" gradientTransform="translate(198.86 -82.37) rotate(45)" gradientUnits="userSpaceOnUse"><stop offset="0.39" stop-color="#fff"/><stop offset="0.45" stop-color="#f2f2f2"/><stop offset="0.55" stop-color="#cfcfcf"/><stop offset="0.69" stop-color="#969696"/><stop offset="0.86" stop-color="#484848"/><stop offset="1"/></radialGradient><filter id="luminosity-noclip-2" x="0" y="0" width="397.72" height="397.72" filterUnits="userSpaceOnUse" color-interpolation-filters="sRGB"><feFlood flood-color="#fff" result="bg"/><feBlend in="SourceGraphic" in2="bg"/></filter><mask id="mask-2" x="0" y="0" width="397.72" height="397.72" maskUnits="userSpaceOnUse"><g class="cls-1"><circle class="cls-2" cx="198.86" cy="198.86" r="198.86" transform="translate(-82.37 198.86) rotate(-45)"/></g></mask><radialGradient id="radial-gradient-2" cx="198.86" cy="198.86" r="188.61" gradientTransform="translate(198.86 -82.37) rotate(45)" gradientUnits="userSpaceOnUse"><stop offset="0.39" stop-color="#91cfca"/><stop offset="1" stop-color="#91cfca"/></radialGradient></defs><title>earth</title><g id="Layer_2" data-name="Layer 2"><g id="Modo_de_aislamiento" data-name="Modo de aislamiento"><g class="cls-3"><circle class="cls-4" cx="198.86" cy="198.86" r="198.86" transform="translate(-82.37 198.86) rotate(-45)"/></g><path class="cls-5" d="M353,196.16a155.7,155.7,0,1,1-155.7-155.7A155.69,155.69,0,0,1,353,196.16Z"/><path class="cls-6" d="M176.29,347.32c-.77-1.17-3.86-3.3-4.15-2.63s.43,1.34-.36,1.93,1.25,1.46,1.18,2.59,3.78,1.36,4.48.88,2.3.27,2.3.27C179.57,349.14,177.07,348.49,176.29,347.32Z"/><path class="cls-6" d="M178.22,224.91s-1.38,2-.87,1.76.15-.09.46,1.13,2.61.69,3,0a2.73,2.73,0,0,0,0-2.43C180.37,224.56,178.22,224.91,178.22,224.91Z"/><path class="cls-6" d="M188.26,105.55c.28-3.55-.82-2.62-.82-2.62-1.4.55-3.51-1.12-2.41-4-2.5.2-7.11,7.72-7.11,7.72h.26S188,109.09,188.26,105.55Z"/><path class="cls-6" d="M160.22,73.71c-1.38,2.09.62,1.86,1.13,1.74s.6-.89.6-.89c.3-1.77,2.87.55,3.3.74s.62-1.13.73-2.18-2-1.7-2.92-1.86S161.6,71.63,160.22,73.71Z"/><path class="cls-6" d="M154.27,67.78c-.15.66,2.91-1.77,2.91-1.77.06-.37.09-.56.14-.93a3.87,3.87,0,0,0-.72,0,13.41,13.41,0,0,0-1.65,0,4.21,4.21,0,0,0-1.45,1.28C152.72,67.32,154.43,67.12,154.27,67.78Z"/><path class="cls-6" d="M138.32,65.84c1.38.12,1.39.43,1.13.85s-1.66.58-1.66.58l-.25,1c1.49-.44,2.24-.65,3.75-1.06-.07.3-.11.45-.18.76-1.83.49-2.74.75-4.55,1.27a5.51,5.51,0,0,0,4.91,1.25c3.09-.63,2.5-2.29,4.11-2.52s2.28,1,4-.44,3.24-2.67,3.24-2.67-.77-1.33-1.4-1.19S153.16,60,153.16,60l-1.83.42-1.82,2.3-.3-1.79-1.68,1.45c-1.08-.14-1.61-.2-2.67-.31,0,0-1.56-5.16-11.83,5.19l.66,1.89S136.93,65.72,138.32,65.84Z"/><path class="cls-6" d="M92.37,102.88a4.33,4.33,0,0,0-1,1.7c0,.48.92-.77.92-.77s.52.47.92.24.28-.46.2-1-.74.32-.31-.45S92.73,102.4,92.37,102.88Z"/><path class="cls-6" d="M92.29,105.14a2.8,2.8,0,0,0-1.65,2.28l.83,0S93.82,104.52,92.29,105.14Z"/><path class="cls-6" d="M88.63,118.49s1.84-.17,1.69-.48,1.16-3.29-.57-3.68-2.6,2.32-2.6,2.32A1.86,1.86,0,0,0,88.63,118.49Z"/><path class="cls-6" d="M157.19,61.94s1.29.21,1.49-.15a1.65,1.65,0,0,1,1.26-1.1c2.17-.69,2.73-3.89,2.73-3.89L160,58.08l-.95.19s-.38,1.53-.86,1.71-.68-.45-.68-.45a12.52,12.52,0,0,0-1.63.12c0,.34,0,.51,0,.84C157.51,61.08,157.19,61.94,157.19,61.94Z"/><path class="cls-6" d="M164.9,57.91c.46-.48,2.08,0,2.08,0,.29-.81.44-1.22.74-2,0,0,0-.64-2.56.54s-2.29,2.94-2.29,2.94C164.43,59.52,164.43,58.39,164.9,57.91Z"/><path class="cls-6" d="M167.74,62.14a2.45,2.45,0,0,0,2.41-.17c.61-.61,3.26.33,3.26.33A2,2,0,0,0,175,62c.57-.51,2-2.64,2.56-1s4.72,6.08,4.72,6.08l-1.58,1.13s-1.39-1.31-1.86-1.07a5.18,5.18,0,0,0-2.94,3s0,0-1.81.07c-3.52.16-4.32,2.15-2.82,2.46a2.34,2.34,0,0,0,2.35-1.19s1.89.28,1.88,0c0,3.08,3.45,4.66,3.52,4.68a8.81,8.81,0,0,0,2.77,0c.32-.26,1.14-1.2,0-1.61s-1.84-1.56-.71-2.07,2,2.38,2.66,1.43.88-2,.33-4.2.9-2,.9-2l3.22,1.78s3.16-2.7,1.73-3.36-2.61-4.1-2.61-4.1c-.05-.59-.07-.88-.12-1.46-3.95-1.17-4.85-3.71-4.85-3.71l-2.22,1.16-2.89-2.52-1.66.2a1.08,1.08,0,0,1-1.48.87l-.71-.24c0-.29,0-.43.07-.72-3.14-.42-6.2,4.4-6.2,4.4S167.71,61.9,167.74,62.14Z"/><path class="cls-6" d="M173.64,54.55c1.8-.2,2.7-.28,4.52-.44,0,.23,0,.34-.07.56L180,54.5c2.33-1.48,1.9-2.4,1.9-2.4-2.54.28-3.81.44-6.32.79-5.11-3-5.6,1.76-5.6,1.76l3.69-.54Z"/><path class="cls-6" d="M178.19,47.76s.6-1.56,1.82-1.74.38-2-.68-2.16-5.12,1.64-4.69,3.62A26.93,26.93,0,0,0,178.19,47.76Z"/><path class="cls-6" d="M181.3,48.08c0,.33,0,.49-.06.82-2.09.19-3.12.3-5.19.54A13.84,13.84,0,0,0,177.5,51c.34.21,2.2-.56,2.2-.56a13.14,13.14,0,0,0,1.36-.31c.22-.1,1.63,1.27,1.63,1.27s1,.76,1.38-.32,8.47-5.51,8.47-5.51c4.63-1.78,11.54-1.81,11.6-5a138.38,138.38,0,0,0-20.47,2c0,.44,0,.67-.08,1.11,2.83-.06,4.25-.06,7.13,0-.42.47-.63.7-1,1.18h-.09c-.79,0-6.87.45-7,.46-1.15.1.44,2.29.44,2.29l-1.09.1c0-.31,0-.46.06-.77l-1.56.14-.28,1Z"/><path class="cls-6" d="M241.21,48.87a11.67,11.67,0,0,0-2.81-2c-3.8-1.21-5.71-1.77-9.57-2.76a120.63,120.63,0,0,0-13.31,0c-2,0-6.72-2.77-9.81-1.34-5.63,4.14-12.19,3.07-12.12,4.1,0,0-1.25,4.66,7.79,3.85,2.75-.25,3.09,6.3,3.09,6.3l1.14.67s-1,6.13-2.73,7.26,1.14-.74-.51,5.77,1.51,4.33,2.86,7.21,4.67.65,5,.18,4.74-8,5.49-7.84,5.61-.53,6.15-1.57,5.36-4.17,5.5-3.37,1.53,1.06,2.39,1,6.35-.72,6.48-1-1-1.71-1-1.71a6.23,6.23,0,0,0-1.78.19c-.4.21-1.54-.64-1.36-.88s1.09,0,1.14-.59-.5-1.12-.09-1.49,2.68,2.71,2.68,2.71,2.35.6,1.92-.45c-.32-.81-2.82-3.24-3.8-4,1.2.14,4.65-.76,5.06-1.29a18.59,18.59,0,0,0,1.45-3.93c.13-.62-.57-1.05-.57-1.05.4-.87.59-1.29,1-2.14,0,0-.5-.16,2.07.47s2.32-1.14,2.32-1.14S242.32,50.05,241.21,48.87Z"/><path class="cls-6" d="M242.52,72c-.58.26-2.24-.12-3.88-.25s-2.72,2.19-2.8,2.49c0,.12,0,.18,0,.31.49,1,4.13,2.08,4.58,2.38s5.92-1.32,5.41-2.63S243.1,71.72,242.52,72Z"/><path class="cls-6" d="M131,160.68l-.45,1.44,1.06,2.44,1-.05a2.7,2.7,0,0,1-.47-2.2c.24-1.4,1.41-1.1,1.41-1.1l-.22-1.14,1.72-.27c-.1-1.15-.14-1.72-.23-2.87l-3.44.19c-.07,1-.1,1.46-.17,2.44l.93-.05-.05,1.11Z"/><path class="cls-6" d="M136.29,164.85c.35,0,.65-.51.68-1.11s-.24-1.07-.59-1.05-.65.51-.68,1.1S135.94,164.86,136.29,164.85Z"/><path class="cls-6" d="M136.5,166.91c.52,0,.95-.31,1-.65s-.39-.59-.91-.57-.94.31-1,.65S136,166.93,136.5,166.91Z"/><path class="cls-6" d="M135.82,169.64a1.19,1.19,0,0,0,1.35,1.13,1.41,1.41,0,0,0,1.44-1.23,1.21,1.21,0,0,0-1.36-1.13A1.42,1.42,0,0,0,135.82,169.64Z"/><path class="cls-6" d="M137.15,174.13c-.1-1.27-4.05-3.5-6.56-5.19s-3-1.71-6.34-1.73a4.75,4.75,0,0,0-4.69,3.39l1.67.1a2.47,2.47,0,0,1,2.78-1.22,10.53,10.53,0,0,1,6.2,3.11s-1.74,2.57-.46,2.08,3.56.57,3.56.57S137.26,175.41,137.15,174.13Z"/><path class="cls-6" d="M128.31,179.54l1,.8,3.35-.26c-.13-.55,0-.93-1.43-1.83C128.35,176.64,128.31,179.54,128.31,179.54Z"/><path class="cls-6" d="M141.28,179.85c.55-.65,5.09-.23,5.16-1.85s-2.94-3-2.94-3-4.62-.41-5.06.13.43,2.61.43,2.61l-3.66.09c-.13.44-.2.65-.34,1.09l1.24.62s1.81.79,1.9,0,1.2-1,1.12-.67S140.73,180.51,141.28,179.85Z"/><path class="cls-6" d="M150.93,177.75a1.61,1.61,0,0,0-1.64-1,1.64,1.64,0,0,0-1.74,1.4,1.5,1.5,0,0,0,1.69,1.34,2.22,2.22,0,0,0,.69-.13,1.28,1.28,0,0,0,1.26,1.1,1.41,1.41,0,0,0,1.33-1.4,1.29,1.29,0,0,0-1.28-1.35A1.06,1.06,0,0,0,150.93,177.75Z"/><path class="cls-6" d="M154.45,179.28c.19.49.64.7,1,.46a1.16,1.16,0,0,0,.33-1.34.83.83,0,0,0-.52-.52h0a.59.59,0,0,0-.5-.65.63.63,0,0,0-.52.67.72.72,0,0,0,.2.52A1.3,1.3,0,0,0,154.45,179.28Z"/><path class="cls-6" d="M157.6,181.26a1.16,1.16,0,0,0,.33-1.34c-.19-.49-.64-.69-1-.45a1.16,1.16,0,0,0-.33,1.33C156.78,181.29,157.24,181.5,157.6,181.26Z"/><path class="cls-6" d="M160.8,188.27a3,3,0,0,0,.32-2.31c-.13-.6-.4-1-.67-1a1.34,1.34,0,0,0-.07-.27.75.75,0,0,0-.78-.55,1.28,1.28,0,0,0,0-1c-.19-.5-.64-.71-1-.46,0,0,0,0-.07.06a.75.75,0,0,0-.05-.16c-.19-.49-.64-.7-1-.45a1.16,1.16,0,0,0-.32,1.33c.19.5.64.7,1,.46l.07-.06c0,.05,0,.1.05.15a.73.73,0,0,0,.77.55,1.26,1.26,0,0,0,0,1,.78.78,0,0,0,.68.56,4.07,4.07,0,0,0,.05,1.3C160,188.32,160.43,188.68,160.8,188.27Z"/><path class="cls-6" d="M159.72,181.63a1.16,1.16,0,0,0,.32-1.34c-.19-.49-.64-.7-1-.45a1.14,1.14,0,0,0-.32,1.33C158.9,181.66,159.35,181.87,159.72,181.63Z"/><path class="cls-6" d="M155.35,182.73c.51.48,1,.45,1-.08a2.74,2.74,0,0,0-.85-1.84c-.5-.48-.94-.45-1,.08A2.77,2.77,0,0,0,155.35,182.73Z"/><path class="cls-6" d="M158.15,193.12h.94c0-.89,0-1.33,0-2.23h1c0-1,0-1.47,0-2.44h-1.12c0,.88,0,1.33,0,2.22H158c0,.9,0,1.34,0,2.24H157c0,1,0,1.46,0,2.44h1.13Z"/><path class="cls-6" d="M162.63,192.89c.11-.16,1.1,0,1.1,0l.23-1.36-1.58-.66A10.61,10.61,0,0,0,162.63,192.89Z"/><path class="cls-6" d="M199.12,233.34c-10.5-3.06-8.77-1.13-8.77-1.13s-1.92,2.41-2.15,1.57,2.68-4.82-3.65-6.56l-4.85,3.31s-1.14-1.88-2.61-1.71-2.85,1.73-2.94.89,3.17-5.56,3.83-7a2.44,2.44,0,0,0-.81-3c-1.69-1.52,1.63-3.09-5.32-9.21-6.9.23-10.36-3.3-11-6.05-.25-1.1-1.49-2.17-3-3.05a4.17,4.17,0,0,1,1-2.46c.72-.47,1.9-2.18.91-2.8s-1.14,1.09-1.3,1.23-1.55-.19-2.12.29a8.59,8.59,0,0,0-1.29,2.4h0a8.77,8.77,0,0,0-3.1-.76c-1.45.19-9-2.83-8.25-4.15s-2.58-1.11-3.15,1.78-.55,5.41-.91,5.22l-1.14-1.89c.23-1.76.34-2.64.58-4.4l1.18-1.12c0-.51,0-.76.06-1.27h-1.83a7,7,0,0,0-1.92,2.52c-.59,1.46-2.76.72-2.76.72s-2.12,4.82-4.06,6c0,0-1.71-2.08-3.6-2a6.67,6.67,0,0,0-3.86,1.47c-.78.53-4.45-2.61-3.89-4.92.29-3.42.44-5.13.78-8.54,0,0,1.37-5.07-7.41-3.56,1.4-4.83,2.13-7.25,3.64-12.08,0,0,1.84-4.19-5.51.25,0,0-2.07,8.31-8.33,5.5,0,0-7-4.19-.67-16.24.67-1.9,1-2.85,1.7-4.75,0,0,4.47-4.89,7.78-5.44s2.9,2.33,5.16,1.5,2.1-4,3.94-3.83,2.68,2.09,5.2,1.06l2,1.87s-2,8.36,1.22,9.11c1.53.52,2.36-4.16,2.27-5.28l-.39-.24c.15-3.22.24-4.82.44-8a14,14,0,0,1,8.65-8.25c4-1.6,4.56-9.3,4.52-10l1.28-.11s1.76-3.55,4.09-4.19,3.75-5.13,7.7-5.62c.27-1.1.4-1.65.66-2.74,0,0,1.3-3.9,11.32-5.72,2.23.32-3.79,3.65-3.79,3.65.27-.15,1.1,1.29,1.1,1.29s7.75-5.72,8.83-5.65c.06-.46.09-.7.16-1.16l-2.06.1s-6.49.85-1.39-6.43l-3.56-.09c.23-.54.35-.81.58-1.36,0,0,22.39-3.59,18.07-10.52-1.23,0-1.84,0-3.05.1.08-.58.12-.86.21-1.44,0,0-2.47-3-1.64-3.89s.22-7.39.22-7.39l-6.11,4.67s-3.53,1.5-.51-3.41-6.41-4.33-7.1-4.31c-3,.08-4.22,8.14-5.45,7-.13,1-.19,1.55-.31,2.59,0,0,.52,4-6.07,7.53-2.1,1.29-3,5-3.67,6.18,0,0-4.85,2.83-.78-6,0,0,1-1.37-3.59-1.4l-2.68-2-1.66.22c-.4-1.21-.58-1.8-1-3l-.79-.25s3.61-7.25,10.27-9.39c.16-.79.23-1.19.39-2l2.61-.43c1.51-.77,2.27-1.15,3.79-1.9,0,0-1.4-1.82-.69-2.32s3.84-.92,3.84-.92l4.87-1s1.44,0,3.47-3.44.17-2.64-.05-2.67-2.83.34-2.83.34-4.38,5-4.57,4.47a2,2,0,0,1,.65-2.28c1-.87.47-1,.47-1L161.87,64c.45-1.27.68-1.9,1.12-3.15-2.06,1.19-3.09,1.8-5.16,3,0,0,1.08.95-.42,3.19l-1.54.52-2.27,2.32s-1.46.93-1.47-1.16l-1.88.35s-3.25.67-4.46.06-4.47,3.4-5.14,4.32-1.27-.78-.76-1.76l-1.55.18c-1.27.4-1.91.6-3.18,1l1.24-1.76s-4.94.75-4.54-.24l-3.07,1s-2.54.85-2.61.18-5.58,2.91-7.29,4.27a11.77,11.77,0,0,1-4.23,1.9A48.68,48.68,0,0,0,92.05,89.12c-1,.58-1.41.88-2.35,1.47A10.91,10.91,0,0,0,87.27,93c-.84,1.27.08,1,.08,1l-1.9,1.76A15.13,15.13,0,0,0,79.17,100c-3.14,3.46,2.53-.85,3.42-1.55s.71-.18.71-.18l-3.07,2.93a54.18,54.18,0,0,0-5.12,3.3c-.68.69-2.27,2-2.66,3.2s-2.41,2.61-3,3.05-.45,1.14.25.84,1.82-1.7,2.18-1.57-9.3,7.91-9.3,7.91c.77-.27,1.16-.4,1.95-.65,0,0,14.38-12.19,16.11-12.7a16.67,16.67,0,0,0,5.95-3.84c1.6-1.62,8.79-1.14,8,1.31s-1.17,3.91-1.87,4.79S90.13,110.82,91,111c0,0-2.33,2.07.13,3.63S89.61,120,89,120.7s-2.89,1.08-2.89,1.08-7.55,9.62-8.09,11.52-1.46,2.17-1.9,2.27-2.78,3.84-1.16,5.9c-.42,2.59-.61,3.89-.94,6.53,0,0,3.12,1.36,2.7,3s-1.05,4.65-1.05,4.65,1.35,2.7,1,3.77-1.61,2.8-.31,3.76,1.89,1.48,1.46,2,.28,5.31,2.67,4.88c-.35-1.35-.52-2-.84-3.36-.12-1-.18-1.5-.29-2.5,0-1.15,0-1.72.06-2.85-.62-2.62-.92-3.92-1.46-6.45-.21-1.5,1.29-3.7,2.6-1.38-.07,1.88-.1,2.82-.14,4.73.77,1.76,1.17,2.66,2,4.47-.13.8-.2,1.2-.32,2,0,0,3.86,4.87,3.61,7.93a17.7,17.7,0,0,1-.83,4.55s8.28,8.93,12,9,3.32-2.65,5.83-.33c4.51,4.53,6.35,6.43,9.12,6,.11.58.18.88.3,1.47,0,0,1,2.85,1.63,3.15s.45,2.26.45,2.26,3.71,4.71,4.8,4.83,3.39,2.58,4.3,2.43.93-2.74.93-2.74.92-2.15,2.65-.28c.17.67.26,1,.44,1.68-.07.49-.1.73-.17,1.23,0,0,2.1,5.57,1.13,9.13a55.65,55.65,0,0,1-5.41,11.42c-.47.34-.21,2.26.86,3.4s.83,1.5.31,2.61-1.32,4.19.08,6.36,4.63,6.48,5.71,11.09,5.76,9.47,6.15,10.93,14.61,6.57,12,21.78c2.19,12.64,3.38,18.79,5.86,30.63l1.4,4.84c1.4,2,2.09,3,3.45,5l.2,2.11c.6.87.9,1.31,1.51,2.17l-.1,2-1.19.58c.05.51.08.76.14,1.26,0,0,4.25,3.95,5,7.63s2.13,3.43,2.84,3.48.3,1.74,1,2,1.09-.77,2.27.87l1.71-1.94-1.35-3c.51-2,.78-3,1.34-5l-2.83-3.85c.35-1.2.53-1.81.9-3l-.47-1.72.86-1.43-.1-1.08-2.93-3.48,3.27,1.44c.35-1.17.53-1.75.89-2.93-.27-1-.41-1.45-.69-2.42l3.24.29s5.59-.26-.73-10.3c.71-1,4.81,1.95,5.5,1.58,2-3.26,3-4.93,5.1-8.32,0-1.33-.06-2-.11-3.34,0,0,3-.52,1.24-8.86.29-2.22,6.43-5.56,7.13-5.64s2.94,0,2.94,0,6.24-10.65,4.53-22.89c-.48-8,6.45-12.11,7.45-15.7C207.32,243.67,209.61,236.4,199.12,233.34ZM146.19,117.13c.76-.41,1.25-1.38,1.67-.92s.06,1.42-.17,1.78-2.9.54-2.9.54C144.84,118,145.42,117.54,146.19,117.13Zm-6.3,6.19a7.34,7.34,0,0,1-1.8.19c-.63-.29-1.53-1-.45-1.31s2.48-.51,3-1.24,1-1.19,1-.1A3.29,3.29,0,0,1,139.89,123.32ZM137.77,108c2.46.85,1.82,3.54,1.82,4.11s.86,1.85,1.78,1.25,2.88-.92,2.88.9a2.08,2.08,0,0,1-2.18,2.07c-.39,0-1.22,1.05-1.64,1.84s-1.57,1.83-1.83.62a4.45,4.45,0,0,1,1-3.24c.35-.21-.38-1.19-1.23-1.08s-7.19,8.26-7.74,9.56-.9-1-.9-1,4.45-7.91,7.17-8.83,1.8-1.86,1.56-2a6.53,6.53,0,0,0-1.83.41s-1.65-.46-1.64-1-3.17,1-3.32,2.1-1.28-1.52-1.74-1.35S135.31,107.14,137.77,108Z"/><path class="cls-6" d="M252.63,101.78s2.55-1.69,3.73-1.5-.16-2.76-.16-2.76.61-1.29.87-1.36-.43-1.74-.85-1.87-2.87-.5-2.87-.5-.9,1.6-1.39,1-1,.48-1,.48.31,1.46.69,1.57.06,1.37-.22,1.68S251.11,101.26,252.63,101.78Z"/><path class="cls-6" d="M257.51,94.81c.92.32,1.37.49,2.28.82.85,1.52.82,2.59-.25,2.92s-1.16,1.48-1.37,2.2.68.52.73,1.11,2.1.88,2,1.2-3,1-3,1l1.39.87c1.73-.27,2.6-.4,4.3-.64,0,0,2.83.91,2.94.53s-.79-.67-.76-1.52.71.92,1.18-.86-.31-1.7-.31-1.7l-1.66.19c-.4-2.24-4.17-7.08-4.17-7.08s-1.19-.51-1.13-.67.61-2.06.61-2.06l-1.3-.43s.66-.42-.79-1.22-1.59,1.38-1.59,1.38c0,.63,0,.94,0,1.58l.6.1A20,20,0,0,1,257.51,94.81Z"/><path class="cls-6" d="M288.87,95.59l-.63-.21c0,.33,0,.5,0,.83s.17.55.29.91l1.28.42-.25-.74Z"/><path class="cls-6" d="M318,147.51c.36-.1.91-1.23,1.31-1.15s.59-.92.16-1.32a1.16,1.16,0,0,0-1.33-.26,8.4,8.4,0,0,1-1.31.57S317.69,147.61,318,147.51Z"/><path class="cls-6" d="M308,145.34c.5.08.82-.36.71-1a1.6,1.6,0,0,0-1.1-1.28l-3-.48c-.5-.08-.82.37-.71,1a1.57,1.57,0,0,0,1.1,1.28Z"/><path class="cls-6" d="M286.62,135.66c0,1.66,4.4,2.67,4.4,2.67.05-1.13.08-1.69.12-2.8,0,0-3.51-1.06-3.75-1.09C287.39,134.44,286.66,134,286.62,135.66Z"/><path class="cls-6" d="M289.09,139.25c.09.63.14.94.22,1.58l1.11.15.45-.84Z"/><path class="cls-6" d="M281.43,126.66c.22-.08-.51-3.06-.51-3.06s-1.14,0-1.46.31.73,2.56.73,2.56A4.25,4.25,0,0,0,281.43,126.66Z"/><path class="cls-6" d="M280.61,132.19l.9.12.83-.42c-.26-1.72-.39-2.57-.66-4.27l-1.6-.52C277.63,127.7,280.61,132.19,280.61,132.19Z"/><path class="cls-6" d="M274.18,128.41l-.87-.48c.07.54.1.82.18,1.36l.68.09C274.18,129,274.18,128.8,274.18,128.41Z"/><path class="cls-6" d="M270.87,130.09l-1.13-.14c0,.52,0,.78,0,1.3l1,.12c0-.4.06-.6.09-1l1.58.19c0-.18,0-.28,0-.46l.34,0-.2-1.58a14.54,14.54,0,0,1-1.59-.21l.1.63-.28.21C270.8,129.55,270.82,129.73,270.87,130.09Z"/><path class="cls-6" d="M227.46,180.42l-1.47,0a.64.64,0,0,0-.55.71.66.66,0,0,0,.56.71h1.48c.31,0,.55-.31.55-.7A.66.66,0,0,0,227.46,180.42Z"/><path class="cls-6" d="M231.14,183.47a.58.58,0,0,0,.51-.65v-.28c0-.37-.24-.67-.52-.67s-.51.29-.51.66v.28A.61.61,0,0,0,231.14,183.47Z"/><path class="cls-6" d="M230.2,185.36h-.89a.5.5,0,0,0-.43.57.52.52,0,0,0,.44.57h.89c.24,0,.44-.25.44-.56S230.44,185.36,230.2,185.36Z"/><path class="cls-6" d="M229.15,183.05a.37.37,0,0,0-.32-.4h-.11a.37.37,0,0,0-.31.4.37.37,0,0,0,.32.4h.11C229,183.46,229.15,183.28,229.15,183.05Z"/><path class="cls-6" d="M231.7,184.71h-.37a.82.82,0,0,0-.69.9.84.84,0,0,0,.71.9h.37c.38,0,.69-.39.69-.89A.83.83,0,0,0,231.7,184.71Z"/><path class="cls-6" d="M319.91,100.2c-1.27-1.62-1.92-2.42-3.25-4-.38-.21-.28.17-.05.63A30.36,30.36,0,0,0,319.91,100.2Z"/><path class="cls-6" d="M344.1,197.84c-2.73,1.1-3.49-.83-3.49-.83-.24-1.07-.36-1.6-.62-2.67-2.36-3.05-3.59-4.61-6.1-7.78-1.63-3.25-2.47-4.89-4.22-8.19-.17-1.6-.27-2.39-.47-4-3.45-6.23-5.28-9.4-9.05-15.79,0-.46.05-.69.09-1.16l3,3.69c.08-1,.12-1.56.19-2.59a17.71,17.71,0,0,1,1.34,3.62c.18,1.25,5.46,5,6.64,10.22s7.29,12.68,7.29,12.68,1.84,7.26,2.74,8.5,7.06-3.23,7.06-3.23c.09-.57.87-2.34,4.22-4a131.27,131.27,0,0,0-1.61-14.68,3,3,0,0,1-1.92-.84c-.23-.94-.35-1.41-.59-2.35l-2.66-.32s.52-1.23-2.22-4.74-1.21-3.22-1.21-3.22a9.32,9.32,0,0,1,1.91.19c0,2.54,3.74,5.34,5.86,6.54a188.1,188.1,0,0,0-29.55-65.7c-1.52-1.51-4.94-4.13-4.94-4.13a4.41,4.41,0,0,1-1.74-.62c-1.07-.58-4.47-2.88-4.47-2.88-.86-.51-1.3-.77-2.18-1.27-.79,1.91-2.82-.27-2.82-.27l-1.48-1.91-1.45-.86L303.06,92s-3.21-1.85-2.23-.52.22,1.55.22,1.55l-1.45-1.36-1.18-.55,2.15,2.32s-.11.51-1.27-.09-7-6.88-6.56-7.07S297,89.13,297,89.13s4.12,2.48,3.33.82-5.62-2.85-9.06-6.78A23.44,23.44,0,0,0,283,77.4c-9.3-3.65-8.33,7.16-12.07,6.29-3.67-.61-2.5,2.93-2.5,2.93a19.44,19.44,0,0,1,.92,3.23c.13,1.12,1.92,2.31,1.92,2.31l2,.52c.36.23,1.23-1.6,1.95-1.27s3.26,5.3,3.26,5.3A28.44,28.44,0,0,0,281,99c.5.27,2.15-.1,1.92-2.21a2.6,2.6,0,0,1,1.24-2.77s.12-1.62-.41-1.73a8.47,8.47,0,0,1-2.7-3.2c-.12-.7,1-.39,1-2.23s2.59-2.89,3.28-2.18.35,1.53-.21,3.82,1.92,3.85,2,4.23,3,1.8,3.2,2a5.46,5.46,0,0,0,2.09.06,19.06,19.06,0,0,1,2.78,1.65c.45.6-2.34.37-2.34.37a12,12,0,0,0-2.6-1.16c-.58,0,.78,1.87,1.28,2.65s-.08,1.12-.08,1.12l-1.08-.73-1.89-.61c.44,1.43.66,2.14,1.09,3.58l-1.83,1.46-2.14-1.2c-1.25.23-1.9.34-3.19.6L281,101.18s-2-.35-2.46.09-.92-1.28-.81-1.75,1.22,0,1.64-.24-.72-1.76-1.41-2.15-2,.27-2,.27-.42-3-.77-3.13-1.09,1.32-1.62,1.9,1.42,3.26,2,3.75-.51,1.25-.51,1.25l-2.7-.6s-2.56,4.07-3.9,3.85-2.12,2-2.47,2.73-.85-.08-3.33.62-3.61.79-3.15,1.81,3.9,2.72,4.76,4.36-.38,6-.57,6a23.62,23.62,0,0,0-3.13.17c-.83.15-3-2.1-5.47-1.89s-1.15,2.7-1.12,4.29-.44,7.22-.12,9.39,2.71,1,2.71,1c.77-1,.09,1.52,1.56,2.16a2.72,2.72,0,0,0,2.64-.27s3.21.18,4,.19,2.75-1.66,2.8-4.2,4.37-5.88,4.37-5.88.6.92-.12-1.17,1.61-2.21,1.93-1.62,3,1.92,3.73,0,3.27-1.84,3.26-1.09,3,6.19,4.15,5.74,5.79,5.47,5.79,5.47c.2,1.31.3,2,.49,3.28a8.66,8.66,0,0,0,1.29.26c.27,0,.69-1.63.55-2.69a2.74,2.74,0,0,0-.63-1.54l2.57.5s0-.74-1.06-1.61-4.69-3-5.58-4.63-3.62-4.19-4.55-5.33.92-2.2,1.17-1.14a2.34,2.34,0,0,0,1.64,1.78c.55.11,3,3.21,4.82,4.18a11.37,11.37,0,0,1,3.31,3.1s2.15,4.44,2.49,5.57,3.38,1.56,3.38,1.56c0,.36,0,.54,0,.9,0,0-1.37-.12-1.24.35a44.55,44.55,0,0,0,2.57,3.84s.27.71.95-1.26-.73-3.66-1.76-4.85.08-2,.21-1.63.93,1.11,1.26.41.56-1.7,1.1-1.43l2,1.07s2.17-1.52,3.16-.2-1.05,1.81-1.05,1.81l-2.1-.36c0,.49,0,.74,0,1.24l1.61,1.46a7.12,7.12,0,0,0,2.66,5l-.1,0-.55-.1c-.27,0-.44.2-.38.54a.91.91,0,0,0,.62.72l.55.09c.28,0,.45-.19.38-.54a1,1,0,0,0-.2-.44c1.21.9,2.39,1.18,2.57.7.41-1,3,.49,3.19.75s2.49,1,2.76.1,2.5.23,2.5.23c.19,1.58.28,2.38.44,4-.18,2.54-.3,3.83-.57,6.45-4.87-1-7.34-1.55-12.35-2.55L304,148.42a6.25,6.25,0,0,0-2.87-.68c-1.67,0-.29,4-.29,4s-1.27,2.31-2.08,1.49-4.39-1.27-4.4-2.54-1.94-3.37-1.94-3.37c-.62-.37-6.34-1.71-7.16-4.49,0-9.33-4.72-6.12-4.72-6.12s-7-.54-8.3-.93-6.54,2.65-7.9,3.12a18.29,18.29,0,0,1-3.29-1.34c-.9-.46-1.47-3-2.25-.32s-5.1,5.45-5.1,5.45c-.27,2.76-.41,4.15-.7,6.94a108.2,108.2,0,0,0-8.67,11.46c-5.19,7.67-3.35,11.41-2.61,12.61s1,6.64.24,7.89-2.24,3.91-1.86,4.83a7.36,7.36,0,0,1,.2,5.23c-.81,2.06,1.65,3.41,2.2,3.55s3.95,5.8,3.95,5.8.43,1.61.64,2.95,8,12.3,10.43,9.64,6.87-1.66,8.43-1.23,4.66-3.36,9.6-4.27,4,5,4,5l3.51-1s.9.72,1.78,1.49c0,0-1.55,2-.85,2.35s1.47-.49,1.47-.49.89-.48,1-.26c.47.7.18,3.82-.55,5.22s-1.11,5.16-1.35,6.46,3.52,5,3.21,5.68.65,3.21,1.07,2.43,1.37-1.62,1.19-.17a2.4,2.4,0,0,1-1.21,1.91c.31.79,0,7.82,1.4,11.5-5,7.91-3.8,11.66-4.74,13.74s1.65,16.16.74,18.63,4.18,6.74,1.68,9.86-.87,6.17,1.22,4.31a12.6,12.6,0,0,1,6.62-2.69c.71.11,14.5-15.26,14.5-15.26s.75-4.14,1.38-4.33a22.65,22.65,0,0,0,5.63-6.2c1-2.08-.45-2.8.23-4.35s4.17-5.34,4.6-5.89-.53,1.53,4.42-3.49,4.66-9.9,4.55-11.46-.94-6.62.43-11.45,12.53-16.14,14-17.38,6.05-12.78,6.05-12.78c-.1-1.78-.17-2.68-.32-4.47ZM331,133.57c-.29-1.2-.51-5.19,2.1-3.92s3.44,2.85,3.62,3.61-3.21-1.39-2.44.38,2.92,3.44,3.71,4.43.57-.61,2,1.2,2.4,2.33,2.1,2.69-1.84-1.19-1.75-.41.87,1.12,1.9,2.88,2.41,3.3,1.84,4.17-1.22,1.09-2.44.05-2-2-2.88-2.2-2.53-1.51-2.18-2.53a6.11,6.11,0,0,0-1.71-5.32C332.67,136.64,331.26,134.77,331,133.57Zm-12.84.39c-1-1.2-3.12-2.21-4.43-1.77s-2.22,1.29-2.89.79-2.65-1.22-2.91-1.84c-.55-1.31-1.92-2-1.56-3s.22-2.86.63-3.37.36-4.05,2.21-2.23,1.3,2.34,2.36,3.28,2.41,2.47,2.73,1.57,1.21-.83.42-1.57-2-1.66-.93-1.86a14.92,14.92,0,0,1,3-.06c.21,1.53.3,2.3.47,3.85,0,0,5.55,4,6.73,6.06s.26,2.83-.55,2.76S319.1,135.16,318.14,134Z"/><path class="cls-6" d="M283,218.43a.64.64,0,0,0-.52.65c0,.09,0,.13,0,.22,0,.35.19.62.46.61a.64.64,0,0,0,.52-.66,1.48,1.48,0,0,0,0-.21C283.45,218.69,283.24,218.42,283,218.43Z"/><path class="cls-6" d="M282.28,220.94l-.56,0a.75.75,0,0,0-.62.76c0,.41.22.73.54.72l.56,0a.77.77,0,0,0,.61-.77C282.83,221.24,282.59,220.92,282.28,220.94Z"/><path class="cls-6" d="M342.38,241.14c.14,1-5.7,7.36-8.19,8.5s-.88,5-3.16,7.13-2.18,2.86-4.37,8,3,1,4,.49S342,246.36,342,246.36C345.9,237.68,342.24,240.17,342.38,241.14Z"/><path class="cls-6" d="M333.91,243.15l.15-.57c.07-.31-.07-.52-.32-.47a.9.9,0,0,0-.59.66c-.06.23-.09.34-.14.57s.06.52.31.47A.92.92,0,0,0,333.91,243.15Z"/><path class="cls-6" d="M334.42,244.8c.37-.07.54-.11.9-.2a1.09,1.09,0,0,0,.71-.77c.1-.36-.07-.6-.36-.54l-.91.2a1.11,1.11,0,0,0-.7.78C334,244.63,334.13,244.87,334.42,244.8Z"/></g></g></svg>