<svg xmlns="http://www.w3.org/2000/svg" viewBox="0 0 380.15 380.16"><defs><style>.cls-1{fill:#5ab7b2;}</style></defs><title>focus</title><g id="Layer_2" data-name="Layer 2"><g id="Capa_1" data-name="Capa 1"><path d="M371.05,327a31.13,31.13,0,0,1-44,44l-90.77-90.77a7.48,7.48,0,0,1,0-10.6l3.63-3.63L231,257.14A143.72,143.72,0,0,1,42,244.9C-14,189-14,97.91,42,42S189-14,244.9,42c51.51,51.52,55.59,132.79,12.24,189l8.9,8.9,3.63-3.63a7.5,7.5,0,0,1,10.61,0Zm-10.61,33.43a16.16,16.16,0,0,0,0-22.82L275,252.16,252.16,275l85.46,85.47A16.16,16.16,0,0,0,360.44,360.45Zm-88.51-217A128.5,128.5,0,0,0,52.56,52.57,128.5,128.5,0,1,0,234.29,234.29,127.66,127.66,0,0,0,271.93,143.43Zm-21.44,112,4.95-4.95-8.1-8.1c-.8.85-1.62,1.68-2.44,2.51s-1.67,1.64-2.51,2.44Z"/><path class="cls-1" d="M360.44,337.63a16.14,16.14,0,0,1-22.82,22.82L252.16,275,275,252.16Z"/><path class="cls-1" d="M234.29,52.57A128.5,128.5,0,1,1,52.56,234.29,128.5,128.5,0,1,1,234.29,52.57Zm21.82,90.86a112.69,112.69,0,1,0-33,79.68A112,112,0,0,0,256.11,143.43Z"/><path class="cls-1" d="M255.44,250.49l-4.95,4.95-8.1-8.1c.84-.8,1.68-1.61,2.51-2.44s1.64-1.66,2.44-2.51Z"/><path d="M223.1,63.75a112.68,112.68,0,1,1-79.67-33A112,112,0,0,1,223.1,63.75ZM212.5,212.5a97.68,97.68,0,1,0-69.07,28.61A97.8,97.8,0,0,0,212.5,212.5Z"/><path d="M205.56,81.3A7.5,7.5,0,1,1,195,91.9a72.94,72.94,0,0,0-13.71-10.78A7.5,7.5,0,0,1,189,68.3,88.68,88.68,0,0,1,205.56,81.3Z"/><path d="M205.56,195a7.49,7.49,0,0,1,0,10.6,87.33,87.33,0,0,1-62,25.75,89.27,89.27,0,0,1-10.55-.63,7.5,7.5,0,1,1,1.77-14.89A72.51,72.51,0,0,0,195,195,7.5,7.5,0,0,1,205.56,195Z"/><path d="M157,56.61a7.5,7.5,0,1,1-2.31,14.82A73.18,73.18,0,0,0,91.9,91.9,7.5,7.5,0,0,1,81.29,81.3,88.23,88.23,0,0,1,157,56.61Z"/><path d="M104.93,205.32A7.5,7.5,0,0,1,97,218.05a88.38,88.38,0,0,1-15.7-12.49A7.5,7.5,0,1,1,91.9,195,73.25,73.25,0,0,0,104.93,205.32Z"/></g></g></svg>