<svg xmlns="http://www.w3.org/2000/svg" xmlns:xlink="http://www.w3.org/1999/xlink" viewBox="1059 2579 446 449">
  <defs>
    <style>
      .cls-1 {
        clip-path: url(#clip-アートボード_1);
      }

      .cls-2 {
        fill: #80d6cd;
      }

      .cls-3 {
        fill: #fff;
      }
    </style>
    <clipPath id="clip-アートボード_1">
      <rect x="1059" y="2579" width="446" height="449"/>
    </clipPath>
  </defs>
  <g id="アートボード_1" data-name="アートボード – 1" class="cls-1">
    <rect class="cls-3" x="1059" y="2579" width="446" height="449"/>
    <path id="前面オブジェクトで型抜き_1" data-name="前面オブジェクトで型抜き 1" class="cls-2" d="M154.5,309a155.645,155.645,0,0,1-31.137-3.139,153.655,153.655,0,0,1-55.245-23.247,154.95,154.95,0,0,1-55.976-67.975,153.716,153.716,0,0,1-9-29,156,156,0,0,1,0-62.274A153.655,153.655,0,0,1,26.386,68.118,154.951,154.951,0,0,1,94.362,12.141a153.717,153.717,0,0,1,29-9,156,156,0,0,1,62.274,0,153.653,153.653,0,0,1,55.245,23.247,154.95,154.95,0,0,1,55.976,67.976,153.716,153.716,0,0,1,9,29,156.007,156.007,0,0,1,0,62.274,153.653,153.653,0,0,1-23.247,55.245,154.949,154.949,0,0,1-67.975,55.976,153.715,153.715,0,0,1-29,9A155.644,155.644,0,0,1,154.5,309Zm0-268A113.5,113.5,0,1,0,268,154.5,113.628,113.628,0,0,0,154.5,41Z" transform="translate(1059 2579)"/>
    <rect id="長方形_101" data-name="長方形 101" class="cls-2" width="29" height="49" transform="translate(1358.146 2861.14) rotate(135)"/>
    <rect id="長方形_102" data-name="長方形 102" class="cls-2" width="59" height="204" transform="translate(1504.677 2986.458) rotate(135)"/>
  </g>
</svg>
