<?xml version="1.0" encoding="utf-8"?>
<!-- Generator: Adobe Illustrator 22.0.1, SVG Export Plug-In . SVG Version: 6.00 Build 0)  -->
<svg version="1.1" id="Layer_1" xmlns="http://www.w3.org/2000/svg" xmlns:xlink="http://www.w3.org/1999/xlink" x="0px" y="0px"
	 viewBox="0 0 512 512" style="enable-background:new 0 0 512 512;" xml:space="preserve">
<style type="text/css">
	.st0{fill:#FFFFFF;}
</style>
<path class="st0" d="M380.1,118.6c8.1,0,14.6-6.6,14.6-14.6c0-8.1-6.6-14.6-14.6-14.6c-8.1,0-14.6,6.6-14.6,14.6
	C365.5,112,372.1,118.6,380.1,118.6z"/>
<path class="st0" d="M133.1,358.7c-8.1,0-14.6,6.6-14.6,14.6c0,8.1,6.6,14.6,14.6,14.6c8.1,0,14.6-6.6,14.6-14.6
	C147.7,365.2,141.2,358.7,133.1,358.7z"/>
<path class="st0" d="M10.2,360.6h17.1v-105H10.2c-5.6,0-10.2-4.6-10.2-10.2v125.4C0,365.2,4.6,360.6,10.2,360.6z"/>
<path class="st0" d="M380.1,389.2c8.1,0,14.6-6.6,14.6-14.6c0-8.1-6.6-14.6-14.6-14.6c-8.1,0-14.6,6.6-14.6,14.6
	C365.5,382.6,372.1,389.2,380.1,389.2z"/>
<path class="st0" d="M10.2,235.2h17.1V132.7H10.2c-5.6,0-10.2-4.6-10.2-10.2v122.9C0,239.8,4.6,235.2,10.2,235.2z"/>
<path class="st0" d="M256,386c-8.1,0-14.6,6.6-14.6,14.6c0,8.1,6.6,14.6,14.6,14.6s14.6-6.6,14.6-14.6
	C270.6,392.6,264.1,386,256,386z"/>
<path class="st0" d="M0,0v122.5c0-5.6,4.6-10.2,10.2-10.2h17.1V12.1c0-5.6,4.6-10.2,10.2-10.2s10.2,4.6,10.2,10.2v104.2l72.2,95
	c3.7-1.4,7.7-2.1,11.9-2.1c4.1,0,8,0.7,11.6,2l84.1-127.4c-4.9-6-7.8-13.7-7.8-22.1c0-19.3,15.7-35,35-35c19.3,0,35,15.7,35,35
	c0,10.3-4.5,19.6-11.6,26.1l47.5,121.2l32.5-77.7c-8-6.4-13.1-16.3-13.1-27.3c0-19.3,15.7-35,35-35c15.3,0,28.3,9.9,33.1,23.6h65
	c5.6,0,10.2,4.6,10.2,10.2c0,5.6-4.6,10.2-10.2,10.2H414c-4,15-17.6,26.1-33.9,26.1c-1,0-2-0.1-3-0.1l-40.8,97.4l40.6,103.5
	c1.1-0.1,2.1-0.2,3.2-0.2c7.9,0,15.2,2.6,21,7l72.9-74.2c4-4,10.4-4,14.4,0c4,4,4,10.4,0,14.4l-75.2,76.5c1.2,3.5,1.9,7.3,1.9,11.3
	c0,19.3-15.7,35-35,35s-35-15.7-35-35c0-10.9,5-20.7,12.9-27.2l-33-84.1L278.7,374c7.5,6.4,12.3,16,12.3,26.6c0,19.3-15.7,35-35,35
	c-18.3,0-33.4-14.1-34.9-32.1l-56.8-14.3c-5.8,11.3-17.6,19.1-31.2,19.1c-5.9,0-11.5-1.5-16.3-4.1l-55.6,61.9h440.7
	c5.6,0,10.2,4.6,10.2,10.2s-4.6,10.2-10.2,10.2H394.1v13.4c0,5.6-4.6,10.2-10.2,10.2s-10.2-4.6-10.2-10.2v-13.4h-105v13.4
	c0,5.6-4.6,10.2-10.2,10.2s-10.2-4.6-10.2-10.2v-13.4H145.8v13.4c0,5.6-4.6,10.2-10.2,10.2s-10.2-4.6-10.2-10.2v-13.4H37.5
	c-5.6,0-10.2-4.6-10.2-10.2V381H10.2C4.6,381,0,376.5,0,370.8V512h512V0H0z"/>
<path class="st0" d="M98.1,373.3c0-19.3,15.7-35,35-35c17.9,0,32.7,13.5,34.8,30.8l57.5,14.5c6-10.7,17.5-18,30.6-18
	c1.4,0,2.7,0.1,4,0.2L314.4,236L259.6,96.4c-1.6,0.2-3.2,0.3-4.9,0.3c-3.6,0-7-0.5-10.3-1.5l-84.5,128.1c4.4,5.8,6.9,13.1,6.9,20.9
	c0,19.3-15.7,35-35,35c-19.3,0-35-15.7-35-35c0-7.7,2.5-14.9,6.8-20.7l-55.9-73.6v300.6l54.5-60.7C99.6,385,98.1,379.3,98.1,373.3z"
	/>
<path class="st0" d="M254.8,76.3c8.1,0,14.6-6.6,14.6-14.6s-6.6-14.6-14.6-14.6c-8.1,0-14.6,6.6-14.6,14.6
	C240.1,69.8,246.7,76.3,254.8,76.3z"/>
<path class="st0" d="M131.9,258.8c8.1,0,14.6-6.6,14.6-14.6s-6.6-14.6-14.6-14.6c-8.1,0-14.6,6.6-14.6,14.6
	C117.2,252.3,123.8,258.8,131.9,258.8z"/>
</svg>
