<svg xmlns="http://www.w3.org/2000/svg" viewBox="0 0 512 379.55"><defs><style>.cls-1{fill:#e1f2f1;}.cls-2{fill:#5fb9b4;}.cls-3{fill:#f0f9f8;}.cls-4{fill:#5ab7b2;}</style></defs><title>interact</title><g id="Layer_2" data-name="Layer 2"><g id="Layer_1-2" data-name="Layer 1"><path class="cls-1" d="M162.07,273.09A21.28,21.28,0,0,1,165.86,298a20.94,20.94,0,0,1-3.79,5.14,21.26,21.26,0,1,1,0-30.06Z"/><path class="cls-1" d="M192.92,303.94a21.22,21.22,0,1,1-23.88-4.3A21.26,21.26,0,0,1,192.92,303.94Z"/><path class="cls-1" d="M223,334a21.26,21.26,0,1,1-30.06,0A21.25,21.25,0,0,1,223,334Z"/><path class="cls-1" d="M404.86,195.34a120.76,120.76,0,0,1-33.46,64l-12.06,12.06-93-93-.43-.42-.19-.19-.32-.31-.25-.25-12.67-12.68-31.22,31.22A24.62,24.62,0,0,1,186.48,161l53.85-53.86a62.44,62.44,0,0,1,69.88-12.7,33.56,33.56,0,0,0,37.68-6.67l17.17-17.16,78.49,78.49-.88.88-29.3,29.3A30.41,30.41,0,0,0,404.86,195.34Z"/><polygon class="cls-2" points="503.27 109.54 453.63 159.19 443.56 149.12 365.06 70.62 354.32 59.88 403.98 10.24 503.27 109.54"/><path class="cls-3" d="M334.56,301.28l6.12,6.14a19.31,19.31,0,0,1-27.32,27.31L298.9,320.27a19.31,19.31,0,0,1-27.47,27.14L252.81,328.8a19.31,19.31,0,0,1-25.46,28.94h0A21.26,21.26,0,0,0,192.92,334,21.26,21.26,0,0,0,169,299.64l-.94-.93-.68-.68-1.56,0a21.26,21.26,0,0,0-27.68-29.21l-9.42-9.42a120.79,120.79,0,0,1-33.32-63.24,33.2,33.2,0,0,0-9.22-17.42L66,158.52,159.59,65l26.23,26.23a33.75,33.75,0,0,0,35.57,7.56,47.18,47.18,0,0,1,30.34-.59,62.73,62.73,0,0,0-11.4,9L186.48,161a24.61,24.61,0,1,0,34.81,34.81l31.22-31.21,12.67,12.68a2.18,2.18,0,0,1,.25.25l.32.3a1.8,1.8,0,0,0,.19.2l.43.41,93,93,2.53,2.54a19.31,19.31,0,1,1-27.31,27.3Z"/><polygon class="cls-4" points="159.6 64.95 66.03 158.53 57.28 167.27 7.63 117.62 118.16 7.08 167.82 56.73 159.6 64.95"/><path d="M509.61,104.85l-99.3-99.3a8.17,8.17,0,0,0-11.57,0L349.09,55.2a8.18,8.18,0,0,0,0,11.56l5,4.95L342.66,83.09a25.56,25.56,0,0,1-28.53,5,70.55,70.55,0,0,0-63,2.34,55,55,0,0,0-32,1.7,25.44,25.44,0,0,1-27-5.67L171.71,66l2.43-2.43a8.16,8.16,0,0,0,0-11.56L124.49,2.4a8.16,8.16,0,0,0-11.56,0L2.4,112.93a8.16,8.16,0,0,0,0,11.56L52,174.14a8.17,8.17,0,0,0,11.57,0l3-3L81,185.6a25,25,0,0,1,7,13.13,128.31,128.31,0,0,0,35.57,67.52l2.71,2.72a29.41,29.41,0,0,0,21.35,49.66c.49,0,1,0,1.47,0a29.41,29.41,0,0,0,29.38,30.9h.66a29.41,29.41,0,0,0,50.21,21.45c.47-.47.91-.95,1.34-1.44a27.54,27.54,0,0,0,9,1.55,27.55,27.55,0,0,0,25.65-17.6l.84.84a27.5,27.5,0,0,0,45.22-9.88,27.51,27.51,0,0,0,42.88-28.74,27.5,27.5,0,0,0,16.89-42.85l6.56-6.56a128.34,128.34,0,0,0,35.72-68.37,22.08,22.08,0,0,1,6.25-11.71l24.39-24.4,4.29,4.29a8.17,8.17,0,0,0,11.57,0l49.65-49.65a8.18,8.18,0,0,0,0-11.56ZM19.74,118.71l99-99L156.8,57.83l-99,99Zm118.6,179.75a13.08,13.08,0,1,1,18.5,0A13,13,0,0,1,138.34,298.46Zm40.1,34.68a13.08,13.08,0,1,1,9.24-3.83A13,13,0,0,1,178.44,333.14Zm39.3,26.23a13.07,13.07,0,1,1,0-18.5A13,13,0,0,1,217.74,359.37ZM356.63,296.6a11.12,11.12,0,0,1-15.74,0l-79.33-79.31A8.17,8.17,0,1,0,250,228.84l85.45,85.45a11.14,11.14,0,0,1,0,15.75,11.17,11.17,0,0,1-15.76,0l-14.41-14.42-.24-.25-.08-.07L238.69,249a8.17,8.17,0,1,0-11.56,11.56l66.48,66.48a11.13,11.13,0,0,1-15.85,15.64l-72.09-72.09a8.17,8.17,0,1,0-11.56,11.56l53.43,53.44,0,0a11.15,11.15,0,0,1-7.88,19,11.35,11.35,0,0,1-2.11-.21,29.41,29.41,0,0,0-29.09-33.78h-.66a29.39,29.39,0,0,0-29.4-30.07q-.74,0-1.47,0a29.4,29.4,0,0,0-36-30.11l-5.87-5.86a112.16,112.16,0,0,1-31.06-59A41.27,41.27,0,0,0,92.55,174L78.14,159.61l82-82L180.58,98a41.7,41.7,0,0,0,29.51,12.06,42.81,42.81,0,0,0,14.65-2.58,38.38,38.38,0,0,1,7.14-1.83l-50.63,50.63a32.8,32.8,0,0,0,46.38,46.38l25.43-25.43,6.88,6.89h0l.28.29.28.28h0l.23.23,95.88,95.88a11.15,11.15,0,0,1,0,15.76Zm51.51-122A38.33,38.33,0,0,0,397.36,195a112.08,112.08,0,0,1-31.19,59.7L359.89,261l-51.74-51.73c1.13.08,2.26.14,3.39.14a41.82,41.82,0,0,0,15.94-3.1,8.18,8.18,0,0,0-6.19-15.14C300.24,199.75,275,176,272.2,173.29l-.14-.14-.29-.29h0l-.25-.25h0l-6.89-6.89,7.81-7.8a8.18,8.18,0,0,0-11.56-11.57L247.3,159.91l0,0h0l-31.2,31.2a16.44,16.44,0,0,1-23.25-23.25L246.67,114a54.24,54.24,0,0,1,60.71-11,42,42,0,0,0,46.85-8.34l11.38-11.38,66.93,66.93Zm46-25.89L366.44,61,404.52,22.9l87.74,87.73Z"/><circle cx="462.41" cy="116.88" r="8.18"/><circle cx="53.57" cy="124.96" r="8.18"/></g></g></svg>