<svg id="Layer_1" data-name="Layer 1" xmlns="http://www.w3.org/2000/svg" viewBox="0 0 512 422"><defs><style>.cls-1{fill:#bfdef2;}.cls-2{fill:#5f8bb9;}.cls-3{fill:#d6f9f4;}.cls-4{fill:#5ab7b2;}</style></defs><title>handFlat</title><g id="Layer_1-2" data-name="Layer 1-2"><path class="cls-1" d="M171.07,307.09A21.28,21.28,0,0,1,174.86,332a20.78,20.78,0,0,1-3.79,5.14,21.26,21.26,0,1,1,0-30.07h0Z"/><path class="cls-1" d="M201.92,337.94a21.22,21.22,0,1,1-23.88-4.3A21.21,21.21,0,0,1,201.92,337.94Z"/><path class="cls-1" d="M232,368a21.26,21.26,0,1,1-30.07,0h0A21.25,21.25,0,0,1,232,368Z"/><path class="cls-1" d="M413.86,229.34a120.72,120.72,0,0,1-33.46,64L368.34,305.4l-93-93-.43-.42-.19-.19-.32-.31-.25-.25-12.67-12.68-31.22,31.22A24.62,24.62,0,0,1,195.48,195l53.85-53.86a62.43,62.43,0,0,1,69.88-12.7,33.55,33.55,0,0,0,37.68-6.67l17.17-17.16,78.49,78.49-.88.88-29.3,29.3A30.35,30.35,0,0,0,413.86,229.34Z"/><polygon class="cls-2" points="512.27 143.54 462.63 193.19 452.56 183.12 374.06 104.62 363.32 93.88 412.98 44.24 512.27 143.54"/><path class="cls-3" d="M343.56,335.28l6.12,6.14a19.31,19.31,0,1,1-27.32,27.31L307.9,354.27a19.31,19.31,0,0,1-27.47,27.14L261.81,362.8a19.31,19.31,0,0,1-25.46,28.94h0A21.26,21.26,0,0,0,201.92,368,21.26,21.26,0,0,0,178,333.64l-.94-.93-.68-.68h-1.56a21.26,21.26,0,0,0-27.68-29.21l-9.42-9.42a120.8,120.8,0,0,1-33.32-63.24,33.16,33.16,0,0,0-9.22-17.42L75,192.52,168.59,99l26.23,26.23a33.74,33.74,0,0,0,35.57,7.56,47.2,47.2,0,0,1,30.34-.59,62.75,62.75,0,0,0-11.4,9L195.48,195a24.61,24.61,0,0,0,34.81,34.81l31.22-31.21,12.67,12.68a3,3,0,0,1,.25.25l.32.3a1.8,1.8,0,0,0,.19.2l.43.41,93,93L370.9,308A19.31,19.31,0,0,1,344,335.72l-.44-.44Z"/><polygon class="cls-4" points="168.6 98.95 75.03 192.53 66.28 201.27 16.63 151.62 127.16 41.08 176.82 90.73 168.6 98.95"/><circle cx="471.41" cy="150.88" r="8.18"/><circle cx="62.57" cy="158.96" r="8.18"/></g></svg>