<?xml version="1.0" encoding="utf-8"?>
<!-- Generator: Adobe Illustrator 22.0.1, SVG Export Plug-In . SVG Version: 6.00 Build 0)  -->
<svg version="1.1" id="Capa_1" xmlns="http://www.w3.org/2000/svg" xmlns:xlink="http://www.w3.org/1999/xlink" x="0px" y="0px"
	 viewBox="0 0 512 512" style="enable-background:new 0 0 512 512;" xml:space="preserve">
<style type="text/css">
	.st0{fill:#FFFFFF;}
</style>
<path class="st0" d="M292.8,114.9l27.7-27.7c5.2-5.2,5.2-13.5,0-18.7c-5.2-5-13.5-5-18.7,0L174,196.3c19-3.3,37.5-9.2,54.9-17.5
	L292.8,114.9z"/>
<path class="st0" d="M431,197.7l-27.7,27.7l-63.9,63.9c-8.3,17.4-14.2,35.9-17.5,54.9l127.8-127.8c5.2-5.2,5.2-13.5,0-18.7
	C444.5,192.7,436.3,192.7,431,197.7z"/>
<path class="st0" d="M326.5,142.7l15.5-15.5c2.5-2.5,5.4-4.8,8.5-6.6l35.2-20.8c0.7-0.4,1.4-0.7,2.2-0.9c8.8-2.3,18.2,0.3,24.7,6.8
	c6.5,6.5,9,15.8,6.8,24.7c-0.2,0.8-0.5,1.5-0.9,2.2l-20.7,35.1c-1.9,3.1-4.1,6-6.7,8.5l-15.5,15.5c1.2,14.9-1,30-6.5,43.9l49.9-49.9
	l0,0l57.6-57.6c3.4-3.5,5.8-7.8,7-12.5l15.4-64.5c2.1-8.9-0.5-18.2-7-24.7c-6.5-6.5-15.8-9.1-24.7-7l-64.6,15.4
	c-4.7,1.2-9,3.6-12.4,7l-57.6,57.6l0,0l-49.9,49.9C296.6,143.7,311.6,141.5,326.5,142.7z"/>
<path class="st0" d="M185.5,406.3l74.1,49.4c3.6,2.9,8.6,2.9,12.2,0.1l2.6-2.6l-67.9-67.9L185.5,406.3z"/>
<path class="st0" d="M169.6,292.9c2,0.1,4.1,0.3,6.1,0.6l133.4-133.4c-21.2,3.6-41.3,12.3-58.3,25.5c-4.3,3-8.8,5.7-13.4,8.1
	c-0.2,0.1-0.3,0.2-0.5,0.3c-39.9,20.6-99.7,26-134.2,27.4c-9.5,0.3-18.5,4-25.5,10.4l68.4,68.4C152.7,295.4,161.1,292.9,169.6,292.9
	z"/>
<path class="st0" d="M379,164.1c1.6-1.6,2.9-3.3,4.1-5.2l20-33.9c0.3-2.2-0.2-4.5-1.6-6.3c-0.3-0.4-0.6-0.7-0.9-1
	c-1.9-1.9-4.7-2.9-7.4-2.5l-33.9,20c-1.9,1.1-3.6,2.5-5.1,4l-12.4,12.4l24.8,24.9L379,164.1z"/>
<path class="st0" d="M193.3,300c2.5,1.6,4.8,3.5,6.9,5.6l12.3,12.3c2.1,2.1,4,4.4,5.6,6.9l136.3-136.3l-24.9-24.9L193.3,300z"/>
<path class="st0" d="M324.5,280.9c2.4-4.7,5.1-9.2,8.1-13.4c13.1-17.1,21.9-37.1,25.5-58.4L224.7,342.5c0.3,2,0.5,4,0.6,6.1
	c0,8.6-2.5,16.9-7.3,24l68.4,68.4c6.4-7,10.1-16,10.4-25.5c1.4-34.5,6.9-94.3,27.4-134.2C324.3,281.2,324.5,281,324.5,280.9z"/>
<polygon class="st0" points="195.3,433.4 151.1,477.7 169.5,496.4 217.7,448.4 "/>
<path class="st0" d="M208.2,348.6c0-7-2.8-13.7-7.7-18.6l-12.3-12.3c-4.9-4.9-11.6-7.7-18.6-7.7s-13.7,2.8-18.6,7.7l-55.4,55.6
	l6.2,6.2l36.9,36.9l6.2,6.2l55.6-55.4C205.4,362.2,208.2,355.5,208.2,348.6z"/>
<polygon class="st0" points="21.8,348.5 40.3,367.2 84.8,322.9 69.8,300.4 "/>
<path class="st0" d="M133,311.7L65,243.7l-2.6,2.6c-2.8,3.6-2.8,8.7,0.1,12.2l49.4,74.1L133,311.7z"/>
<polygon class="st0" points="83.4,410 83.4,410.2 108,434.8 120.6,422.4 95.8,397.6 "/>
</svg>
