<?xml version="1.0" encoding="utf-8"?>
<!-- Generator: Adobe Illustrator 22.1.0, SVG Export Plug-In . SVG Version: 6.00 Build 0)  -->
<svg version="1.1" id="Capa_1" xmlns="http://www.w3.org/2000/svg" xmlns:xlink="http://www.w3.org/1999/xlink" x="0px" y="0px"
	 viewBox="0 0 512 512" style="enable-background:new 0 0 512 512;" xml:space="preserve">
<style type="text/css">
	.st0{fill:#CEE9E8;}
	.st1{fill:#D9EEED;}
	.st2{fill:#6EC0BB;}
	.st3{fill:#C0E4E2;}
	.st4{fill:#5AB7B2;}
	.st5{fill:#DEF1F0;}
	.st6{fill:#D6EDEC;}
	.st7{fill:#8FCECB;}
	.st8{fill:#C2E4E3;}
	.st9{fill:#87CAC7;}
</style>
<path class="st0" d="M158.9,114.8h-8.8c-14.6,0-26.5,11.9-26.5,26.5l0,0c0,14.6,11.9,26.5,26.5,26.5h8.8"/>
<rect x="211.9" y="247.2" class="st1" width="88.3" height="70.6"/>
<path class="st0" d="M211.9,247.2v33.5c27.7,14.2,60.6,14.2,88.3,0v-33.5H211.9z"/>
<path class="st1" d="M256,0L256,0c53.6,0,97.1,43.5,97.1,97.1v79.4c0,53.6-43.5,97.1-97.1,97.1l0,0c-53.6,0-97.1-43.5-97.1-97.1
	V97.1C158.9,43.5,202.4,0,256,0z"/>
<path class="st0" d="M353.1,167.7h8.8c14.6,0,26.5-11.9,26.5-26.5l0,0c0-14.6-11.9-26.5-26.5-26.5h-8.8"/>
<g>
	<circle class="st2" cx="203" cy="141.2" r="17.7"/>
	<circle class="st2" cx="309" cy="141.2" r="17.7"/>
</g>
<g>
	<path class="st3" d="M264.8,194.2h-26.5c-2.8,0-5.4-1.3-7.1-3.5c-1.6-2.2-2.2-5-1.4-7.7l17.7-61.8l16.9,4.8l-14.4,50.6h14.7V194.2z
		"/>
	<path class="st3" d="M248.7,229.5h-10.3v-17.7h10.3c13.7,0,26.7-5.4,36.4-15.1l12.5,12.5C284.6,222.3,267,229.6,248.7,229.5z"/>
</g>
<path class="st4" d="M194.2,61.8V22.2c-22.4,18.5-35.3,45.9-35.3,74.9v17.7C180.2,105.7,194,84.9,194.2,61.8z"/>
<path class="st2" d="M158.9,0c0,34.1,27.7,61.8,61.8,61.8h97.1c1.5,22.7,14.9,42.9,35.3,53V88.3c0-48.8-39.5-88.3-88.3-88.3H158.9z"
	/>
<path class="st5" d="M361.9,309H150.1c-39,0-70.6,31.6-70.6,70.6V512h353.1V379.6C432.6,340.6,400.9,309,361.9,309z"/>
<path class="st6" d="M79.4,483v29h353.1V379.6c0-13.9-4.1-27.6-11.8-39.2C331.6,447.1,168.4,475.5,79.4,483z"/>
<polygon class="st7" points="282.5,309 229.5,309 247.2,344.3 229.5,476.7 256,503.2 282.5,476.7 264.8,344.3 "/>
<g>
	<rect x="132.4" y="388.4" class="st8" width="17.7" height="123.6"/>
	<rect x="361.9" y="388.4" class="st8" width="17.7" height="123.6"/>
</g>
<path class="st9" d="M229.5,476.7l26.5,26.5l26.5-26.5l-8-60.4c-12.7,7.3-25.9,13.7-39.5,19.2L229.5,476.7z"/>
</svg>
