<?xml version="1.0" encoding="utf-8"?>
<!-- Generator: Adobe Illustrator 22.0.1, SVG Export Plug-In . SVG Version: 6.00 Build 0)  -->
<svg version="1.1" id="Capa_1" xmlns="http://www.w3.org/2000/svg" xmlns:xlink="http://www.w3.org/1999/xlink" x="0px" y="0px"
	 viewBox="0 0 512 512" style="enable-background:new 0 0 512 512;" xml:space="preserve">
<style type="text/css">
	.st0{fill:#FFFFFF;}
</style>
<g>
	<polygon class="st0" points="256,62.3 235.4,82.9 276.6,82.9 	"/>
	<path class="st0" d="M142.8,157.4H97.1c0,0.2,0,0.3,0,0.5v45.7h53.8v-38.2C150.8,161,147.2,157.4,142.8,157.4z"/>
	<rect x="97.1" y="217.8" class="st0" width="53.8" height="46.2"/>
	<path class="st0" d="M225.3,437.1v45.3c0,0.3,0.2,0.5,0.5,0.5h23.1v-23.1c0-3.9,3.2-7.1,7.1-7.1s7.1,3.2,7.1,7.1v23.1h23.1
		c0.3,0,0.5-0.2,0.5-0.5v-45.3c0-0.3-0.2-0.5-0.5-0.5h-60.4C225.6,436.6,225.3,436.8,225.3,437.1z"/>
	<rect x="240.4" y="406.4" class="st0" width="31.1" height="16"/>
	<rect x="97.1" y="278.2" class="st0" width="53.8" height="46.2"/>
	<path class="st0" d="M312.4,151.5c15.3-14.1,24.8-33.2,26.7-53.8c0-0.2,0-0.3-0.1-0.4c-0.2-0.2-0.3-0.2-0.4-0.2H173.4
		c-0.1,0-0.2,0-0.4,0.2c-0.1,0.1-0.2,0.3-0.1,0.4c1.9,20.6,11.4,39.8,26.7,53.8c15.4,14.2,35.5,22,56.4,22S297,165.7,312.4,151.5z"
		/>
	<rect x="29.2" y="278.2" class="st0" width="53.8" height="46.2"/>
	<rect x="29.2" y="217.8" class="st0" width="53.8" height="46.2"/>
	<path class="st0" d="M97.1,384.3c0,0.2,0,0.3,0,0.5h45.8c4.4,0,8-3.6,8-8v-38.2H97.1V384.3z"/>
	<path class="st0" d="M29.2,165.5v38.2h53.8v-45.7c0-0.2,0-0.3,0-0.5H37.2C32.8,157.4,29.2,161,29.2,165.5z"/>
	<path class="st0" d="M0,0v512h512V0H0z M497,376.7c0,12.2-9.9,22.2-22.2,22.2H369.2c-12.2,0-22.2-9.9-22.2-22.2v-98.6h-16v106.1
		c0,12.2-9.9,22.2-22.2,22.2h-23.1v16h0.5c8.1,0,14.6,6.6,14.6,14.6v45.3c0,8.1-6.6,14.6-14.6,14.6h-60.4c-8.1,0-14.6-6.6-14.6-14.6
		v-45.3c0-8.1,6.6-14.6,14.6-14.6h0.5v-16h-23.1c-12.2,0-22.2-9.9-22.2-22.2V278.2h-16v98.6c0,12.2-9.9,22.2-22.2,22.2H37.2
		c-12.2,0-22.2-9.9-22.2-22.2V165.5c0-12.2,9.9-22.2,22.2-22.2h105.6c12.2,0,22.2,9.9,22.2,22.2V264h16v-45.7
		c0-8.1,6.6-14.6,14.6-14.6h53.3v-16.3c-21.9-1.6-42.6-10.4-58.9-25.4c-17.9-16.5-29-38.8-31.2-63c-0.4-4.1,1-8.2,3.8-11.3
		c2.8-3,6.7-4.8,10.8-4.8h42l33.6-33.6V22.1c0-3.9,3.2-7.1,7.1-7.1s7.1,3.2,7.1,7.1v27.3l33.6,33.6h42c4.1,0,8,1.7,10.8,4.8
		c2.8,3,4.2,7.2,3.8,11.3c-2.2,24.1-13.3,46.5-31.2,63c-16.3,15-37,23.8-58.9,25.4v16.3h53.3c8.1,0,14.6,6.6,14.6,14.6V264h16v-98.6
		c0-12.2,9.9-22.2,22.2-22.2h105.6c12.2,0,22.2,9.9,22.2,22.2V376.7z"/>
	<path class="st0" d="M82.9,338.5H29.2v38.2c0,4.4,3.6,8,8,8H83c0-0.2,0-0.3,0-0.5V338.5z"/>
	<rect x="429.1" y="278.2" class="st0" width="53.8" height="46.2"/>
	<path class="st0" d="M429.1,384.3c0,0.2,0,0.3,0,0.5h45.8c4.4,0,8-3.6,8-8v-38.2h-53.8V384.3z"/>
	<path class="st0" d="M271.1,248h-30.2c-8.6,0-15.6,7-15.6,15.6v128.7h61.3V263.5C286.7,255,279.7,248,271.1,248z"/>
	<path class="st0" d="M361.2,165.5v38.2h53.8v-45.7c0-0.2,0-0.3,0-0.5h-45.8C364.8,157.4,361.2,161,361.2,165.5z"/>
	<rect x="429.1" y="217.8" class="st0" width="53.8" height="46.2"/>
	<path class="st0" d="M474.8,157.4H429c0,0.2,0,0.3,0,0.5v45.7h53.8v-38.2C482.8,161,479.2,157.4,474.8,157.4z"/>
	<path class="st0" d="M414.9,338.5h-53.8v38.2c0,4.4,3.6,8,8,8h45.8c0-0.2,0-0.3,0-0.5V338.5z"/>
	<path class="st0" d="M316.4,217.8H195.6c-0.3,0-0.5,0.2-0.5,0.5v166c0,4.4,3.6,8,8,8h8V263.5c0-16.4,13.3-29.7,29.7-29.7h30.2
		c16.4,0,29.7,13.3,29.7,29.7v128.7h8c4.4,0,8-3.6,8-8v-166C316.8,218,316.6,217.8,316.4,217.8z"/>
	<rect x="361.2" y="217.8" class="st0" width="53.8" height="46.2"/>
	<rect x="361.2" y="278.2" class="st0" width="53.8" height="46.2"/>
</g>
</svg>
