<?xml version="1.0" encoding="utf-8"?>
<!-- Generator: Adobe Illustrator 22.0.1, SVG Export Plug-In . SVG Version: 6.00 Build 0)  -->
<svg version="1.1" id="Capa_1" xmlns="http://www.w3.org/2000/svg" xmlns:xlink="http://www.w3.org/1999/xlink" x="0px" y="0px"
	 viewBox="0 0 512 512" style="enable-background:new 0 0 512 512;" xml:space="preserve">
<style type="text/css">
	.st0{display:none;}
	.st1{display:inline;}
	.st2{fill:#FFFFFF;}
</style>
<g class="st0">
	<g class="st1">
		<path class="st2" d="M443.8,175.4v-18.5l68.5-3.2v-34.3l-68.5-3.2V102h-53.5V39.1c0-14.2-11.6-25.8-25.8-25.8H148.1
			c-14.2,0-25.8,11.6-25.8,25.8V102H68.7v14.2l-68.4,3.2v34.3l68.4,3.2v18.5h53.5v39.9H68.7v14.2l-68.4,3.2v34.3l68.4,3.2v18.5h53.5
			V333H68.7v14.2l-68.4,3.2v34.3l68.4,3.2v18.5h53.5v54.3c0,14.2,11.6,25.8,25.8,25.8h216.4c14.2,0,25.8-11.6,25.8-25.8v-54.3h53.5
			v-18.5l68.5-3.2v-34.3l-68.5-3.2V333h-53.5v-44.2h53.5v-18.5l68.5-3.2v-34.3l-68.5-3.2v-14.2h-53.5v-39.9H443.8z M498.7,363.4v8.4
			l-68.5,3.2v17.9h-37.8v-46.3h37.8v13.6L498.7,363.4z M430.3,257.4v17.9h-37.8v-46.3h37.8v13.6l68.5,3.2v8.5L430.3,257.4z
			 M498.7,132.3v8.4l-68.5,3.2v17.9h-37.8v-46.3h37.8v13.6L498.7,132.3z M364.5,473H148.1c-6.8,0-12.2-5.5-12.2-12.2V39.1
			c0-6.8,5.5-12.3,12.2-12.3h216.4c6.7,0,12.2,5.5,12.2,12.3v421.6C376.7,467.5,371.3,473,364.5,473z M13.8,371.8v-8.4l68.5-3.2
			v-13.6h37.8v46.3H82.3V375L13.8,371.8z M13.8,254.2v-8.4l68.5-3.2v-13.6h37.8v46.3H82.3v-17.9L13.8,254.2z M13.8,140.8v-8.4
			l68.5-3.2v-13.6h37.8v46.3H82.3V144L13.8,140.8z"/>
	</g>
</g>
<path class="st2" d="M364.5,13.3H145.2c-13.8,0-25,11.2-25,25v423.2c0,13.8,11.2,25,25,25h219.4c13.8,0,25-11.2,25-25V38.3
	C389.6,24.5,378.4,13.3,364.5,13.3z M169.7,80.6c-9.3,0-16.8-7.5-16.8-16.8c0-9.3,7.5-16.8,16.8-16.8c9.3,0,16.8,7.5,16.8,16.8
	C186.5,73.1,179,80.6,169.7,80.6z"/>
<polygon class="st2" points="131.9,106.3 131.9,166.4 75.7,166.4 75.7,149.3 9.8,140.5 9.8,132.2 75.7,123.4 75.7,106.3 "/>
<polygon class="st2" points="131.9,219.8 131.9,280 75.7,280 75.7,262.9 9.8,254 9.8,245.8 75.7,236.9 75.7,219.8 "/>
<polygon class="st2" points="131.9,337.3 131.9,397.5 75.7,397.5 75.7,380.4 9.8,371.6 9.8,363.3 75.7,354.5 75.7,337.3 "/>
<polygon class="st2" points="374.4,397.5 374.4,337.3 430.5,337.3 430.5,354.5 496.4,363.3 496.4,371.6 430.5,380.4 430.5,397.5 "/>
<polygon class="st2" points="374.4,282 374.4,221.8 430.5,221.8 430.5,238.9 496.4,247.8 496.4,256 430.5,264.9 430.5,282 "/>
<polygon class="st2" points="374.4,166.4 374.4,106.3 430.5,106.3 430.5,123.4 496.4,132.2 496.4,140.5 430.5,149.3 430.5,166.4 "/>
</svg>
