<svg xmlns="http://www.w3.org/2000/svg" viewBox="0 0 1579 1009"><defs><style>.cls-1{fill:#f2d166;}.cls-2{fill:#858585;}.cls-3{fill:#e9e9e9;}.cls-4{fill:#d1d1d1;}.cls-5{fill:#f2f2f2;}.cls-6{fill:#ebebeb;}.cls-7{fill:#285eb3;}.cls-8{fill:none;stroke:#49d6c7;stroke-miterlimit:10;stroke-width:0.75px;}.cls-9{fill:#bdbdbd;}.cls-10{fill:#a3db8c;}.cls-11{fill:#e7e86f;}.cls-12{fill:#e0729a;}.cls-13{fill:#c7c7c7;}.cls-14{fill:#49d6c7;}.cls-15{fill:#a8c8e1;}.cls-16{font-size:24px;font-family:MyriadPro-Regular, Myriad Pro;}.cls-17{letter-spacing:0.01em;}.cls-18{letter-spacing:-0.01em;}.cls-19{letter-spacing:0.01em;}.cls-20{letter-spacing:-0.01em;}.cls-21{letter-spacing:-0.01em;}.cls-22{letter-spacing:0.01em;}.cls-23{letter-spacing:-0.01em;}</style></defs><title>peek</title><g id="Layer_2" data-name="Layer 2"><rect class="cls-1" x="744.42" y="248.97" width="87" height="27"/><rect class="cls-2" x="703.42" y="275.97" width="169" height="44" rx="16.83" ry="16.83"/><rect class="cls-3" x="651.42" y="302.97" width="273" height="209" rx="27" ry="27"/><rect class="cls-1" x="703.42" y="511.97" width="169" height="27"/><ellipse class="cls-4" cx="787.02" cy="141.47" rx="265" ry="39.5"/><path class="cls-2" d="M744,222,781.63,55.81a15.5,15.5,0,1,1,11,.3L831,222Z"/><path class="cls-5" d="M1052,142.19c0-.07,0-.15,0-.22h0A1.64,1.64,0,0,1,1052,142.19Z"/><path class="cls-5" d="M522.07,142h0c0,.07,0,.15,0,.22A1.64,1.64,0,0,1,522.07,142Z"/><path class="cls-5" d="M787,182c-144.67,0-262.26-17.28-264.93-38.75C524.25,205.64,642,256,787,256S1049.79,205.64,1052,143.22C1049.28,164.69,931.7,182,787,182Z"/><rect class="cls-6" x="33.52" y="407.47" width="573.01" height="256.94"/><rect class="cls-7" x="49.02" y="417.69" width="128" height="50.5"/><rect class="cls-7" x="49.02" y="478.94" width="128" height="50.5"/><rect class="cls-7" x="49.02" y="540.19" width="128" height="50.5"/><rect class="cls-7" x="49.02" y="601.44" width="128" height="50.5"/><rect class="cls-7" x="187.02" y="417.69" width="128" height="50.5"/><rect class="cls-7" x="187.02" y="478.94" width="128" height="50.5"/><rect class="cls-7" x="187.02" y="540.19" width="128" height="50.5"/><rect class="cls-7" x="187.02" y="601.44" width="128" height="50.5"/><rect class="cls-7" x="326.02" y="417.69" width="128" height="50.5"/><rect class="cls-7" x="326.02" y="478.94" width="128" height="50.5"/><rect class="cls-7" x="326.02" y="540.19" width="128" height="50.5"/><rect class="cls-7" x="326.02" y="601.44" width="128" height="50.5"/><rect class="cls-7" x="464.02" y="417.69" width="128" height="50.5"/><rect class="cls-7" x="464.02" y="478.94" width="128" height="50.5"/><rect class="cls-7" x="464.02" y="540.19" width="128" height="50.5"/><rect class="cls-7" x="464.02" y="601.44" width="128" height="50.5"/><rect class="cls-6" x="973.48" y="407.47" width="573.01" height="256.94"/><rect class="cls-7" x="988.98" y="417.69" width="128" height="50.5"/><rect class="cls-7" x="988.98" y="478.94" width="128" height="50.5"/><rect class="cls-7" x="988.98" y="540.19" width="128" height="50.5"/><rect class="cls-7" x="988.98" y="601.44" width="128" height="50.5"/><rect class="cls-7" x="1126.98" y="417.69" width="128" height="50.5"/><rect class="cls-7" x="1126.98" y="478.94" width="128" height="50.5"/><rect class="cls-7" x="1126.98" y="540.19" width="128" height="50.5"/><rect class="cls-7" x="1126.98" y="601.44" width="128" height="50.5"/><rect class="cls-7" x="1265.98" y="417.69" width="128" height="50.5"/><rect class="cls-7" x="1265.98" y="478.94" width="128" height="50.5"/><rect class="cls-7" x="1265.98" y="540.19" width="128" height="50.5"/><rect class="cls-7" x="1265.98" y="601.44" width="128" height="50.5"/><rect class="cls-7" x="1403.98" y="417.69" width="128" height="50.5"/><rect class="cls-7" x="1403.98" y="478.94" width="128" height="50.5"/><rect class="cls-7" x="1403.98" y="540.19" width="128" height="50.5"/><rect class="cls-7" x="1403.98" y="601.44" width="128" height="50.5"/><rect class="cls-6" x="600.52" y="437.12" width="59" height="13"/><rect class="cls-6" x="600.52" y="620.19" width="59" height="13"/><rect class="cls-6" x="919.19" y="437.9" width="59" height="13"/><rect class="cls-6" x="919.19" y="620.97" width="59" height="13"/><rect class="cls-8" x="832.81" y="751.65" width="98" height="34"/><rect class="cls-9" x="821.52" y="443.65" width="75" height="28"/><rect class="cls-10" x="821.52" y="340.65" width="9" height="57"/><rect class="cls-11" x="887.52" y="340.65" width="9" height="57"/><rect class="cls-12" x="854.52" y="339.97" width="9" height="57"/><rect class="cls-13" x="690.52" y="339.65" width="31" height="132"/><path class="cls-14" d="M916.52,690.65a96.46,96.46,0,0,1,13.9,1V810a27,27,0,0,1-27,27H836.57a95,95,0,0,1,79.95-146.32m0-.75a95.75,95.75,0,0,0-80.58,147.47l.22.35h67.26A27.78,27.78,0,0,0,931.17,810V691l-.64-.09a96.7,96.7,0,0,0-14-1Z"/><path class="cls-14" d="M865,837.75l-5.2,17.47H849a72.13,72.13,0,0,1-17.71-17.47H865m1-.75H829.87a72.74,72.74,0,0,0,18.89,19h11.59L866,837Z"/><path d="M917.86,695.65a90,90,0,1,1-90,90,90.1,90.1,0,0,1,90-90m0-5a95,95,0,1,0,95,95,95,95,0,0,0-95-95Z"/><path class="cls-1" d="M833.33,829h-129l6.74,27H853.83A95.19,95.19,0,0,1,833.33,829Z"/><path class="cls-3" d="M823,785.65a95,95,0,0,1,95-95,96.46,96.46,0,0,1,13.9,1V566a27,27,0,0,0-27-27h-231a27,27,0,0,0-27,27V810a27,27,0,0,0,27,27H838.07A94.56,94.56,0,0,1,823,785.65Z"/><rect class="cls-15" x="645.52" y="751.65" width="100" height="34"/><polyline class="cls-8" points="931 734.67 1040.75 734.5 1086 720 1491.5 720.5"/><polyline class="cls-8" points="930.42 771.33 1038.5 771.5 1083.83 790.58 1286 790.58"/><polyline class="cls-8" points="863.17 846.48 1040.5 846.5 1085.5 866.5 1224 866.5"/><text class="cls-16" transform="translate(1091.19 714.1)"><tspan class="cls-17">H</tspan><tspan x="15.89" y="0">igh p</tspan><tspan class="cls-18" x="66.98" y="0">r</tspan><tspan x="74.59" y="0">ecision CNC-machined stru</tspan><tspan class="cls-19" x="344.44" y="0">c</tspan><tspan x="355.51" y="0">tu</tspan><tspan class="cls-18" x="376.67" y="0">r</tspan><tspan x="384.28" y="0">e</tspan></text><text class="cls-16" transform="translate(1091.19 787.67)"><tspan class="cls-20">C</tspan><tspan x="13.63" y="0">us</tspan><tspan class="cls-21" x="36.36" y="0">t</tspan><tspan x="44.16" y="0">om sensor slot</tspan></text><text class="cls-16" transform="translate(1091.19 863.67)"><tspan class="cls-22">M</tspan><tspan x="19.58" y="0">ini thrus</tspan><tspan class="cls-23" x="101.06" y="0">t</tspan><tspan x="108.86" y="0">er</tspan></text></g></svg>