<?xml version="1.0" encoding="utf-8"?>
<!-- Generator: Adobe Illustrator 22.1.0, SVG Export Plug-In . SVG Version: 6.00 Build 0)  -->
<svg version="1.1" id="Capa_1" xmlns="http://www.w3.org/2000/svg" xmlns:xlink="http://www.w3.org/1999/xlink" x="0px" y="0px"
	 viewBox="0 0 512 512" style="enable-background:new 0 0 512 512;" xml:space="preserve">
<style type="text/css">
	.st0{fill:#DEF1F0;}
	.st1{fill:#6EC0BB;}
	.st2{fill:#5AB7B2;}
	.st3{fill:#EDF7F7;}
	.st4{fill:#87CAC7;}
	.st5{fill:#CEE9E8;}
	.st6{fill:#D9EEED;}
	.st7{fill:#C0E4E2;}
	.st8{fill:#B5DFDC;}
	.st9{fill:#BFE3E1;}
	.st10{fill:#82C8C4;}
	.st11{fill:#71C1BD;}
</style>
<polygon class="st0" points="316.7,286.4 325.4,312.4 256,477.3 186.6,312.4 195.3,286.4 "/>
<polygon class="st1" points="299.4,486 264.7,347.1 282,312.4 282,295.1 230,295.1 230,312.4 247.3,347.1 212.6,486 "/>
<path class="st2" d="M212.6,486h86.8l-17.4-68c-19.3,10.6-39.2,19.8-59.7,27.8L212.6,486z"/>
<g>
	<polygon class="st3" points="186.6,312.4 203.9,355.8 238.6,303.7 203.9,260.3 	"/>
	<polygon class="st3" points="325.4,312.4 308.1,355.8 273.4,303.7 308.1,260.3 	"/>
</g>
<path class="st4" d="M360.1,312.4h-34.7L256,477.3l-69.4-164.9h-34.7c-38.3,0-69.4,31.1-69.4,69.4V512h347.1V381.8
	C429.6,343.5,398.5,312.4,360.1,312.4z"/>
<g>
	<path class="st5" d="M125.8,138.8c0,14.4,11.7,26,26,26h8.7v-52.1h-8.7C137.5,112.8,125.8,124.5,125.8,138.8z"/>
	<path class="st5" d="M360.1,112.8h-8.7v52.1h8.7c14.4,0,26-11.7,26-26S374.5,112.8,360.1,112.8z"/>
</g>
<path class="st6" d="M351.5,122.4c0-48.5-39.3-87.7-87.7-87.7c-0.1,0-0.1,0-0.2,0h-15.4c-41.1,0-76.7,28.6-85.7,68.7
	c-1.1,6.9-1.8,13.8-2.1,20.8c0,8.7,0,91.7,0,91.7c0,48.5,39.3,87.7,87.7,87.7l0,0h15.4c48.5,0.1,87.8-39.1,87.9-87.6
	c0-0.1,0-0.1,0-0.2v-1.8C351.5,205.8,351.5,122.4,351.5,122.4z"/>
<g>
	<circle class="st1" cx="203.9" cy="138.8" r="17.4"/>
	<circle class="st1" cx="308.1" cy="138.8" r="17.4"/>
</g>
<rect x="208" y="147.5" transform="matrix(0.1241 -0.9923 0.9923 0.1241 57.8136 377.9401)" class="st7" width="69.9" height="17.4"/>
<path class="st8" d="M195.3,60.7v-39c-22,18.1-34.7,45.2-34.7,73.7v17.4C181.5,103.9,195.1,83.5,195.3,60.7z"/>
<g>
	<path class="st9" d="M351.5,112.8l-10.2-4.1c-15.9-13.3-24.6-22-24.6-48H186.6c-19.2,0-34.7-15.5-34.7-34.7V0l43.4,8.7h104.1
		c28.8,0,52.1,23.3,52.1,52.1V112.8z"/>
	<path class="st9" d="M327.6,194.7c-6,7.6-17,8.9-24.7,3.1c-27.8-20.8-66-20.8-93.7,0c-7.7,5.8-18.7,4.4-24.7-3.1l-23.9-27.5
		c0,24,0,48.8,0,48.8c0,48.5,39.3,87.7,87.7,87.7l0,0h15.4c48.5,0,87.7-39.3,87.7-87.7l0,0v-1.8c0-4.3,0-29.2,0-52.1L327.6,194.7z"
		/>
</g>
<path class="st6" d="M245.2,234.3H230v-17.4h15.3c11.4,0,22.7-2.7,32.9-7.7l7.8,15.4C273.3,231,259.4,234.3,245.2,234.3z"/>
<path class="st10" d="M268,448.9l-12,28.4l-8.7-20.7c-53.4,18.1-108.7,29.8-164.9,34.7V512h347.1V381.8c0-14.2-4.4-28-12.5-39.7
	C379,392.5,324.6,426.3,268,448.9z"/>
<rect x="308.1" y="416.5" class="st11" width="78.1" height="17.4"/>
</svg>
