<?xml version="1.0" encoding="utf-8"?>
<!-- Generator: Adobe Illustrator 22.0.1, SVG Export Plug-In . SVG Version: 6.00 Build 0)  -->
<svg version="1.1" id="Capa_1" xmlns="http://www.w3.org/2000/svg" xmlns:xlink="http://www.w3.org/1999/xlink" x="0px" y="0px"
	 viewBox="0 0 512 512" style="enable-background:new 0 0 512 512;" xml:space="preserve">
<style type="text/css">
	.st0{fill:#FFFFFF;}
</style>
<g>
	<path class="st0" d="M414.2,1333.6c-2.8,0-5,2.2-5,5v29.4c0,2.8,2.2,5,5,5s5-2.2,5-5v-29.4C419.2,1335.8,417,1333.6,414.2,1333.6z"
		/>
	<path class="st0" d="M451.2,1370.2v-30.9c0-2.8-2.2-5-5-5s-5,2.2-5,5v30.9c0,2.8,2.2,5,5,5S451.2,1373,451.2,1370.2z"/>
	<path class="st0" d="M450.5,1402.8c-0.7,0.2-1.4,0.3-2.1,0.3c-2.8,0-5,2.2-5,5c0,2.8,2.2,5,5,5c1.6,0,3.2-0.2,4.7-0.6
		c2.7-0.7,4.2-3.5,3.5-6.1C455.9,1403.6,453.2,1402.1,450.5,1402.8z"/>
	<path class="st0" d="M686.2,1423.9c0-9.7-4.5-18.5-12.1-24.1c2.2-4.5,3.3-9.4,3.3-14.5c0-11.7-6.1-22-15.3-28
		c0.1-1.2,0.2-2.4,0.2-3.6c0-18.8-15.3-34.1-34.1-34.1c-17.9,0-32.6,13.8-33.9,31.4c-15.7,2.7-27.7,16.4-27.7,32.8
		c0,2.8,0.3,5.6,1,8.3c-4.4,2.4-7.6,6.5-8.9,11.3c-1.5-0.2-3-0.3-4.4-0.3c-15.5,0-29,10.1-33.7,24.3c-3.9-1.4-8.2-1.9-12.6-1.3
		c-2.8-10.4-12.3-17.9-23.6-17.9c-0.5,0-0.9,0-1.4,0c0.1-0.8,0.2-1.6,0.2-2.4c0-10-8.1-18.1-18-18.2c-2.8-6.5-9.3-11-16.7-11
		c-2.8,0-5,2.2-5,5c0,2.8,2.2,5,5,5c4.1,0,7.6,3.1,8.2,7.1c0.2,1.4,1,2.7,2.2,3.5c1.2,0.8,2.7,1,4.1,0.7c0.7-0.2,1.5-0.3,2.1-0.3
		c4.5,0,8.2,3.7,8.2,8.2c0,3.4-2.1,6.4-5.3,7.7c-1.4,0.6-2.5,1.7-3,3.2c-0.7,2.5,1.1,5.1,1.1,5.1c0.8,1.4,2.2,2.3,3.7,2.4
		c1.6,0.2,3.1-0.4,4.2-1.5c2.8-2.9,6.5-4.5,10.4-4.5c7.9,0,14.3,6.2,14.5,14.1c0,1.6,0.9,3.1,2.2,4c1.3,0.9,3,1.1,4.6,0.5
		c0.7-0.3,3.2-1.1,6-1.1c3.4,0,6.7,1,9.5,3c1.4,1,3.3,1.2,4.9,0.5c1.6-0.7,2.7-2.2,2.9-3.9c1.6-12.7,12.5-22.3,25.3-22.3
		c2.5,0,5,0.4,7.4,1.1c1.6,0.5,3.3,0.1,4.6-0.9c1.3-1.1,2-2.7,1.8-4.4c0-0.3,0-0.5,0-0.8c0-2.8,1.4-5.2,3.6-6.7
		c4.2,6,10.9,10.1,18.5,10.6c0.1,0,0.2,0,0.3,0c2.6,0,4.8-2,5-4.7c0.2-2.8-1.9-5.1-4.7-5.3c-5.5-0.4-10.2-3.9-12.3-8.8
		c-0.5-1.2-1.9-4.5-1.9-9.3c0-12.9,10.5-23.3,23.3-23.3c6.3,0,12.1,2.5,16.5,6.8c-6.4,11.2-4.9,25.7,4.7,35.3c1,1,2.3,1.5,3.5,1.5
		s2.6-0.5,3.5-1.5c2-2,2-5.1,0-7.1c-7.4-7.4-7.5-19.2-0.4-26.8c0.1-0.2,0.5-0.5,0.5-0.6c4.3-4,9.9-6.2,15.8-6.2
		c12.9,0,23.3,10.5,23.3,23.3c0,4.8-1.4,9.4-4.2,13.3c-0.8,1.2-1.1,2.7-0.7,4.1c0.4,1.4,1.3,2.6,2.6,3.2
		c6.9,3.4,11.1,10.3,11.1,17.9c0,9.1-6.1,17.1-14.9,19.4c-1.3,0.3-2.4,1.2-3.1,2.4c-0.7,1.2-0.8,2.6-0.5,3.9
		c0.5,1.9,0.8,3.8,0.8,5.7c0,0.1,0,0.3,0,0.4H201.9c0-0.1,0-1.5,0.1-2c0.1-1.4,0.4-2.8,0.8-4.2c0.4-1.3,0.2-2.7-0.5-3.9
		c-0.7-1.2-1.8-2-3.1-2.4c-8.8-2.3-14.9-10.3-14.9-19.4c0-6,2.6-11.4,7-15.2c0.3-0.3,1.7-1.3,2-1.5c7.2-4.7,17.3-4.6,23.7,1.8
		c1,1,2.3,1.5,3.5,1.5s2.6-0.5,3.5-1.5c2-2,2-5.1,0-7.1c-7.8-7.8-18.9-10-28.7-6.8c-1.4-3.1-2.2-6.4-2.2-9.9
		c0-12.9,10.5-23.3,23.3-23.3c5.7,0,11.1,2.1,15.3,5.8c-2,4-3,8.4-3,12.9c0,7.8,3,15.2,8.6,20.7c1,1,2.3,1.5,3.5,1.5
		s2.6-0.5,3.5-1.5c2-2,2-5.1,0-7.1c-3.6-3.6-5.6-8.5-5.6-13.6c0-5,1.9-9.7,5.3-13.2c4.4-4.4,10.2-6.9,16.5-6.9
		c12.9,0,23.3,10.5,23.3,23.3c0,3.2-0.6,6.3-1.9,9.3c-0.6,1.4-0.5,3,0.2,4.3c0.7,1.3,2,2.3,3.5,2.6c3.2,0.6,5.7,3,6.4,6.1
		c-10.7,5.1-17.7,16.5-16.6,29c0.2,2.8,2.7,4.8,5.4,4.6c2.8-0.2,4.8-2.7,4.6-5.4c-0.8-9.1,4.9-17.2,13.2-19.9c3-0.9,6.6-1.1,7.6-1.1
		c12.8,0,23.7,9.6,25.3,22.3c0.2,1.7,1.3,3.2,2.9,3.9c1.6,0.7,3.5,0.5,4.9-0.5c2.9-2,6.6-3,10.3-3c2.3,0,4.6,0.6,5.8,1.1
		c0,0,0,0,0,0c4.2,1.8,7.2,6,7.2,10.9c0,2.8,2.2,5,5,5s5-2.2,5-5c0-7.9-4.2-14.9-10.6-18.7c1.6-6.3,7.3-11,14-11
		c4,0,7.7,1.6,10.4,4.5c1.1,1.1,2.6,1.7,4.2,1.5c1.6-0.2,2.9-1.1,3.7-2.4c0,0,2-2.8,1.1-5.1c-0.6-1.4-1.5-2.6-3-3.2
		c-3.2-1.2-5.3-4.3-5.3-7.7c0-4.5,3.7-8.2,8.2-8.2c0.7,0,1.4,0.1,2.1,0.3c1.4,0.4,2.9,0.1,4.1-0.7c1.2-0.8,2-2.1,2.2-3.5
		c0.5-4.1,4-7.1,8.2-7.1c2.8,0,5-2.2,5-5s-2.2-5-5-5c-7.4,0-13.9,4.5-16.7,11c-10,0.1-18,8.2-18,18.2c0,0.8,0.1,1.6,0.2,2.4
		c-0.5,0-0.9,0-1.4,0c-11.1,0-20.7,7.6-23.6,17.9c-4.2-0.6-8.6-0.1-12.6,1.3c-4.7-14.3-18.2-24.3-33.7-24.3c-1.5,0-3,0.1-4.4,0.3
		c-1.3-4.8-4.5-8.9-8.9-11.3c0.7-2.7,1-5.5,1-8.3c0-18.4-14.9-33.3-33.3-33.3c-8.7,0-16.8,3.3-22.9,9.1c-5.9-4.9-13.4-7.6-21.2-7.6
		c-18.4,0-33.3,14.9-33.3,33.3c0,5.1,1.1,10,3.3,14.5c-7.6,5.6-12.1,14.4-12.1,24.1c0,12,7.2,22.7,17.9,27.5
		c-0.2,1.3-0.2,2.5-0.2,3.8c0,2.2,0.2,4.4,0.7,6.5c0.5,2.3,2.5,3.9,4.9,3.9h465.5c2.4,0,4.4-1.6,4.9-3.9c0.5-2.1,0.7-4.3,0.7-6.5
		c0-1.3-0.1-2.5-0.2-3.8C679,1446.6,686.2,1435.9,686.2,1423.9z M622.8,1359.6c-5.1-4.8-11.5-7.9-18.4-8.8
		c1.4-11.9,11.6-21.2,23.9-21.2c13,0,23.7,10.4,24,23.4c-2.6-0.7-5.4-1-8.2-1C636.2,1351.9,628.8,1354.7,622.8,1359.6z"/>
	<path class="st0" d="M407.9,1445.3c-0.5,2.7,1.4,5.3,4.1,5.8c0.3,0,0.6,0.1,0.8,0.1c2.4,0,4.5-1.7,4.9-4.2
		c1.3-7.9,7.6-14,15.5-15.2c7.4-1.1,14.7,2.2,18.6,8.6c1.4,2.4,4.5,3.1,6.9,1.6c2.4-1.4,3.1-4.5,1.6-6.9c-6-9.8-17.3-15-28.6-13.2
		c-0.5,0.1-0.9,0.2-1.4,0.3c-2.8-9.8-11.6-16.9-21.9-17.6c-2.8-0.2-5.1,1.9-5.3,4.7c-0.2,2.8,1.9,5.1,4.7,5.3
		c6.4,0.4,11.8,5.1,13.2,11.3C414.2,1430.1,409.3,1437.1,407.9,1445.3z"/>
	<path class="st0" d="M396,1330.3h68.4c2.8,0,5-2.2,5-5v-73.9c0-0.9-0.3-1.8-0.7-2.6l-17.5-28.2V1052c0-0.6-0.1-1.2-0.3-1.7
		l-16-43.8c-0.7-2-2.6-3.3-4.7-3.3c-2.1,0-4,1.3-4.7,3.3l-16,43.8c-0.2,0.5-0.3,1.1-0.3,1.7v168.5l-17.5,28.2
		c-0.5,0.8-0.7,1.7-0.7,2.6v73.9C391,1328.1,393.2,1330.3,396,1330.3z M441.2,1057v6.5h-22v-6.5C419.2,1057,441.2,1057,441.2,1057z
		 M419.2,1320.3v-246.7h22v246.7H419.2z M459.4,1252.8v67.5h-8.2v-80.7L459.4,1252.8z M430.2,1022.8l8.8,24.2h-17.7L430.2,1022.8z
		 M401,1252.8l8.2-13.2v80.7H401V1252.8z"/>
</g>
<polygon class="st0" points="245.5,1.4 230.1,43.6 260.9,43.6 "/>
<rect x="230.1" y="64" class="st0" width="30.8" height="302.5"/>
<polygon class="st0" points="204.6,366.5 226.3,366.5 226.3,253.4 204.6,271.9 "/>
<polygon class="st0" points="264.2,366.5 286.4,366.5 286.4,271.9 264.2,253.4 "/>
<rect x="230.1" y="49.4" class="st0" width="30.8" height="9.2"/>
<path class="st0" d="M397.6,512H161.1c0,0-46.7-2.4-46.7-2c0,0,0.2-24.6,35.7-34.9c2.2-8.8,10.2-15.4,19.7-15.4
	c0,0-1.7-14.5,15.8-17.3c0-6.4,5.2-11.5,11.5-11.5c1,0,2,0.1,3,0.4c1.9,0.5,4,0.2,5.7-0.9c1.7-1.1,2.8-2.9,3.1-4.9
	c0.7-5.7,5.7-10,11.4-10c3.9,0,16.4-4.2,16.4-8.1c0-0.4,0,0,3.1,0h5.8c-0.1,0.4,9.7-0.5,9.7-0.1c0,3.9,12.1,8.2,16,8.2
	c5.8,0,10.7,4.3,11.4,10c0.3,2,1.4,3.8,3.1,4.9c1.7,1.1,3.8,1.5,5.7,0.9c1-0.3,2-0.4,3-0.4c6.4,0,11.5,5.2,11.5,11.5
	c0,1-0.1,2-0.4,3c12.3,1.8,16.2,14.3,16.2,14.3c11.1,0,20,8.7,20.3,19.8c0.1,2.3,1.2,4.4,3.1,5.6c1.9,1.3,4.3,1.6,6.4,0.8
	c1-0.4,4.5-1.5,8.4-1.5c4.8,0,9.4,1.4,13.4,4.2c2,1.4,4.6,1.6,6.9,0.6C389.2,492.5,397.6,512,397.6,512z"/>
<polygon class="st0" points="255.6,400.3 235.8,400.4 230.1,372.2 260.9,372.2 "/>
</svg>
