<svg xmlns="http://www.w3.org/2000/svg" viewBox="0 0 681.42 522"><defs><style>.cls-1{fill:#9ee3df;}.cls-2{fill:#bfecea;}.cls-3{fill:#ebf9f8;}.cls-4{fill:#24bfb6;}.cls-5{fill:#bdece9;}.cls-6{fill:#e0f6f5;}.cls-7{fill:#1fbdb4;}.cls-8{fill:#4dcbc4;}.cls-9{fill:#70d5cf;}.cls-10{fill:#fff;}.cls-11{fill:#17bbb2;}.cls-12{fill:#00b4aa;}</style></defs><title>Satellite</title><g id="Layer_2" data-name="Layer 2"><g id="Layer_1-2" data-name="Layer 1"><rect class="cls-1" x="95.21" y="477.95" width="70.77" height="1.69" transform="translate(-81.01 29.88) rotate(-9.98)"/><path class="cls-2" d="M94.78,477.12c2.47,1.22,2.9,5.41.94,9.36s-5.54,6.16-8,4.93-2.9-5.41-.94-9.36S92.31,475.89,94.78,477.12Z"/><path class="cls-2" d="M85.38,473.6c2.47,1.22,2.89,5.42.94,9.36s-5.55,6.16-8,4.94-2.89-5.42-.94-9.37S82.9,472.38,85.38,473.6Z"/><path class="cls-2" d="M86.94,439.07c2,1.91,1.13,6-1.92,9.22s-7.13,4.21-9.12,2.3-1.14-6,1.91-9.22S85,437.16,86.94,439.07Z"/><rect class="cls-1" x="127.79" y="419.52" width="1.69" height="70.77" transform="translate(-332.95 557) rotate(-86.68)"/><path class="cls-2" d="M94.16,445c2.13,1.76,1.57,5.93-1.24,9.33s-6.8,4.71-8.93,2.95-1.57-5.93,1.24-9.33S92,443.27,94.16,445Z"/><g id="Solar_Panel" data-name="Solar Panel"><rect class="cls-3" x="114.29" y="-50.99" width="72.57" height="300.09" transform="translate(-4.98 190.09) rotate(-63.68)"/><rect class="cls-4" x="30.73" y="21.48" width="54.59" height="63.56" transform="translate(-15.45 81.65) rotate(-63.68)"/><path class="cls-2" d="M100.31,42.32,75,93.52,15.74,64.21,41.07,13ZM73.83,90.13,96.92,43.46,42.21,16.4,19.13,63.06Z"/><line class="cls-4" x1="94.58" y1="51.05" x2="37.61" y2="22.86"/><rect class="cls-2" x="64.81" y="5.18" width="2.56" height="63.56" transform="translate(3.66 79.81) rotate(-63.68)"/><line class="cls-4" x1="90.54" y1="59.2" x2="33.57" y2="31.02"/><rect class="cls-2" x="60.78" y="13.33" width="2.56" height="63.56" transform="translate(-5.89 80.73) rotate(-63.68)"/><line class="cls-4" x1="86.51" y1="67.36" x2="29.54" y2="39.17"/><rect class="cls-2" x="56.74" y="21.49" width="2.56" height="63.56" transform="translate(-15.45 81.65) rotate(-63.68)"/><line class="cls-4" x1="82.47" y1="75.51" x2="25.5" y2="47.33"/><rect class="cls-2" x="52.71" y="29.64" width="2.56" height="63.56" transform="translate(-25 82.58) rotate(-63.68)"/><line class="cls-4" x1="78.44" y1="83.67" x2="21.47" y2="55.48"/><rect class="cls-2" x="48.67" y="37.79" width="2.56" height="63.56" transform="translate(-34.56 83.5) rotate(-63.68)"/><line class="cls-4" x1="26.93" y1="68.33" x2="51.14" y2="19.41"/><rect class="cls-2" x="11.74" y="42.84" width="54.59" height="2.07" transform="translate(-17.6 59.39) rotate(-63.66)"/><line class="cls-4" x1="36.42" y1="73.03" x2="60.63" y2="24.1"/><rect class="cls-2" x="21.23" y="47.53" width="54.59" height="2.07" transform="translate(-16.52 70.54) rotate(-63.69)"/><line class="cls-4" x1="45.92" y1="77.73" x2="70.13" y2="28.8"/><rect class="cls-2" x="30.73" y="52.23" width="54.59" height="2.07" transform="translate(-15.45 81.66) rotate(-63.68)"/><line class="cls-4" x1="55.41" y1="82.43" x2="79.62" y2="33.5"/><rect class="cls-2" x="40.22" y="56.93" width="54.59" height="2.07" transform="translate(-14.36 92.8) rotate(-63.69)"/><line class="cls-4" x1="64.91" y1="87.12" x2="89.12" y2="38.19"/><rect class="cls-2" x="49.72" y="61.62" width="54.59" height="2.07" transform="translate(-13.29 103.93) rotate(-63.69)"/><rect class="cls-4" x="92.44" y="52.02" width="54.59" height="63.56" transform="translate(-8.47 153.96) rotate(-63.68)"/><path class="cls-2" d="M162,72.85l-25.33,51.2L77.46,94.74l25.32-51.19Zm-26.47,47.81L158.63,74l-54.7-27.07L80.85,93.6Z"/><line class="cls-4" x1="156.29" y1="81.58" x2="99.32" y2="53.4"/><rect class="cls-2" x="126.53" y="35.71" width="2.56" height="63.56" transform="translate(10.64 152.12) rotate(-63.68)"/><line class="cls-4" x1="152.26" y1="89.74" x2="95.29" y2="61.55"/><rect class="cls-2" x="122.49" y="43.86" width="2.56" height="63.56" transform="translate(1.09 153.04) rotate(-63.68)"/><line class="cls-4" x1="148.22" y1="97.89" x2="91.25" y2="69.71"/><rect class="cls-2" x="118.46" y="52.02" width="2.56" height="63.56" transform="translate(-8.46 153.96) rotate(-63.68)"/><line class="cls-4" x1="144.19" y1="106.04" x2="87.22" y2="77.86"/><rect class="cls-2" x="114.42" y="60.17" width="2.56" height="63.56" transform="translate(-18.02 154.89) rotate(-63.68)"/><line class="cls-4" x1="140.16" y1="114.2" x2="83.18" y2="86.01"/><rect class="cls-2" x="110.39" y="68.33" width="2.56" height="63.56" transform="translate(-27.57 155.81) rotate(-63.68)"/><line class="cls-4" x1="88.65" y1="98.87" x2="112.85" y2="49.94"/><rect class="cls-2" x="73.45" y="73.37" width="54.59" height="2.07" transform="translate(-10.62 131.7) rotate(-63.67)"/><line class="cls-4" x1="98.14" y1="103.56" x2="122.35" y2="54.64"/><rect class="cls-2" x="82.95" y="78.06" width="54.59" height="2.07" transform="translate(-9.55 142.81) rotate(-63.66)"/><line class="cls-4" x1="107.64" y1="108.26" x2="131.84" y2="59.33"/><rect class="cls-2" x="92.44" y="82.76" width="54.59" height="2.07" transform="translate(-8.48 153.94) rotate(-63.67)"/><line class="cls-4" x1="117.13" y1="112.96" x2="141.34" y2="64.03"/><rect class="cls-2" x="101.94" y="87.46" width="54.59" height="2.07" transform="translate(-7.4 165.08) rotate(-63.67)"/><line class="cls-4" x1="126.63" y1="117.66" x2="150.83" y2="68.73"/><rect class="cls-2" x="111.43" y="92.16" width="54.59" height="2.07" transform="translate(-6.34 176.18) rotate(-63.66)"/><rect class="cls-4" x="154.11" y="82.53" width="54.59" height="63.56" transform="translate(-1.49 226.22) rotate(-63.68)"/><path class="cls-2" d="M223.69,103.36l-25.33,51.2-59.24-29.31,25.33-51.2Zm-26.48,47.81,23.09-46.66L165.6,77.44,142.51,124.1Z"/><line class="cls-4" x1="217.96" y1="112.09" x2="160.99" y2="83.9"/><rect class="cls-2" x="188.19" y="66.22" width="2.56" height="63.56" transform="translate(17.62 224.37) rotate(-63.68)"/><line class="cls-4" x1="213.92" y1="120.24" x2="156.95" y2="92.06"/><rect class="cls-2" x="184.16" y="74.37" width="2.56" height="63.56" transform="translate(8.07 225.29) rotate(-63.68)"/><line class="cls-4" x1="209.89" y1="128.4" x2="152.92" y2="100.21"/><rect class="cls-2" x="180.12" y="82.53" width="2.56" height="63.56" transform="translate(-1.49 226.21) rotate(-63.68)"/><line class="cls-4" x1="205.85" y1="136.55" x2="148.88" y2="108.37"/><rect class="cls-2" x="176.09" y="90.68" width="2.56" height="63.56" transform="translate(-11.04 227.14) rotate(-63.68)"/><line class="cls-4" x1="201.82" y1="144.71" x2="144.85" y2="116.52"/><rect class="cls-2" x="172.06" y="98.83" width="2.56" height="63.56" transform="translate(-20.6 228.06) rotate(-63.68)"/><line class="cls-4" x1="150.31" y1="129.37" x2="174.52" y2="80.45"/><rect class="cls-2" x="135.12" y="103.88" width="54.59" height="2.07" transform="translate(-3.62 203.99) rotate(-63.69)"/><line class="cls-4" x1="159.81" y1="134.07" x2="184.01" y2="85.14"/><rect class="cls-2" x="144.61" y="108.57" width="54.59" height="2.07" transform="translate(-2.57 215.08) rotate(-63.67)"/><line class="cls-4" x1="169.3" y1="138.77" x2="193.51" y2="89.84"/><rect class="cls-2" x="154.11" y="113.27" width="54.59" height="2.07" transform="translate(-1.52 226.17) rotate(-63.66)"/><line class="cls-4" x1="178.8" y1="143.47" x2="203" y2="94.54"/><rect class="cls-2" x="163.61" y="117.97" width="54.59" height="2.07" transform="translate(-0.38 237.39) rotate(-63.69)"/><line class="cls-4" x1="188.29" y1="148.16" x2="212.5" y2="99.24"/><rect class="cls-2" x="173.1" y="122.66" width="54.59" height="2.07" transform="translate(0.63 248.42) rotate(-63.66)"/><rect class="cls-4" x="215.83" y="113.06" width="54.59" height="63.56" transform="translate(5.5 298.53) rotate(-63.68)"/><path class="cls-2" d="M285.41,133.9l-25.33,51.19-59.23-29.3,25.32-51.2Zm-26.47,47.8L282,135,227.32,108l-23.08,46.66Z"/><line class="cls-4" x1="279.68" y1="142.62" x2="222.71" y2="114.44"/><rect class="cls-2" x="249.92" y="96.75" width="2.56" height="63.56" transform="translate(24.6 296.69) rotate(-63.68)"/><line class="cls-4" x1="275.65" y1="150.78" x2="218.68" y2="122.6"/><rect class="cls-2" x="245.88" y="104.91" width="2.56" height="63.56" transform="translate(15.05 297.62) rotate(-63.68)"/><line class="cls-4" x1="271.61" y1="158.93" x2="214.64" y2="130.75"/><rect class="cls-2" x="241.85" y="113.06" width="2.56" height="63.56" transform="translate(5.5 298.53) rotate(-63.68)"/><line class="cls-4" x1="267.58" y1="167.09" x2="210.61" y2="138.9"/><rect class="cls-2" x="237.81" y="121.22" width="2.56" height="63.56" transform="translate(-4.06 299.46) rotate(-63.68)"/><line class="cls-4" x1="263.54" y1="175.24" x2="206.57" y2="147.06"/><rect class="cls-2" x="233.78" y="129.37" width="2.56" height="63.56" transform="translate(-13.61 300.38) rotate(-63.68)"/><line class="cls-4" x1="212.04" y1="159.91" x2="236.24" y2="110.98"/><rect class="cls-2" x="196.84" y="134.41" width="54.59" height="2.07" transform="translate(3.39 276.34) rotate(-63.69)"/><line class="cls-4" x1="221.53" y1="164.61" x2="245.74" y2="115.68"/><rect class="cls-2" x="206.34" y="139.11" width="54.59" height="2.07" transform="translate(4.46 287.47) rotate(-63.69)"/><line class="cls-4" x1="231.03" y1="169.31" x2="255.23" y2="120.38"/><rect class="cls-2" x="215.83" y="143.81" width="54.59" height="2.07" transform="translate(5.54 298.6) rotate(-63.69)"/><line class="cls-4" x1="240.52" y1="174" x2="264.73" y2="125.08"/><rect class="cls-2" x="225.33" y="148.5" width="54.59" height="2.07" transform="translate(6.61 309.73) rotate(-63.69)"/><line class="cls-4" x1="250.02" y1="178.7" x2="274.22" y2="129.77"/><rect class="cls-2" x="234.82" y="153.2" width="54.59" height="2.07" transform="translate(7.66 320.81) rotate(-63.68)"/><rect class="cls-5" x="114.29" y="97.7" width="72.57" height="2.71" transform="translate(-4.98 190.09) rotate(-63.68)"/><rect class="cls-5" x="52.6" y="67.18" width="72.57" height="2.71" transform="translate(-11.96 117.81) rotate(-63.68)"/><rect class="cls-5" x="-11.57" y="35.43" width="72.57" height="2.71" transform="translate(-19.22 42.62) rotate(-63.68)"/><rect class="cls-5" x="175.98" y="128.22" width="72.57" height="2.71" transform="translate(2 262.37) rotate(-63.68)"/><rect class="cls-5" x="241.07" y="160.42" width="72.57" height="2.71" transform="translate(9.37 338.63) rotate(-63.68)"/></g><path class="cls-1" d="M271.71,205,264,220.59a83.68,83.68,0,0,1,13.47,5.24c40.87,20.22,51.54,52.08,45.66,81.64-6.26,31.46-18.08,51.48-32.54,63.3a62.33,62.33,0,0,1-13.4,8.4l21.73,10.75,4.21,2.08a4.41,4.41,0,0,0,5.91-2l12.75-25.77a73.1,73.1,0,0,0,35.88-34.54,73.45,73.45,0,0,0,5.69-49.49l11.82-23.89a4.52,4.52,0,0,0-2.05-6.06l-7.06-3.49-17.32-8.57-64.09-31.7-7-3.47A4.45,4.45,0,0,0,271.71,205Z"/><path class="cls-2" d="M284.15,375.41l-.25.15Z"/><path class="cls-2" d="M280.75,377.4l-.27.14Z"/><path class="cls-2" d="M287.44,373.2l-.14.1Z"/><path class="cls-6" d="M283.9,375.56c-1,.65-2.09,1.26-3.15,1.84C281.81,376.82,282.86,376.21,283.9,375.56Z"/><path class="cls-6" d="M287.3,373.3c-1,.74-2.09,1.44-3.15,2.11C285.21,374.74,286.26,374,287.3,373.3Z"/><path class="cls-6" d="M280.48,377.54c-1.08.58-2.17,1.12-3.27,1.63C278.31,378.66,279.4,378.11,280.48,377.54Z"/><path class="cls-6" d="M264,220.59l-5,10.13a73.71,73.71,0,0,0-41.32,66.86,74.22,74.22,0,0,0,1.45,13.73l-13.56,27.4a4.5,4.5,0,0,0,2,6l5.5,2.72,40.18,19.88,23.91,11.83c1.1-.51,2.19-1.05,3.27-1.63l.27-.14c1.06-.58,2.11-1.19,3.15-1.84l.25-.15c1.06-.67,2.11-1.37,3.15-2.11l.14-.1c1-.75,2.06-1.53,3.07-2.36h0l.1-.07h0c14.46-11.82,26.29-31.84,32.55-63.3,5.88-29.56-4.79-61.42-45.66-81.64A83.68,83.68,0,0,0,264,220.59Z"/><rect class="cls-7" x="319.93" y="175.6" width="4.25" height="115.49" transform="translate(-29.88 418.6) rotate(-63.69)"/><rect class="cls-7" x="256.42" y="303.97" width="4.25" height="115.49" transform="translate(-180.3 433.13) rotate(-63.69)"/><path class="cls-3" d="M252.36,307.48a224.69,224.69,0,0,1,10-23.54,220.87,220.87,0,0,1,12.59-22.26,180.89,180.89,0,0,1,13.41-18.21c1.76-2.09,3.47-4,5.08-5.71a59,59,0,0,0-54.74,32.83,58.67,58.67,0,0,0-6.12,26.68,59.36,59.36,0,0,0,12.64,36c.25-1.32.53-2.67.84-4.08A184.68,184.68,0,0,1,252.36,307.48Z"/><path class="cls-3" d="M328.12,288a225.24,225.24,0,0,1-22.7,45.73A183.8,183.8,0,0,1,292,351.92q-1.71,2-3.33,3.81a59,59,0,0,0,47.41-97.82c-.41,2.56-.94,5.37-1.6,8.37A180.76,180.76,0,0,1,328.12,288Z"/><path class="cls-8" d="M245.21,333.28c-.93,4.82-1.5,9-1.79,12.19a60.74,60.74,0,0,0-.35,6.5l32.62,16.14a63.07,63.07,0,0,0,4.95-4.22c2.21-2,5-4.79,8-8.16a59,59,0,0,1-43.44-22.45Z"/><path class="cls-8" d="M299.69,231.51c-1.78,1.63-3.91,3.74-6.26,6.25a59,59,0,0,1,42.63,20.15c.49-3,.82-5.71,1-7.9a63.34,63.34,0,0,0,.33-6.5L304.65,227.3A62.21,62.21,0,0,0,299.69,231.51Z"/><path class="cls-9" d="M293.43,237.76c-1.61,1.72-3.32,3.62-5.08,5.71a180.89,180.89,0,0,0-13.41,18.21,220.87,220.87,0,0,0-12.59,22.26,224.69,224.69,0,0,0-10,23.54,184.68,184.68,0,0,0-6.31,21.72c-.31,1.41-.59,2.76-.84,4.08a59,59,0,0,0,43.44,22.45q1.62-1.78,3.33-3.81a183.8,183.8,0,0,0,13.44-18.2A225.24,225.24,0,0,0,328.12,288a180.76,180.76,0,0,0,6.34-21.71c.66-3,1.19-5.81,1.6-8.37a59,59,0,0,0-42.63-20.15Z"/><path class="cls-8" d="M282.27,313.77a19.38,19.38,0,1,1,26-8.78A19.38,19.38,0,0,1,282.27,313.77Z"/><path class="cls-10" d="M286.35,305.52A10.18,10.18,0,1,1,300,300.91,10.17,10.17,0,0,1,286.35,305.52Z"/><path class="cls-11" d="M287.33,303.55A8,8,0,1,1,298,299.94,8,8,0,0,1,287.33,303.55Z"/><path class="cls-2" d="M335.82,356l12,5.93a8.42,8.42,0,0,0,11.28-3.82l22.24-44.95a8.42,8.42,0,0,0-3.81-11.29l-12.19-6A73.83,73.83,0,0,1,335.82,356Z"/><path class="cls-9" d="M382.14,321.83l-15.88,32.1a3.71,3.71,0,0,1-5,1.68l-.76-.38,19.37-39.15.29.14A4.17,4.17,0,0,1,382.14,321.83Z"/><path class="cls-10" d="M373.36,229.9l-8.13,16.44L360.57,244l8.13-16.44ZM364,225.28l-8.13,16.44-4.67-2.3L359.38,223Zm-9.33-4.61-8.13,16.44-4.66-2.31,8.13-16.44Zm-9.32-4.61-8.14,16.44-4.66-2.31,8.13-16.44Zm-9.33-4.62-8.13,16.44-4.67-2.3,8.14-16.44Zm-9.32-4.61-8.14,16.44L313.94,221l8.13-16.44Zm-9.33-4.61-8.13,16.44-4.67-2.31,8.14-16.44Zm-9.33-4.62L300,214l-4.66-2.3,8.13-16.45ZM298.76,193l-8.14,16.44L286,207.12l8.14-16.44Z"/><path class="cls-2" d="M245.08,454.62c-10.23,20.66-24.56,37.16-40.15,47.88l5.86,2.9A27.81,27.81,0,0,0,248,492.81l50.9-102.89-21.73-10.75L253.3,367.34C262.69,390.7,260.47,423.5,245.08,454.62Z"/><path class="cls-6" d="M253.3,367.34l-40.18-19.88L162.28,450.22a28,28,0,0,0,12.66,37.44l30,14.84c15.59-10.72,29.92-27.22,40.15-47.88C260.47,423.5,262.69,390.7,253.3,367.34Z"/><path class="cls-8" d="M202.75,513.3h0a15.62,15.62,0,0,1-20.93,7.08l-3.89-1.93a15.62,15.62,0,0,1-7.07-20.93h0Z"/><path class="cls-10" d="M293.36,393.77l-51.3,103.71-4.67-2.31,51.31-103.7ZM284,389.16l-51.31,103.7-4.66-2.3,51.3-103.71Zm-9.33-4.62L223.4,488.25l-4.66-2.31,51.31-103.7Zm-9.33-4.61-51.3,103.7-4.66-2.3,51.3-103.71Zm-9.32-4.61L204.75,479l-4.66-2.31L251.39,373Zm-9.33-4.62-51.3,103.71-4.67-2.31,51.31-103.7Zm-9.32-4.61L186.1,469.79l-4.66-2.3,51.3-103.71Zm-9.33-4.61-51.3,103.7-4.67-2.31,51.31-103.7Zm-9.33-4.62-51.3,103.71-4.66-2.31,51.3-103.71Z"/><path class="cls-2" d="M211.13,511.51h0a5.33,5.33,0,0,1-7.13,2.41l-33.34-16.49a5.34,5.34,0,0,1-2.41-7.14h0a5.34,5.34,0,0,1,7.14-2.41l33.33,16.49A5.34,5.34,0,0,1,211.13,511.51Z"/><path class="cls-1" d="M223.21,155.91c1.62,2.23,5.82,2,9.39-.64s5.14-6.49,3.52-8.72-5.82-2-9.39.63S221.59,153.67,223.21,155.91Z"/><rect class="cls-1" x="197.79" y="198.53" width="70.77" height="1.69" transform="translate(16 416.07) rotate(-85.47)"/><path class="cls-1" d="M228.11,163.88c1.46,2.34,5.67,2.37,9.41.05s5.61-6.1,4.16-8.44-5.66-2.37-9.41-.06S226.66,161.53,228.11,163.88Z"/><path class="cls-2" d="M247.6,237.62l-12.22-6a8.24,8.24,0,0,0-11,3.74l-22.39,45.25a8.25,8.25,0,0,0,3.73,11.06l12,5.95a73.81,73.81,0,0,1,29.91-60Z"/><path class="cls-9" d="M222.81,238.37l-19.36,39.15,0,0a4.52,4.52,0,0,1-2-6.05l15.37-31a4.51,4.51,0,0,1,6.05-2.05Z"/><rect class="cls-3" x="494.57" y="137.13" width="72.57" height="300.09" transform="translate(38.06 635.64) rotate(-63.68)"/><rect class="cls-4" x="411" y="209.61" width="54.59" height="63.56" transform="translate(27.59 527.2) rotate(-63.68)"/><path class="cls-2" d="M480.58,230.44l-25.33,51.2L396,252.33l25.33-51.2ZM454.1,278.25l23.09-46.66-54.7-27.07L399.4,251.18Z"/><line class="cls-4" x1="474.85" y1="239.17" x2="417.88" y2="210.98"/><rect class="cls-2" x="445.09" y="193.3" width="2.56" height="63.56" transform="translate(46.7 525.35) rotate(-63.68)"/><line class="cls-4" x1="470.82" y1="247.32" x2="413.85" y2="219.14"/><rect class="cls-2" x="441.05" y="201.45" width="2.56" height="63.56" transform="translate(37.15 526.28) rotate(-63.68)"/><line class="cls-4" x1="466.78" y1="255.48" x2="409.81" y2="227.29"/><rect class="cls-2" x="437.02" y="209.61" width="2.56" height="63.56" transform="translate(27.59 527.2) rotate(-63.68)"/><line class="cls-4" x1="462.75" y1="263.63" x2="405.78" y2="235.45"/><rect class="cls-2" x="432.98" y="217.76" width="2.56" height="63.56" transform="translate(18.03 528.12) rotate(-63.68)"/><line class="cls-4" x1="458.71" y1="271.79" x2="401.74" y2="243.6"/><rect class="cls-2" x="428.95" y="225.91" width="2.56" height="63.56" transform="translate(8.48 529.04) rotate(-63.68)"/><line class="cls-4" x1="407.2" y1="256.46" x2="431.41" y2="207.53"/><rect class="cls-2" x="392.01" y="230.96" width="54.59" height="2.07" transform="translate(25.51 505.05) rotate(-63.69)"/><line class="cls-4" x1="416.7" y1="261.15" x2="440.9" y2="212.22"/><rect class="cls-2" x="401.51" y="235.65" width="54.59" height="2.07" transform="translate(26.59 516.19) rotate(-63.69)"/><line class="cls-4" x1="426.19" y1="265.85" x2="450.4" y2="216.92"/><rect class="cls-2" x="411" y="240.35" width="54.59" height="2.07" transform="translate(27.66 527.31) rotate(-63.69)"/><line class="cls-4" x1="435.69" y1="270.55" x2="459.89" y2="221.62"/><rect class="cls-2" x="420.5" y="245.05" width="54.59" height="2.07" transform="translate(28.74 538.44) rotate(-63.69)"/><line class="cls-4" x1="445.18" y1="275.24" x2="469.39" y2="226.32"/><rect class="cls-2" x="429.99" y="249.75" width="54.59" height="2.07" transform="translate(29.82 549.57) rotate(-63.69)"/><rect class="cls-4" x="472.72" y="240.14" width="54.59" height="63.56" transform="translate(34.57 599.51) rotate(-63.68)"/><path class="cls-2" d="M542.3,261,517,312.17l-59.24-29.31,25.33-51.19Zm-26.48,47.81,23.09-46.66L484.2,235.06l-23.08,46.66Z"/><line class="cls-4" x1="536.57" y1="269.7" x2="479.6" y2="241.52"/><rect class="cls-2" x="506.8" y="223.83" width="2.56" height="63.56" transform="translate(53.68 597.66) rotate(-63.68)"/><line class="cls-4" x1="532.53" y1="277.86" x2="475.56" y2="249.67"/><rect class="cls-2" x="502.77" y="231.98" width="2.56" height="63.56" transform="translate(44.12 598.58) rotate(-63.68)"/><line class="cls-4" x1="528.5" y1="286.01" x2="471.53" y2="257.83"/><rect class="cls-2" x="498.73" y="240.14" width="2.56" height="63.56" transform="translate(34.58 599.52) rotate(-63.68)"/><line class="cls-4" x1="524.46" y1="294.16" x2="467.49" y2="265.98"/><rect class="cls-2" x="494.7" y="248.29" width="2.56" height="63.56" transform="translate(25.02 600.44) rotate(-63.68)"/><line class="cls-4" x1="520.43" y1="302.32" x2="463.46" y2="274.14"/><rect class="cls-2" x="490.66" y="256.45" width="2.56" height="63.56" transform="translate(15.47 601.36) rotate(-63.68)"/><line class="cls-4" x1="468.92" y1="286.99" x2="493.13" y2="238.06"/><rect class="cls-2" x="453.73" y="261.49" width="54.59" height="2.07" transform="translate(32.4 577.23) rotate(-63.67)"/><line class="cls-4" x1="478.42" y1="291.68" x2="502.62" y2="242.76"/><rect class="cls-2" x="463.22" y="266.19" width="54.59" height="2.07" transform="translate(33.41 588.26) rotate(-63.66)"/><line class="cls-4" x1="487.91" y1="296.38" x2="512.12" y2="247.45"/><rect class="cls-2" x="472.72" y="270.88" width="54.59" height="2.07" transform="translate(34.49 599.4) rotate(-63.66)"/><line class="cls-4" x1="497.41" y1="301.08" x2="521.61" y2="252.15"/><rect class="cls-2" x="482.21" y="275.58" width="54.59" height="2.07" transform="translate(35.56 610.52) rotate(-63.66)"/><line class="cls-4" x1="506.9" y1="305.78" x2="531.11" y2="256.85"/><rect class="cls-2" x="491.71" y="280.28" width="54.59" height="2.07" transform="translate(36.81 621.89) rotate(-63.69)"/><rect class="cls-4" x="534.38" y="270.65" width="54.59" height="63.56" transform="translate(41.55 671.76) rotate(-63.68)"/><path class="cls-2" d="M604,291.48l-25.33,51.2L519.4,313.37l25.32-51.2Zm-26.47,47.81,23.08-46.66-54.7-27.07-23.08,46.67Z"/><line class="cls-4" x1="598.23" y1="300.21" x2="541.26" y2="272.02"/><rect class="cls-2" x="568.47" y="254.34" width="2.56" height="63.56" transform="translate(60.65 669.91) rotate(-63.68)"/><line class="cls-4" x1="594.2" y1="308.36" x2="537.23" y2="280.18"/><rect class="cls-2" x="564.43" y="262.49" width="2.56" height="63.56" transform="translate(51.1 670.83) rotate(-63.68)"/><line class="cls-4" x1="590.16" y1="316.52" x2="533.19" y2="288.33"/><rect class="cls-2" x="560.4" y="270.65" width="2.56" height="63.56" transform="translate(41.55 671.76) rotate(-63.68)"/><line class="cls-4" x1="586.13" y1="324.67" x2="529.16" y2="296.49"/><rect class="cls-2" x="556.36" y="278.8" width="2.56" height="63.56" transform="translate(31.99 672.68) rotate(-63.68)"/><line class="cls-4" x1="582.09" y1="332.83" x2="525.12" y2="304.64"/><rect class="cls-2" x="552.33" y="286.96" width="2.56" height="63.56" transform="translate(22.44 673.61) rotate(-63.68)"/><line class="cls-4" x1="530.58" y1="317.49" x2="554.79" y2="268.57"/><rect class="cls-2" x="515.39" y="292" width="54.59" height="2.07" transform="translate(39.49 649.65) rotate(-63.69)"/><line class="cls-4" x1="540.08" y1="322.19" x2="564.29" y2="273.26"/><rect class="cls-2" x="524.89" y="296.69" width="54.59" height="2.07" transform="translate(40.51 660.69) rotate(-63.68)"/><line class="cls-4" x1="549.58" y1="326.89" x2="573.78" y2="277.96"/><rect class="cls-2" x="534.38" y="301.39" width="54.59" height="2.07" transform="translate(41.65 671.9) rotate(-63.69)"/><line class="cls-4" x1="559.07" y1="331.59" x2="583.28" y2="282.66"/><rect class="cls-2" x="543.88" y="306.09" width="54.59" height="2.07" transform="translate(42.73 683.04) rotate(-63.69)"/><line class="cls-4" x1="568.57" y1="336.28" x2="592.77" y2="287.36"/><rect class="cls-2" x="553.37" y="310.79" width="54.59" height="2.07" transform="translate(43.77 694.11) rotate(-63.69)"/><rect class="cls-4" x="596.11" y="301.18" width="54.59" height="63.56" transform="translate(48.53 744.08) rotate(-63.68)"/><path class="cls-2" d="M665.69,322l-25.33,51.19-59.24-29.3,25.33-51.2Zm-26.48,47.8,23.09-46.66L607.59,296.1l-23.08,46.66Z"/><line class="cls-4" x1="659.96" y1="330.74" x2="602.99" y2="302.56"/><rect class="cls-2" x="630.19" y="284.87" width="2.56" height="63.56" transform="translate(67.65 742.24) rotate(-63.68)"/><line class="cls-4" x1="655.92" y1="338.9" x2="598.95" y2="310.72"/><rect class="cls-2" x="626.16" y="293.03" width="2.56" height="63.56" transform="translate(58.09 743.17) rotate(-63.68)"/><line class="cls-4" x1="651.89" y1="347.05" x2="594.92" y2="318.87"/><rect class="cls-2" x="622.12" y="301.18" width="2.56" height="63.56" transform="translate(48.54 744.09) rotate(-63.68)"/><line class="cls-4" x1="647.85" y1="355.21" x2="590.88" y2="327.02"/><rect class="cls-2" x="618.09" y="309.34" width="2.56" height="63.56" transform="translate(38.97 745) rotate(-63.68)"/><line class="cls-4" x1="643.82" y1="363.36" x2="586.85" y2="335.18"/><rect class="cls-2" x="614.05" y="317.49" width="2.56" height="63.56" transform="translate(29.42 745.92) rotate(-63.68)"/><line class="cls-4" x1="592.31" y1="348.03" x2="616.52" y2="299.1"/><rect class="cls-2" x="577.12" y="322.53" width="54.59" height="2.07" transform="translate(46.35 721.79) rotate(-63.67)"/><line class="cls-4" x1="601.8" y1="352.73" x2="626.01" y2="303.8"/><rect class="cls-2" x="586.61" y="327.23" width="54.59" height="2.07" transform="translate(47.49 733) rotate(-63.68)"/><line class="cls-4" x1="611.3" y1="357.43" x2="635.51" y2="308.5"/><rect class="cls-2" x="596.11" y="331.93" width="54.59" height="2.07" transform="translate(48.64 744.23) rotate(-63.69)"/><line class="cls-4" x1="620.79" y1="362.12" x2="645" y2="313.2"/><rect class="cls-2" x="605.6" y="336.62" width="54.59" height="2.07" transform="translate(49.5 755.06) rotate(-63.66)"/><line class="cls-4" x1="630.29" y1="366.82" x2="654.5" y2="317.89"/><rect class="cls-2" x="615.1" y="341.32" width="54.59" height="2.07" transform="translate(50.79 766.49) rotate(-63.69)"/><rect class="cls-5" x="494.56" y="285.82" width="72.57" height="2.71" transform="translate(38.06 635.63) rotate(-63.68)"/><rect class="cls-5" x="432.87" y="255.3" width="72.57" height="2.71" transform="translate(31.08 563.35) rotate(-63.68)"/><rect class="cls-5" x="368.7" y="223.55" width="72.57" height="2.71" transform="translate(23.82 488.17) rotate(-63.68)"/><rect class="cls-5" x="556.26" y="316.34" width="72.57" height="2.71" transform="translate(45.04 707.92) rotate(-63.68)"/><path class="cls-1" d="M640.24,362.42c.88,2.61,5,3.61,9.15,2.21s6.86-4.64,6-7.26-5-3.61-9.15-2.22S639.37,359.8,640.24,362.42Z"/><rect class="cls-1" x="221.19" y="203.76" width="70.77" height="1.69" transform="translate(-16.83 386.09) rotate(-72.15)"/><path class="cls-1" d="M259.82,168.89c.87,2.62,5,3.61,9.14,2.22s6.86-4.65,6-7.27-5-3.61-9.15-2.21S258.94,166.27,259.82,168.89Z"/><path class="cls-1" d="M257.62,159.09c.88,2.62,5,3.61,9.15,2.22s6.86-4.65,6-7.27-5-3.6-9.15-2.21S256.75,156.47,257.62,159.09Z"/><path class="cls-2" d="M354.52,228.24a91.19,91.19,0,0,1-5.75,9.95l17.32,8.57L400.62,177l-47-23.24C366.24,173.46,367.43,202.14,354.52,228.24Z"/><path class="cls-6" d="M284.68,206.49l64.09,31.7a91.19,91.19,0,0,0,5.75-9.95c12.91-26.1,11.72-54.78-.87-74.53l-34.43-17Z"/><polygon class="cls-7" points="321.35 106.7 320.97 111.99 419.28 160.63 423.28 157.13 321.35 106.7"/><polygon class="cls-1" points="319.21 136.67 400.62 176.95 419.28 160.63 320.97 111.99 319.21 136.67"/><rect class="cls-12" x="323.23" y="148.2" width="36.97" height="90.83" transform="translate(16.65 414.05) rotate(-63.68)"/><rect class="cls-5" x="334.91" y="157.03" width="4.66" height="90.96" transform="translate(6.21 415.02) rotate(-63.68)"/><rect class="cls-5" x="343.83" y="139" width="4.66" height="90.96" transform="translate(27.3 412.92) rotate(-63.67)"/><rect class="cls-7" x="384.15" y="208.8" width="12.48" height="17.79" transform="translate(22.16 471.08) rotate(-63.68)"/><rect class="cls-7" x="286.79" y="160.64" width="12.48" height="17.79" transform="translate(11.15 357.02) rotate(-63.68)"/></g></g></svg>